<?xml version="1.0" encoding="utf-8" standalone="no"?>
<!DOCTYPE svg PUBLIC "-//W3C//DTD SVG 1.1//EN"
  "http://www.w3.org/Graphics/SVG/1.1/DTD/svg11.dtd">
<svg xmlns:xlink="http://www.w3.org/1999/xlink" width="223.2pt" height="223.2pt" viewBox="0 0 223.2 223.2" xmlns="http://www.w3.org/2000/svg" version="1.1">
 <metadata>
  <rdf:RDF xmlns:dc="http://purl.org/dc/elements/1.1/" xmlns:cc="http://creativecommons.org/ns#" xmlns:rdf="http://www.w3.org/1999/02/22-rdf-syntax-ns#">
   <cc:Work>
    <dc:type rdf:resource="http://purl.org/dc/dcmitype/StillImage"/>
    <dc:date>2023-08-20T08:47:22.148458</dc:date>
    <dc:format>image/svg+xml</dc:format>
    <dc:creator>
     <cc:Agent>
      <dc:title>Matplotlib v3.7.1, https://matplotlib.org/</dc:title>
     </cc:Agent>
    </dc:creator>
   </cc:Work>
  </rdf:RDF>
 </metadata>
 <defs>
  <style type="text/css">*{stroke-linejoin: round; stroke-linecap: butt}</style>
 </defs>
 <g id="figure_1">
  <g id="patch_1">
   <path d="M 0 223.2 
L 223.2 223.2 
L 223.2 0 
L 0 0 
z
" style="fill: #ffffff"/>
  </g>
  <g id="axes_1">
   <g id="patch_2">
    <path d="M 30.228634 197.159776 
L 219.6 197.159776 
L 219.6 3.6 
L 30.228634 3.6 
z
" style="fill: #ffffff"/>
   </g>
   <g id="matplotlib.axis_1">
    <g id="xtick_1">
     <g id="line2d_1">
      <defs>
       <path id="maa046f6c04" d="M 0 0 
L 0 -3 
" style="stroke: #000000; stroke-width: 0.5"/>
      </defs>
      <g>
       <use xlink:href="#maa046f6c04" x="38.836424" y="197.159776" style="stroke: #000000; stroke-width: 0.5"/>
      </g>
     </g>
     <g id="line2d_2">
      <defs>
       <path id="m8beeeddcc7" d="M 0 0 
L 0 3 
" style="stroke: #000000; stroke-width: 0.5"/>
      </defs>
      <g>
       <use xlink:href="#m8beeeddcc7" x="38.836424" y="3.6" style="stroke: #000000; stroke-width: 0.5"/>
      </g>
     </g>
     <g id="text_1">
      <!-- $\mathdefault{0}$ -->
      <g transform="translate(36.719332 206.694578) scale(0.08 -0.08)">
       <defs>
        <path id="CMR17-30" d="M 2688 2038 
C 2688 2430 2682 3099 2413 3613 
C 2176 4063 1798 4224 1466 4224 
C 1158 4224 768 4082 525 3620 
C 269 3137 243 2539 243 2038 
C 243 1671 250 1112 448 623 
C 723 -39 1216 -128 1466 -128 
C 1760 -128 2208 -7 2470 604 
C 2662 1048 2688 1568 2688 2038 
z
M 1466 -26 
C 1056 -26 813 328 723 816 
C 653 1196 653 1749 653 2109 
C 653 2604 653 3015 736 3407 
C 858 3954 1216 4121 1466 4121 
C 1728 4121 2067 3947 2189 3420 
C 2272 3054 2278 2623 2278 2109 
C 2278 1691 2278 1176 2202 797 
C 2067 96 1690 -26 1466 -26 
z
" transform="scale(0.015625)"/>
       </defs>
       <use xlink:href="#CMR17-30" transform="scale(0.996264)"/>
      </g>
     </g>
    </g>
    <g id="xtick_2">
     <g id="line2d_3">
      <g>
       <use xlink:href="#maa046f6c04" x="82.091647" y="197.159776" style="stroke: #000000; stroke-width: 0.5"/>
      </g>
     </g>
     <g id="line2d_4">
      <g>
       <use xlink:href="#m8beeeddcc7" x="82.091647" y="3.6" style="stroke: #000000; stroke-width: 0.5"/>
      </g>
     </g>
     <g id="text_2">
      <!-- $\mathdefault{50}$ -->
      <g transform="translate(77.857464 206.694578) scale(0.08 -0.08)">
       <defs>
        <path id="CMR17-35" d="M 730 3750 
C 794 3724 1056 3641 1325 3641 
C 1920 3641 2246 3961 2432 4140 
C 2432 4191 2432 4224 2394 4224 
C 2387 4224 2374 4224 2323 4198 
C 2099 4102 1837 4032 1517 4032 
C 1325 4032 1037 4055 723 4191 
C 653 4224 640 4224 634 4224 
C 602 4224 595 4217 595 4090 
L 595 2231 
C 595 2113 595 2080 659 2080 
C 691 2080 704 2093 736 2139 
C 941 2435 1222 2560 1542 2560 
C 1766 2560 2246 2415 2246 1293 
C 2246 1087 2246 716 2054 422 
C 1894 159 1645 25 1370 25 
C 947 25 518 319 403 812 
C 429 806 480 793 506 793 
C 589 793 749 838 749 1036 
C 749 1209 627 1280 506 1280 
C 358 1280 262 1190 262 1011 
C 262 454 704 -128 1382 -128 
C 2042 -128 2669 441 2669 1267 
C 2669 2054 2170 2662 1549 2662 
C 1222 2662 947 2540 730 2304 
L 730 3750 
z
" transform="scale(0.015625)"/>
       </defs>
       <use xlink:href="#CMR17-35" transform="scale(0.996264)"/>
       <use xlink:href="#CMR17-30" transform="translate(45.690477 0) scale(0.996264)"/>
      </g>
     </g>
    </g>
    <g id="xtick_3">
     <g id="line2d_5">
      <g>
       <use xlink:href="#maa046f6c04" x="125.346869" y="197.159776" style="stroke: #000000; stroke-width: 0.5"/>
      </g>
     </g>
     <g id="line2d_6">
      <g>
       <use xlink:href="#m8beeeddcc7" x="125.346869" y="3.6" style="stroke: #000000; stroke-width: 0.5"/>
      </g>
     </g>
     <g id="text_3">
      <!-- $\mathdefault{100}$ -->
      <g transform="translate(118.995595 206.694578) scale(0.08 -0.08)">
       <defs>
        <path id="CMR17-31" d="M 1702 4083 
C 1702 4217 1696 4224 1606 4224 
C 1357 3927 979 3833 621 3820 
C 602 3820 570 3820 563 3808 
C 557 3795 557 3782 557 3648 
C 755 3648 1088 3686 1344 3839 
L 1344 467 
C 1344 243 1331 166 781 166 
L 589 166 
L 589 0 
C 896 6 1216 12 1523 12 
C 1830 12 2150 6 2458 0 
L 2458 166 
L 2266 166 
C 1715 166 1702 236 1702 467 
L 1702 4083 
z
" transform="scale(0.015625)"/>
       </defs>
       <use xlink:href="#CMR17-31" transform="scale(0.996264)"/>
       <use xlink:href="#CMR17-30" transform="translate(45.690477 0) scale(0.996264)"/>
       <use xlink:href="#CMR17-30" transform="translate(91.380954 0) scale(0.996264)"/>
      </g>
     </g>
    </g>
    <g id="xtick_4">
     <g id="line2d_7">
      <g>
       <use xlink:href="#maa046f6c04" x="168.602092" y="197.159776" style="stroke: #000000; stroke-width: 0.5"/>
      </g>
     </g>
     <g id="line2d_8">
      <g>
       <use xlink:href="#m8beeeddcc7" x="168.602092" y="3.6" style="stroke: #000000; stroke-width: 0.5"/>
      </g>
     </g>
     <g id="text_4">
      <!-- $\mathdefault{150}$ -->
      <g transform="translate(162.250818 206.694578) scale(0.08 -0.08)">
       <use xlink:href="#CMR17-31" transform="scale(0.996264)"/>
       <use xlink:href="#CMR17-35" transform="translate(45.690477 0) scale(0.996264)"/>
       <use xlink:href="#CMR17-30" transform="translate(91.380954 0) scale(0.996264)"/>
      </g>
     </g>
    </g>
    <g id="xtick_5">
     <g id="line2d_9">
      <g>
       <use xlink:href="#maa046f6c04" x="211.857315" y="197.159776" style="stroke: #000000; stroke-width: 0.5"/>
      </g>
     </g>
     <g id="line2d_10">
      <g>
       <use xlink:href="#m8beeeddcc7" x="211.857315" y="3.6" style="stroke: #000000; stroke-width: 0.5"/>
      </g>
     </g>
     <g id="text_5">
      <!-- $\mathdefault{200}$ -->
      <g transform="translate(205.506041 206.694578) scale(0.08 -0.08)">
       <defs>
        <path id="CMR17-32" d="M 2669 990 
L 2554 990 
C 2490 537 2438 460 2413 422 
C 2381 371 1920 371 1830 371 
L 602 371 
C 832 620 1280 1073 1824 1596 
C 2214 1966 2669 2400 2669 3033 
C 2669 3788 2067 4224 1395 4224 
C 691 4224 262 3603 262 3027 
C 262 2777 448 2745 525 2745 
C 589 2745 781 2783 781 3007 
C 781 3206 614 3264 525 3264 
C 486 3264 448 3257 422 3244 
C 544 3788 915 4057 1306 4057 
C 1862 4057 2227 3616 2227 3033 
C 2227 2477 1901 1998 1536 1583 
L 262 147 
L 262 0 
L 2515 0 
L 2669 990 
z
" transform="scale(0.015625)"/>
       </defs>
       <use xlink:href="#CMR17-32" transform="scale(0.996264)"/>
       <use xlink:href="#CMR17-30" transform="translate(45.690477 0) scale(0.996264)"/>
       <use xlink:href="#CMR17-30" transform="translate(91.380954 0) scale(0.996264)"/>
      </g>
     </g>
    </g>
    <g id="xtick_6">
     <g id="line2d_11">
      <defs>
       <path id="ma955b7d028" d="M 0 0 
L 0 -1.5 
" style="stroke: #000000; stroke-width: 0.5"/>
      </defs>
      <g>
       <use xlink:href="#ma955b7d028" x="47.487468" y="197.159776" style="stroke: #000000; stroke-width: 0.5"/>
      </g>
     </g>
     <g id="line2d_12">
      <defs>
       <path id="ma78f6d2365" d="M 0 0 
L 0 1.5 
" style="stroke: #000000; stroke-width: 0.5"/>
      </defs>
      <g>
       <use xlink:href="#ma78f6d2365" x="47.487468" y="3.6" style="stroke: #000000; stroke-width: 0.5"/>
      </g>
     </g>
    </g>
    <g id="xtick_7">
     <g id="line2d_13">
      <g>
       <use xlink:href="#ma955b7d028" x="56.138513" y="197.159776" style="stroke: #000000; stroke-width: 0.5"/>
      </g>
     </g>
     <g id="line2d_14">
      <g>
       <use xlink:href="#ma78f6d2365" x="56.138513" y="3.6" style="stroke: #000000; stroke-width: 0.5"/>
      </g>
     </g>
    </g>
    <g id="xtick_8">
     <g id="line2d_15">
      <g>
       <use xlink:href="#ma955b7d028" x="64.789557" y="197.159776" style="stroke: #000000; stroke-width: 0.5"/>
      </g>
     </g>
     <g id="line2d_16">
      <g>
       <use xlink:href="#ma78f6d2365" x="64.789557" y="3.6" style="stroke: #000000; stroke-width: 0.5"/>
      </g>
     </g>
    </g>
    <g id="xtick_9">
     <g id="line2d_17">
      <g>
       <use xlink:href="#ma955b7d028" x="73.440602" y="197.159776" style="stroke: #000000; stroke-width: 0.5"/>
      </g>
     </g>
     <g id="line2d_18">
      <g>
       <use xlink:href="#ma78f6d2365" x="73.440602" y="3.6" style="stroke: #000000; stroke-width: 0.5"/>
      </g>
     </g>
    </g>
    <g id="xtick_10">
     <g id="line2d_19">
      <g>
       <use xlink:href="#ma955b7d028" x="90.742691" y="197.159776" style="stroke: #000000; stroke-width: 0.5"/>
      </g>
     </g>
     <g id="line2d_20">
      <g>
       <use xlink:href="#ma78f6d2365" x="90.742691" y="3.6" style="stroke: #000000; stroke-width: 0.5"/>
      </g>
     </g>
    </g>
    <g id="xtick_11">
     <g id="line2d_21">
      <g>
       <use xlink:href="#ma955b7d028" x="99.393736" y="197.159776" style="stroke: #000000; stroke-width: 0.5"/>
      </g>
     </g>
     <g id="line2d_22">
      <g>
       <use xlink:href="#ma78f6d2365" x="99.393736" y="3.6" style="stroke: #000000; stroke-width: 0.5"/>
      </g>
     </g>
    </g>
    <g id="xtick_12">
     <g id="line2d_23">
      <g>
       <use xlink:href="#ma955b7d028" x="108.04478" y="197.159776" style="stroke: #000000; stroke-width: 0.5"/>
      </g>
     </g>
     <g id="line2d_24">
      <g>
       <use xlink:href="#ma78f6d2365" x="108.04478" y="3.6" style="stroke: #000000; stroke-width: 0.5"/>
      </g>
     </g>
    </g>
    <g id="xtick_13">
     <g id="line2d_25">
      <g>
       <use xlink:href="#ma955b7d028" x="116.695825" y="197.159776" style="stroke: #000000; stroke-width: 0.5"/>
      </g>
     </g>
     <g id="line2d_26">
      <g>
       <use xlink:href="#ma78f6d2365" x="116.695825" y="3.6" style="stroke: #000000; stroke-width: 0.5"/>
      </g>
     </g>
    </g>
    <g id="xtick_14">
     <g id="line2d_27">
      <g>
       <use xlink:href="#ma955b7d028" x="133.997914" y="197.159776" style="stroke: #000000; stroke-width: 0.5"/>
      </g>
     </g>
     <g id="line2d_28">
      <g>
       <use xlink:href="#ma78f6d2365" x="133.997914" y="3.6" style="stroke: #000000; stroke-width: 0.5"/>
      </g>
     </g>
    </g>
    <g id="xtick_15">
     <g id="line2d_29">
      <g>
       <use xlink:href="#ma955b7d028" x="142.648959" y="197.159776" style="stroke: #000000; stroke-width: 0.5"/>
      </g>
     </g>
     <g id="line2d_30">
      <g>
       <use xlink:href="#ma78f6d2365" x="142.648959" y="3.6" style="stroke: #000000; stroke-width: 0.5"/>
      </g>
     </g>
    </g>
    <g id="xtick_16">
     <g id="line2d_31">
      <g>
       <use xlink:href="#ma955b7d028" x="151.300003" y="197.159776" style="stroke: #000000; stroke-width: 0.5"/>
      </g>
     </g>
     <g id="line2d_32">
      <g>
       <use xlink:href="#ma78f6d2365" x="151.300003" y="3.6" style="stroke: #000000; stroke-width: 0.5"/>
      </g>
     </g>
    </g>
    <g id="xtick_17">
     <g id="line2d_33">
      <g>
       <use xlink:href="#ma955b7d028" x="159.951048" y="197.159776" style="stroke: #000000; stroke-width: 0.5"/>
      </g>
     </g>
     <g id="line2d_34">
      <g>
       <use xlink:href="#ma78f6d2365" x="159.951048" y="3.6" style="stroke: #000000; stroke-width: 0.5"/>
      </g>
     </g>
    </g>
    <g id="xtick_18">
     <g id="line2d_35">
      <g>
       <use xlink:href="#ma955b7d028" x="177.253137" y="197.159776" style="stroke: #000000; stroke-width: 0.5"/>
      </g>
     </g>
     <g id="line2d_36">
      <g>
       <use xlink:href="#ma78f6d2365" x="177.253137" y="3.6" style="stroke: #000000; stroke-width: 0.5"/>
      </g>
     </g>
    </g>
    <g id="xtick_19">
     <g id="line2d_37">
      <g>
       <use xlink:href="#ma955b7d028" x="185.904181" y="197.159776" style="stroke: #000000; stroke-width: 0.5"/>
      </g>
     </g>
     <g id="line2d_38">
      <g>
       <use xlink:href="#ma78f6d2365" x="185.904181" y="3.6" style="stroke: #000000; stroke-width: 0.5"/>
      </g>
     </g>
    </g>
    <g id="xtick_20">
     <g id="line2d_39">
      <g>
       <use xlink:href="#ma955b7d028" x="194.555226" y="197.159776" style="stroke: #000000; stroke-width: 0.5"/>
      </g>
     </g>
     <g id="line2d_40">
      <g>
       <use xlink:href="#ma78f6d2365" x="194.555226" y="3.6" style="stroke: #000000; stroke-width: 0.5"/>
      </g>
     </g>
    </g>
    <g id="xtick_21">
     <g id="line2d_41">
      <g>
       <use xlink:href="#ma955b7d028" x="203.206271" y="197.159776" style="stroke: #000000; stroke-width: 0.5"/>
      </g>
     </g>
     <g id="line2d_42">
      <g>
       <use xlink:href="#ma78f6d2365" x="203.206271" y="3.6" style="stroke: #000000; stroke-width: 0.5"/>
      </g>
     </g>
    </g>
    <g id="text_6">
     <!-- $MC steps$ -->
     <g transform="translate(104.32763 217.662822) scale(0.1 -0.1)">
      <defs>
       <path id="CMMI12-4d" d="M 5811 3886 
C 5869 4102 5882 4166 6336 4166 
C 6458 4166 6515 4166 6515 4287 
C 6515 4352 6470 4352 6349 4352 
L 5581 4352 
C 5421 4352 5414 4345 5344 4243 
L 3008 567 
L 2528 4211 
C 2509 4352 2502 4352 2336 4352 
L 1542 4352 
C 1421 4352 1363 4352 1363 4230 
C 1363 4166 1421 4166 1517 4166 
C 1907 4166 1907 4115 1907 4045 
C 1907 4032 1907 3994 1882 3898 
L 1062 650 
C 986 344 838 204 410 185 
C 390 185 314 179 314 70 
C 314 0 371 0 397 0 
C 525 0 851 12 979 12 
L 1286 12 
C 1376 12 1485 0 1574 0 
C 1619 0 1690 0 1690 121 
C 1690 179 1626 185 1600 185 
C 1389 191 1184 230 1184 459 
C 1184 523 1184 529 1210 618 
L 2093 4128 
L 2099 4128 
L 2630 172 
C 2650 19 2656 0 2714 0 
C 2784 0 2816 51 2848 108 
L 5421 4159 
L 5427 4159 
L 4499 472 
C 4442 249 4429 185 3981 185 
C 3859 185 3795 185 3795 70 
C 3795 0 3853 0 3891 0 
C 4000 0 4128 12 4237 12 
L 4992 12 
C 5101 12 5235 0 5344 0 
C 5395 0 5466 0 5466 121 
C 5466 185 5408 185 5312 185 
C 4922 185 4922 236 4922 300 
C 4922 306 4922 351 4934 402 
L 5811 3886 
z
" transform="scale(0.015625)"/>
       <path id="CMMI12-43" d="M 4781 4422 
C 4781 4480 4736 4480 4723 4480 
C 4710 4480 4685 4480 4634 4415 
L 4192 3881 
C 3968 4262 3616 4480 3136 4480 
C 1754 4480 320 3087 320 1594 
C 320 533 1069 -128 2003 -128 
C 2515 -128 2963 89 3334 400 
C 3891 864 4058 1480 4058 1531 
C 4058 1588 4006 1588 3987 1588 
C 3930 1588 3923 1550 3910 1524 
C 3616 533 2752 57 2112 57 
C 1434 57 845 489 845 1391 
C 845 1594 909 2699 1632 3531 
C 1984 3938 2586 4294 3194 4294 
C 3898 4294 4211 3716 4211 3068 
C 4211 2903 4192 2763 4192 2737 
C 4192 2680 4256 2680 4275 2680 
C 4346 2680 4352 2687 4378 2801 
L 4781 4422 
z
" transform="scale(0.015625)"/>
       <path id="CMMI12-73" d="M 1459 1290 
C 1568 1271 1741 1233 1779 1227 
C 1862 1201 2150 1099 2150 793 
C 2150 595 1971 64 1229 64 
C 1094 64 614 83 486 447 
C 742 414 870 614 870 755 
C 870 889 781 960 653 960 
C 512 960 326 851 326 563 
C 326 176 710 -64 1222 -64 
C 2195 -64 2483 665 2483 998 
C 2483 1093 2483 1271 2278 1475 
C 2118 1627 1965 1659 1619 1729 
C 1446 1767 1171 1824 1171 2111 
C 1171 2239 1286 2687 1894 2687 
C 2163 2687 2426 2589 2490 2368 
C 2208 2368 2195 2124 2195 2118 
C 2195 1983 2317 1945 2374 1945 
C 2464 1945 2643 2015 2643 2284 
C 2643 2546 2400 2816 1901 2816 
C 1062 2816 838 2169 838 1907 
C 838 1424 1312 1322 1459 1290 
z
" transform="scale(0.015625)"/>
       <path id="CMMI12-74" d="M 1286 2566 
L 1875 2566 
C 1997 2566 2061 2566 2061 2681 
C 2061 2752 2022 2752 1894 2752 
L 1331 2752 
L 1568 3664 
C 1594 3752 1594 3764 1594 3808 
C 1594 3910 1510 3968 1427 3968 
C 1376 3968 1229 3948 1178 3746 
L 928 2752 
L 326 2752 
C 198 2752 141 2752 141 2630 
C 141 2566 186 2566 307 2566 
L 877 2566 
L 454 881 
C 403 657 384 593 384 510 
C 384 210 595 -64 954 -64 
C 1600 -64 1946 868 1946 913 
C 1946 951 1920 970 1882 970 
C 1869 970 1843 970 1830 944 
C 1824 938 1818 932 1773 830 
C 1638 510 1344 64 973 64 
C 781 64 768 223 768 364 
C 768 370 768 491 787 568 
L 1286 2566 
z
" transform="scale(0.015625)"/>
       <path id="CMMI12-65" d="M 1146 1472 
C 1318 1472 1754 1484 2061 1600 
C 2547 1786 2592 2160 2592 2275 
C 2592 2559 2349 2816 1926 2816 
C 1254 2816 288 2205 288 1066 
C 288 400 672 -64 1254 -64 
C 2125 -64 2675 609 2675 691 
C 2675 729 2637 761 2611 761 
C 2592 761 2586 755 2528 698 
C 2118 159 1510 64 1267 64 
C 902 64 710 349 710 818 
C 710 907 710 1066 806 1472 
L 1146 1472 
z
M 838 1600 
C 1114 2591 1722 2687 1926 2687 
C 2208 2687 2400 2520 2400 2275 
C 2400 1600 1376 1600 1107 1600 
L 838 1600 
z
" transform="scale(0.015625)"/>
       <path id="CMMI12-70" d="M 275 -794 
C 230 -981 205 -1031 -58 -1031 
C -135 -1031 -199 -1031 -199 -1152 
C -199 -1165 -192 -1216 -122 -1216 
C -39 -1216 51 -1204 134 -1204 
L 410 -1204 
C 544 -1204 870 -1216 1005 -1216 
C 1043 -1216 1120 -1216 1120 -1101 
C 1120 -1031 1075 -1031 966 -1031 
C 672 -1031 653 -987 653 -937 
C 653 -863 941 217 979 364 
C 1050 185 1222 -64 1555 -64 
C 2278 -64 3059 874 3059 1813 
C 3059 2400 2726 2816 2246 2816 
C 1837 2816 1491 2419 1421 2330 
C 1370 2649 1120 2816 864 2816 
C 678 2816 531 2726 410 2483 
C 294 2253 205 1864 205 1838 
C 205 1813 230 1781 275 1781 
C 326 1781 333 1787 371 1934 
C 467 2311 589 2687 845 2687 
C 992 2687 1043 2585 1043 2394 
C 1043 2241 1024 2177 998 2062 
L 275 -794 
z
M 1382 1992 
C 1427 2170 1606 2356 1709 2445 
C 1779 2509 1990 2687 2234 2687 
C 2515 2687 2643 2407 2643 2075 
C 2643 1768 2464 1047 2304 715 
C 2144 370 1850 64 1555 64 
C 1120 64 1050 613 1050 638 
C 1050 657 1062 708 1069 740 
L 1382 1992 
z
" transform="scale(0.015625)"/>
      </defs>
      <use xlink:href="#CMMI12-4d" transform="scale(0.996264)"/>
      <use xlink:href="#CMMI12-43" transform="translate(104.780079 0) scale(0.996264)"/>
      <use xlink:href="#CMMI12-73" transform="translate(181.726926 0) scale(0.996264)"/>
      <use xlink:href="#CMMI12-74" transform="translate(227.676973 0) scale(0.996264)"/>
      <use xlink:href="#CMMI12-65" transform="translate(262.903303 0) scale(0.996264)"/>
      <use xlink:href="#CMMI12-70" transform="translate(308.115304 0) scale(0.996264)"/>
      <use xlink:href="#CMMI12-73" transform="translate(357.074818 0) scale(0.996264)"/>
     </g>
    </g>
   </g>
   <g id="matplotlib.axis_2">
    <g id="ytick_1">
     <g id="line2d_43">
      <defs>
       <path id="md1061a1b78" d="M 0 0 
L 3 0 
" style="stroke: #000000; stroke-width: 0.5"/>
      </defs>
      <g>
       <use xlink:href="#md1061a1b78" x="30.228634" y="190.429339" style="stroke: #000000; stroke-width: 0.5"/>
      </g>
     </g>
     <g id="line2d_44">
      <defs>
       <path id="m5cff9ca10a" d="M 0 0 
L -3 0 
" style="stroke: #000000; stroke-width: 0.5"/>
      </defs>
      <g>
       <use xlink:href="#m5cff9ca10a" x="219.6" y="190.429339" style="stroke: #000000; stroke-width: 0.5"/>
      </g>
     </g>
     <g id="text_7">
      <!-- $\mathdefault{0}$ -->
      <g transform="translate(21.994452 193.19674) scale(0.08 -0.08)">
       <use xlink:href="#CMR17-30" transform="scale(0.996264)"/>
      </g>
     </g>
    </g>
    <g id="ytick_2">
     <g id="line2d_45">
      <g>
       <use xlink:href="#md1061a1b78" x="30.228634" y="152.990521" style="stroke: #000000; stroke-width: 0.5"/>
      </g>
     </g>
     <g id="line2d_46">
      <g>
       <use xlink:href="#m5cff9ca10a" x="219.6" y="152.990521" style="stroke: #000000; stroke-width: 0.5"/>
      </g>
     </g>
     <g id="text_8">
      <!-- $\mathdefault{20}$ -->
      <g transform="translate(17.760269 155.757922) scale(0.08 -0.08)">
       <use xlink:href="#CMR17-32" transform="scale(0.996264)"/>
       <use xlink:href="#CMR17-30" transform="translate(45.690477 0) scale(0.996264)"/>
      </g>
     </g>
    </g>
    <g id="ytick_3">
     <g id="line2d_47">
      <g>
       <use xlink:href="#md1061a1b78" x="30.228634" y="115.551703" style="stroke: #000000; stroke-width: 0.5"/>
      </g>
     </g>
     <g id="line2d_48">
      <g>
       <use xlink:href="#m5cff9ca10a" x="219.6" y="115.551703" style="stroke: #000000; stroke-width: 0.5"/>
      </g>
     </g>
     <g id="text_9">
      <!-- $\mathdefault{40}$ -->
      <g transform="translate(17.760269 118.319104) scale(0.08 -0.08)">
       <defs>
        <path id="CMR17-34" d="M 2150 4147 
C 2150 4281 2144 4288 2029 4288 
L 128 1254 
L 128 1088 
L 1779 1088 
L 1779 460 
C 1779 230 1766 166 1318 166 
L 1197 166 
L 1197 0 
C 1402 12 1747 12 1965 12 
C 2182 12 2528 12 2733 0 
L 2733 166 
L 2611 166 
C 2163 166 2150 230 2150 460 
L 2150 1088 
L 2803 1088 
L 2803 1254 
L 2150 1254 
L 2150 4147 
z
M 1798 3723 
L 1798 1254 
L 256 1254 
L 1798 3723 
z
" transform="scale(0.015625)"/>
       </defs>
       <use xlink:href="#CMR17-34" transform="scale(0.996264)"/>
       <use xlink:href="#CMR17-30" transform="translate(45.690477 0) scale(0.996264)"/>
      </g>
     </g>
    </g>
    <g id="ytick_4">
     <g id="line2d_49">
      <g>
       <use xlink:href="#md1061a1b78" x="30.228634" y="78.112885" style="stroke: #000000; stroke-width: 0.5"/>
      </g>
     </g>
     <g id="line2d_50">
      <g>
       <use xlink:href="#m5cff9ca10a" x="219.6" y="78.112885" style="stroke: #000000; stroke-width: 0.5"/>
      </g>
     </g>
     <g id="text_10">
      <!-- $\mathdefault{60}$ -->
      <g transform="translate(17.760269 80.880286) scale(0.08 -0.08)">
       <defs>
        <path id="CMR17-36" d="M 678 2198 
C 678 3712 1395 4076 1811 4076 
C 1946 4076 2272 4049 2400 3782 
C 2298 3782 2106 3782 2106 3558 
C 2106 3385 2246 3328 2336 3328 
C 2394 3328 2566 3353 2566 3571 
C 2566 3987 2246 4224 1805 4224 
C 1043 4224 243 3411 243 2011 
C 243 257 966 -128 1478 -128 
C 2099 -128 2688 431 2688 1295 
C 2688 2101 2170 2688 1517 2688 
C 1126 2688 838 2430 678 1979 
L 678 2198 
z
M 1478 25 
C 691 25 691 1212 691 1450 
C 691 1914 909 2585 1504 2585 
C 1613 2585 1926 2585 2138 2140 
C 2253 1889 2253 1624 2253 1302 
C 2253 954 2253 696 2118 438 
C 1978 173 1773 25 1478 25 
z
" transform="scale(0.015625)"/>
       </defs>
       <use xlink:href="#CMR17-36" transform="scale(0.996264)"/>
       <use xlink:href="#CMR17-30" transform="translate(45.690477 0) scale(0.996264)"/>
      </g>
     </g>
    </g>
    <g id="ytick_5">
     <g id="line2d_51">
      <g>
       <use xlink:href="#md1061a1b78" x="30.228634" y="40.674068" style="stroke: #000000; stroke-width: 0.5"/>
      </g>
     </g>
     <g id="line2d_52">
      <g>
       <use xlink:href="#m5cff9ca10a" x="219.6" y="40.674068" style="stroke: #000000; stroke-width: 0.5"/>
      </g>
     </g>
     <g id="text_11">
      <!-- $\mathdefault{80}$ -->
      <g transform="translate(17.760269 43.441468) scale(0.08 -0.08)">
       <defs>
        <path id="CMR17-38" d="M 1741 2289 
C 2144 2494 2554 2803 2554 3298 
C 2554 3884 1990 4224 1472 4224 
C 890 4224 378 3800 378 3215 
C 378 3054 416 2777 666 2533 
C 730 2469 998 2276 1171 2154 
C 883 2006 211 1652 211 945 
C 211 282 838 -128 1459 -128 
C 2144 -128 2720 366 2720 1022 
C 2720 1607 2330 1877 2074 2051 
L 1741 2289 
z
M 902 2855 
C 851 2887 595 3086 595 3388 
C 595 3781 998 4076 1459 4076 
C 1965 4076 2336 3716 2336 3298 
C 2336 2700 1670 2359 1638 2359 
C 1632 2359 1626 2359 1574 2398 
L 902 2855 
z
M 2080 1536 
C 2176 1466 2483 1253 2483 861 
C 2483 385 2010 25 1472 25 
C 890 25 448 443 448 951 
C 448 1459 838 1884 1280 2083 
L 2080 1536 
z
" transform="scale(0.015625)"/>
       </defs>
       <use xlink:href="#CMR17-38" transform="scale(0.996264)"/>
       <use xlink:href="#CMR17-30" transform="translate(45.690477 0) scale(0.996264)"/>
      </g>
     </g>
    </g>
    <g id="ytick_6">
     <g id="line2d_53">
      <defs>
       <path id="m65161d96a9" d="M 0 0 
L 1.5 0 
" style="stroke: #000000; stroke-width: 0.5"/>
      </defs>
      <g>
       <use xlink:href="#m65161d96a9" x="30.228634" y="181.069635" style="stroke: #000000; stroke-width: 0.5"/>
      </g>
     </g>
     <g id="line2d_54">
      <defs>
       <path id="mcfb95c1bc7" d="M 0 0 
L -1.5 0 
" style="stroke: #000000; stroke-width: 0.5"/>
      </defs>
      <g>
       <use xlink:href="#mcfb95c1bc7" x="219.6" y="181.069635" style="stroke: #000000; stroke-width: 0.5"/>
      </g>
     </g>
    </g>
    <g id="ytick_7">
     <g id="line2d_55">
      <g>
       <use xlink:href="#m65161d96a9" x="30.228634" y="171.70993" style="stroke: #000000; stroke-width: 0.5"/>
      </g>
     </g>
     <g id="line2d_56">
      <g>
       <use xlink:href="#mcfb95c1bc7" x="219.6" y="171.70993" style="stroke: #000000; stroke-width: 0.5"/>
      </g>
     </g>
    </g>
    <g id="ytick_8">
     <g id="line2d_57">
      <g>
       <use xlink:href="#m65161d96a9" x="30.228634" y="162.350226" style="stroke: #000000; stroke-width: 0.5"/>
      </g>
     </g>
     <g id="line2d_58">
      <g>
       <use xlink:href="#mcfb95c1bc7" x="219.6" y="162.350226" style="stroke: #000000; stroke-width: 0.5"/>
      </g>
     </g>
    </g>
    <g id="ytick_9">
     <g id="line2d_59">
      <g>
       <use xlink:href="#m65161d96a9" x="30.228634" y="143.630817" style="stroke: #000000; stroke-width: 0.5"/>
      </g>
     </g>
     <g id="line2d_60">
      <g>
       <use xlink:href="#mcfb95c1bc7" x="219.6" y="143.630817" style="stroke: #000000; stroke-width: 0.5"/>
      </g>
     </g>
    </g>
    <g id="ytick_10">
     <g id="line2d_61">
      <g>
       <use xlink:href="#m65161d96a9" x="30.228634" y="134.271112" style="stroke: #000000; stroke-width: 0.5"/>
      </g>
     </g>
     <g id="line2d_62">
      <g>
       <use xlink:href="#mcfb95c1bc7" x="219.6" y="134.271112" style="stroke: #000000; stroke-width: 0.5"/>
      </g>
     </g>
    </g>
    <g id="ytick_11">
     <g id="line2d_63">
      <g>
       <use xlink:href="#m65161d96a9" x="30.228634" y="124.911408" style="stroke: #000000; stroke-width: 0.5"/>
      </g>
     </g>
     <g id="line2d_64">
      <g>
       <use xlink:href="#mcfb95c1bc7" x="219.6" y="124.911408" style="stroke: #000000; stroke-width: 0.5"/>
      </g>
     </g>
    </g>
    <g id="ytick_12">
     <g id="line2d_65">
      <g>
       <use xlink:href="#m65161d96a9" x="30.228634" y="106.191999" style="stroke: #000000; stroke-width: 0.5"/>
      </g>
     </g>
     <g id="line2d_66">
      <g>
       <use xlink:href="#mcfb95c1bc7" x="219.6" y="106.191999" style="stroke: #000000; stroke-width: 0.5"/>
      </g>
     </g>
    </g>
    <g id="ytick_13">
     <g id="line2d_67">
      <g>
       <use xlink:href="#m65161d96a9" x="30.228634" y="96.832294" style="stroke: #000000; stroke-width: 0.5"/>
      </g>
     </g>
     <g id="line2d_68">
      <g>
       <use xlink:href="#mcfb95c1bc7" x="219.6" y="96.832294" style="stroke: #000000; stroke-width: 0.5"/>
      </g>
     </g>
    </g>
    <g id="ytick_14">
     <g id="line2d_69">
      <g>
       <use xlink:href="#m65161d96a9" x="30.228634" y="87.47259" style="stroke: #000000; stroke-width: 0.5"/>
      </g>
     </g>
     <g id="line2d_70">
      <g>
       <use xlink:href="#mcfb95c1bc7" x="219.6" y="87.47259" style="stroke: #000000; stroke-width: 0.5"/>
      </g>
     </g>
    </g>
    <g id="ytick_15">
     <g id="line2d_71">
      <g>
       <use xlink:href="#m65161d96a9" x="30.228634" y="68.753181" style="stroke: #000000; stroke-width: 0.5"/>
      </g>
     </g>
     <g id="line2d_72">
      <g>
       <use xlink:href="#mcfb95c1bc7" x="219.6" y="68.753181" style="stroke: #000000; stroke-width: 0.5"/>
      </g>
     </g>
    </g>
    <g id="ytick_16">
     <g id="line2d_73">
      <g>
       <use xlink:href="#m65161d96a9" x="30.228634" y="59.393477" style="stroke: #000000; stroke-width: 0.5"/>
      </g>
     </g>
     <g id="line2d_74">
      <g>
       <use xlink:href="#mcfb95c1bc7" x="219.6" y="59.393477" style="stroke: #000000; stroke-width: 0.5"/>
      </g>
     </g>
    </g>
    <g id="ytick_17">
     <g id="line2d_75">
      <g>
       <use xlink:href="#m65161d96a9" x="30.228634" y="50.033772" style="stroke: #000000; stroke-width: 0.5"/>
      </g>
     </g>
     <g id="line2d_76">
      <g>
       <use xlink:href="#mcfb95c1bc7" x="219.6" y="50.033772" style="stroke: #000000; stroke-width: 0.5"/>
      </g>
     </g>
    </g>
    <g id="ytick_18">
     <g id="line2d_77">
      <g>
       <use xlink:href="#m65161d96a9" x="30.228634" y="31.314363" style="stroke: #000000; stroke-width: 0.5"/>
      </g>
     </g>
     <g id="line2d_78">
      <g>
       <use xlink:href="#mcfb95c1bc7" x="219.6" y="31.314363" style="stroke: #000000; stroke-width: 0.5"/>
      </g>
     </g>
    </g>
    <g id="ytick_19">
     <g id="line2d_79">
      <g>
       <use xlink:href="#m65161d96a9" x="30.228634" y="21.954659" style="stroke: #000000; stroke-width: 0.5"/>
      </g>
     </g>
     <g id="line2d_80">
      <g>
       <use xlink:href="#mcfb95c1bc7" x="219.6" y="21.954659" style="stroke: #000000; stroke-width: 0.5"/>
      </g>
     </g>
    </g>
    <g id="ytick_20">
     <g id="line2d_81">
      <g>
       <use xlink:href="#m65161d96a9" x="30.228634" y="12.594954" style="stroke: #000000; stroke-width: 0.5"/>
      </g>
     </g>
     <g id="line2d_82">
      <g>
       <use xlink:href="#mcfb95c1bc7" x="219.6" y="12.594954" style="stroke: #000000; stroke-width: 0.5"/>
      </g>
     </g>
    </g>
    <g id="text_12">
     <!-- $Energy/NumEdges \times 10^{-2}$ -->
     <g transform="translate(12.520543 167.209614) rotate(-90) scale(0.11 -0.11)">
      <defs>
       <path id="CMMI12-45" d="M 4448 1489 
C 4454 1508 4474 1553 4474 1578 
C 4474 1611 4448 1643 4410 1643 
C 4384 1643 4371 1636 4352 1617 
C 4339 1611 4339 1598 4282 1469 
C 3904 570 3629 185 2605 185 
L 1670 185 
C 1581 185 1568 185 1530 192 
C 1459 198 1453 211 1453 262 
C 1453 307 1466 346 1478 403 
L 1920 2176 
L 2554 2176 
C 3053 2176 3091 2066 3091 1874 
C 3091 1810 3091 1752 3046 1559 
C 3034 1534 3027 1508 3027 1489 
C 3027 1444 3059 1424 3098 1424 
C 3155 1424 3162 1469 3187 1559 
L 3552 3036 
C 3552 3068 3526 3099 3488 3099 
C 3430 3099 3424 3074 3398 2986 
C 3270 2500 3142 2361 2573 2361 
L 1965 2361 
L 2362 3913 
C 2419 4134 2432 4153 2694 4153 
L 3610 4153 
C 4397 4153 4557 3945 4557 3465 
C 4557 3459 4557 3282 4531 3074 
C 4525 3049 4518 3011 4518 2998 
C 4518 2948 4550 2929 4589 2929 
C 4634 2929 4659 2954 4672 3068 
L 4806 4172 
C 4806 4191 4819 4255 4819 4268 
C 4819 4339 4762 4339 4646 4339 
L 1523 4339 
C 1402 4339 1338 4339 1338 4223 
C 1338 4153 1382 4153 1491 4153 
C 1888 4153 1888 4109 1888 4039 
C 1888 4008 1882 3983 1862 3913 
L 998 474 
C 941 249 928 185 480 185 
C 358 185 294 185 294 70 
C 294 0 333 0 461 0 
L 3674 0 
C 3814 0 3821 6 3866 108 
L 4448 1489 
z
" transform="scale(0.015625)"/>
       <path id="CMMI12-6e" d="M 1318 1870 
C 1331 1909 1491 2228 1728 2432 
C 1894 2585 2112 2687 2362 2687 
C 2618 2687 2707 2496 2707 2241 
C 2707 1877 2445 1149 2317 804 
C 2259 651 2227 568 2227 453 
C 2227 166 2426 -64 2733 -64 
C 3328 -64 3552 874 3552 913 
C 3552 945 3526 970 3488 970 
C 3430 970 3424 951 3392 842 
C 3245 319 3002 64 2752 64 
C 2688 64 2586 70 2586 274 
C 2586 434 2656 625 2694 715 
C 2822 1066 3091 1781 3091 2145 
C 3091 2528 2867 2816 2381 2816 
C 1811 2816 1510 2413 1395 2253 
C 1376 2617 1114 2816 832 2816 
C 627 2816 486 2694 378 2477 
C 262 2247 173 1864 173 1838 
C 173 1813 198 1781 243 1781 
C 294 1781 301 1787 339 1934 
C 442 2324 557 2687 813 2687 
C 960 2687 1011 2585 1011 2394 
C 1011 2253 947 2004 902 1807 
L 723 1117 
C 698 996 627 708 595 593 
C 550 427 480 127 480 95 
C 480 6 550 -64 646 -64 
C 723 -64 813 -26 864 70 
C 877 102 934 325 966 453 
L 1107 1028 
L 1318 1870 
z
" transform="scale(0.015625)"/>
       <path id="CMMI12-72" d="M 2490 2633 
C 2291 2598 2189 2457 2189 2316 
C 2189 2163 2310 2111 2400 2111 
C 2579 2111 2726 2265 2726 2457 
C 2726 2651 2528 2816 2208 2816 
C 1952 2816 1658 2700 1389 2335 
C 1344 2660 1088 2816 832 2816 
C 582 2816 454 2642 378 2508 
C 269 2278 173 1892 173 1860 
C 173 1834 198 1801 243 1801 
C 294 1801 301 1808 339 1957 
C 435 2342 557 2687 813 2687 
C 966 2687 1011 2604 1011 2419 
C 1011 2278 947 2028 902 1827 
L 723 1130 
C 698 1007 627 716 595 600 
C 550 432 480 128 480 96 
C 480 6 550 -64 646 -64 
C 717 -64 838 -20 877 109 
C 896 160 1133 1136 1171 1285 
C 1203 1427 1242 1562 1274 1705 
C 1299 1795 1325 1898 1344 1982 
C 1363 2040 1536 2355 1696 2495 
C 1773 2566 1939 2687 2202 2687 
C 2304 2687 2406 2674 2490 2633 
z
" transform="scale(0.015625)"/>
       <path id="CMMI12-67" d="M 2163 811 
C 2138 708 2125 683 2042 587 
C 1779 249 1510 128 1312 128 
C 1101 128 902 293 902 734 
C 902 1072 1094 1787 1235 2075 
C 1421 2432 1709 2687 1978 2687 
C 2400 2687 2483 2164 2483 2126 
L 2464 2036 
L 2163 811 
z
M 2560 2394 
C 2477 2579 2298 2816 1978 2816 
C 1280 2816 486 1941 486 989 
C 486 325 890 0 1299 0 
C 1638 0 1939 268 2054 396 
L 1914 -176 
C 1824 -520 1786 -677 1555 -896 
C 1293 -1152 1050 -1152 909 -1152 
C 717 -1152 557 -1140 397 -1090 
C 602 -1034 653 -858 653 -789 
C 653 -689 576 -589 435 -589 
C 282 -589 115 -714 115 -921 
C 115 -1178 378 -1280 922 -1280 
C 1747 -1280 2176 -758 2259 -420 
L 2970 2426 
C 2989 2502 2989 2515 2989 2528 
C 2989 2617 2918 2688 2822 2688 
C 2669 2688 2579 2560 2560 2388 
L 2560 2394 
z
" transform="scale(0.015625)"/>
       <path id="CMMI12-79" d="M 1683 -673 
C 1510 -921 1261 -1152 947 -1152 
C 870 -1152 563 -1139 467 -826 
C 486 -833 518 -833 531 -833 
C 723 -833 851 -666 851 -519 
C 851 -372 730 -320 634 -320 
C 531 -320 307 -397 307 -711 
C 307 -1050 582 -1280 947 -1280 
C 1587 -1280 2234 -673 2413 -7 
L 3040 2483 
C 3046 2515 3059 2553 3059 2591 
C 3059 2687 2982 2752 2886 2752 
C 2829 2752 2694 2726 2643 2534 
L 2170 657 
C 2138 542 2138 530 2086 459 
C 1958 281 1747 64 1440 64 
C 1082 64 1050 415 1050 587 
C 1050 951 1222 1443 1395 1902 
C 1466 2087 1504 2177 1504 2305 
C 1504 2573 1312 2816 998 2816 
C 410 2816 173 1890 173 1838 
C 173 1813 198 1781 243 1781 
C 301 1781 307 1807 333 1896 
C 486 2432 730 2687 979 2687 
C 1037 2687 1146 2687 1146 2477 
C 1146 2311 1075 2126 979 1883 
C 666 1047 666 836 666 683 
C 666 76 1101 -64 1421 -64 
C 1606 -64 1837 -7 2061 230 
L 2067 223 
C 1971 -141 1907 -359 1683 -673 
z
" transform="scale(0.015625)"/>
       <path id="CMMI12-3d" d="M 2746 4563 
C 2746 4569 2784 4665 2784 4678 
C 2784 4755 2720 4800 2669 4800 
C 2637 4800 2579 4800 2528 4659 
L 384 -1364 
C 384 -1370 346 -1466 346 -1479 
C 346 -1556 410 -1600 461 -1600 
C 499 -1600 557 -1594 602 -1460 
L 2746 4563 
z
" transform="scale(0.015625)"/>
       <path id="CMMI12-4e" d="M 4736 3682 
C 4806 3956 4909 4147 5395 4166 
C 5414 4166 5491 4172 5491 4281 
C 5491 4352 5434 4352 5408 4352 
C 5280 4352 4954 4339 4826 4339 
L 4518 4339 
C 4429 4339 4314 4352 4224 4352 
C 4186 4352 4109 4352 4109 4230 
C 4109 4166 4160 4166 4205 4166 
C 4589 4153 4614 4007 4614 3892 
C 4614 3835 4608 3816 4589 3726 
L 3866 854 
L 2496 4243 
C 2451 4345 2445 4352 2304 4352 
L 1523 4352 
C 1395 4352 1338 4352 1338 4230 
C 1338 4166 1382 4166 1504 4166 
C 1536 4166 1914 4166 1914 4109 
C 1914 4096 1901 4045 1894 4026 
L 1043 650 
C 966 338 813 204 390 185 
C 358 185 294 179 294 64 
C 294 0 358 0 378 0 
C 506 0 832 12 960 12 
L 1267 12 
C 1357 12 1466 0 1555 0 
C 1600 0 1670 0 1670 121 
C 1670 179 1606 185 1581 185 
C 1370 191 1165 230 1165 459 
C 1165 510 1178 567 1190 618 
L 2054 4026 
C 2093 3962 2093 3949 2118 3892 
L 3642 115 
C 3674 38 3686 0 3744 0 
C 3808 0 3814 19 3840 128 
L 4736 3682 
z
" transform="scale(0.015625)"/>
       <path id="CMMI12-75" d="M 2182 370 
C 2266 12 2573 -64 2726 -64 
C 2931 -64 3085 70 3187 287 
C 3296 517 3379 893 3379 913 
C 3379 944 3354 970 3315 970 
C 3258 970 3251 938 3226 842 
C 3110 402 2995 64 2739 64 
C 2547 64 2547 274 2547 357 
C 2547 504 2566 568 2630 836 
C 2675 1008 2720 1181 2758 1359 
L 3021 2400 
C 3066 2560 3066 2572 3066 2591 
C 3066 2687 2989 2752 2893 2752 
C 2707 2752 2662 2591 2624 2432 
C 2560 2183 2214 810 2170 587 
C 2163 587 1914 64 1446 64 
C 1114 64 1050 351 1050 587 
C 1050 951 1229 1462 1395 1890 
C 1472 2094 1504 2177 1504 2305 
C 1504 2579 1306 2816 998 2816 
C 410 2816 173 1890 173 1838 
C 173 1813 198 1781 243 1781 
C 301 1781 307 1807 333 1896 
C 486 2445 736 2687 979 2687 
C 1043 2687 1146 2681 1146 2477 
C 1146 2311 1075 2126 979 1883 
C 698 1123 666 881 666 689 
C 666 38 1158 -64 1421 -64 
C 1830 -64 2054 217 2182 370 
z
" transform="scale(0.015625)"/>
       <path id="CMMI12-6d" d="M 1318 1870 
C 1331 1909 1491 2228 1728 2432 
C 1894 2585 2112 2687 2362 2687 
C 2618 2687 2707 2496 2707 2241 
C 2707 2202 2707 2075 2630 1775 
L 2470 1117 
C 2419 925 2298 453 2285 383 
C 2259 287 2221 121 2221 95 
C 2221 6 2291 -64 2387 -64 
C 2579 -64 2611 83 2669 313 
L 3053 1838 
C 3066 1890 3398 2687 4102 2687 
C 4358 2687 4448 2496 4448 2241 
C 4448 1883 4198 1187 4058 804 
C 4000 651 3968 568 3968 453 
C 3968 166 4166 -64 4474 -64 
C 5069 -64 5293 874 5293 913 
C 5293 945 5267 970 5229 970 
C 5171 970 5165 951 5133 842 
C 4986 332 4749 64 4493 64 
C 4429 64 4326 70 4326 274 
C 4326 440 4403 645 4429 715 
C 4544 1021 4832 1775 4832 2145 
C 4832 2528 4608 2816 4122 2816 
C 3693 2816 3347 2573 3091 2196 
C 3072 2541 2861 2816 2381 2816 
C 1811 2816 1510 2413 1395 2253 
C 1376 2617 1114 2816 832 2816 
C 646 2816 499 2726 378 2483 
C 262 2253 173 1864 173 1838 
C 173 1813 198 1781 243 1781 
C 294 1781 301 1787 339 1934 
C 435 2311 557 2687 813 2687 
C 960 2687 1011 2585 1011 2394 
C 1011 2253 947 2004 902 1807 
L 723 1117 
C 698 996 627 708 595 593 
C 550 427 480 127 480 95 
C 480 6 550 -64 646 -64 
C 723 -64 813 -26 864 70 
C 877 102 934 325 966 453 
L 1107 1028 
L 1318 1870 
z
" transform="scale(0.015625)"/>
       <path id="CMMI12-64" d="M 3219 4255 
C 3226 4281 3238 4319 3238 4351 
C 3238 4416 3174 4416 3162 4416 
C 3155 4416 2842 4390 2810 4383 
C 2701 4377 2605 4364 2490 4358 
C 2330 4345 2285 4339 2285 4223 
C 2285 4159 2336 4159 2426 4159 
C 2739 4159 2746 4103 2746 4040 
C 2746 4002 2733 3951 2726 3932 
L 2336 2394 
C 2266 2560 2093 2816 1760 2816 
C 1037 2816 256 1883 256 938 
C 256 306 627 -64 1062 -64 
C 1414 -64 1715 210 1894 421 
C 1958 44 2259 -64 2451 -64 
C 2643 -64 2797 51 2912 281 
C 3014 498 3104 887 3104 913 
C 3104 945 3078 970 3040 970 
C 2982 970 2976 938 2950 842 
C 2854 466 2733 64 2470 64 
C 2285 64 2272 230 2272 357 
C 2272 383 2272 517 2317 696 
L 3219 4255 
z
M 1926 759 
C 1894 651 1894 638 1805 517 
C 1664 338 1382 64 1082 64 
C 819 64 672 300 672 676 
C 672 1028 870 1743 992 2011 
C 1210 2458 1510 2687 1760 2687 
C 2182 2687 2266 2164 2266 2113 
C 2266 2107 2246 2024 2240 2011 
L 1926 759 
z
" transform="scale(0.015625)"/>
       <path id="CMSY10-2" d="M 2490 1775 
L 1210 3046 
C 1133 3123 1120 3136 1069 3136 
C 1005 3136 941 3078 941 3008 
C 941 2963 954 2950 1024 2880 
L 2304 1596 
L 1024 313 
C 954 243 941 230 941 185 
C 941 115 1005 57 1069 57 
C 1120 57 1133 70 1210 147 
L 2483 1418 
L 3808 95 
C 3821 89 3866 57 3904 57 
C 3981 57 4032 115 4032 185 
C 4032 198 4032 223 4013 255 
C 4006 268 2989 1271 2669 1596 
L 3840 2765 
C 3872 2803 3968 2886 4000 2925 
C 4006 2937 4032 2963 4032 3008 
C 4032 3078 3981 3136 3904 3136 
C 3853 3136 3827 3110 3757 3040 
L 2490 1775 
z
" transform="scale(0.015625)"/>
       <path id="CMSY10-0" d="M 4218 1472 
C 4326 1472 4442 1472 4442 1600 
C 4442 1728 4326 1728 4218 1728 
L 755 1728 
C 646 1728 531 1728 531 1600 
C 531 1472 646 1472 755 1472 
L 4218 1472 
z
" transform="scale(0.015625)"/>
      </defs>
      <use xlink:href="#CMMI12-45" transform="scale(0.996264)"/>
      <use xlink:href="#CMMI12-6e" transform="translate(78.051636 0) scale(0.996264)"/>
      <use xlink:href="#CMMI12-65" transform="translate(136.281684 0) scale(0.996264)"/>
      <use xlink:href="#CMMI12-72" transform="translate(181.493685 0) scale(0.996264)"/>
      <use xlink:href="#CMMI12-67" transform="translate(228.164297 0) scale(0.996264)"/>
      <use xlink:href="#CMMI12-79" transform="translate(278.449786 0) scale(0.996264)"/>
      <use xlink:href="#CMMI12-3d" transform="translate(329.588567 0) scale(0.996264)"/>
      <use xlink:href="#CMMI12-4e" transform="translate(372.94405 0) scale(0.996264)"/>
      <use xlink:href="#CMMI12-75" transform="translate(461.465823 0) scale(0.996264)"/>
      <use xlink:href="#CMMI12-6d" transform="translate(516.986152 0) scale(0.996264)"/>
      <use xlink:href="#CMMI12-45" transform="translate(602.313377 0) scale(0.996264)"/>
      <use xlink:href="#CMMI12-64" transform="translate(680.365013 0) scale(0.996264)"/>
      <use xlink:href="#CMMI12-67" transform="translate(731.05411 0) scale(0.996264)"/>
      <use xlink:href="#CMMI12-65" transform="translate(781.339599 0) scale(0.996264)"/>
      <use xlink:href="#CMMI12-73" transform="translate(826.5516 0) scale(0.996264)"/>
      <use xlink:href="#CMSY10-2" transform="translate(894.640855 0) scale(0.996264)"/>
      <use xlink:href="#CMR17-31" transform="translate(994.267529 0) scale(0.996264)"/>
      <use xlink:href="#CMR17-30" transform="translate(1039.958007 0) scale(0.996264)"/>
      <use xlink:href="#CMSY10-0" transform="translate(1085.648484 36.153639) scale(0.697382)"/>
      <use xlink:href="#CMR17-32" transform="translate(1139.889477 36.153639) scale(0.697382)"/>
     </g>
    </g>
   </g>
   <g id="line2d_83">
    <path d="M 38.836424 12.398172 
L 39.701528 188.361144 
L 210.992211 188.361242 
L 210.992211 188.361242 
" clip-path="url(#p31c41282c2)" style="fill: none; stroke: #0c5da5; stroke-linecap: square"/>
    <defs>
     <path id="mcc36e22d83" d="M 0 3 
C 0.795609 3 1.55874 2.683901 2.12132 2.12132 
C 2.683901 1.55874 3 0.795609 3 0 
C 3 -0.795609 2.683901 -1.55874 2.12132 -2.12132 
C 1.55874 -2.683901 0.795609 -3 0 -3 
C -0.795609 -3 -1.55874 -2.683901 -2.12132 -2.12132 
C -2.683901 -1.55874 -3 -0.795609 -3 0 
C -3 0.795609 -2.683901 1.55874 -2.12132 2.12132 
C -1.55874 2.683901 -0.795609 3 0 3 
z
" style="stroke: #0c5da5"/>
    </defs>
    <g clip-path="url(#p31c41282c2)">
     <use xlink:href="#mcc36e22d83" x="38.836424" y="12.398172" style="fill: #0c5da5; stroke: #0c5da5"/>
     <use xlink:href="#mcc36e22d83" x="39.701528" y="188.361144" style="fill: #0c5da5; stroke: #0c5da5"/>
     <use xlink:href="#mcc36e22d83" x="40.566633" y="188.360998" style="fill: #0c5da5; stroke: #0c5da5"/>
     <use xlink:href="#mcc36e22d83" x="41.431737" y="188.360912" style="fill: #0c5da5; stroke: #0c5da5"/>
     <use xlink:href="#mcc36e22d83" x="42.296842" y="188.361133" style="fill: #0c5da5; stroke: #0c5da5"/>
     <use xlink:href="#mcc36e22d83" x="43.161946" y="188.361155" style="fill: #0c5da5; stroke: #0c5da5"/>
     <use xlink:href="#mcc36e22d83" x="44.027051" y="188.360614" style="fill: #0c5da5; stroke: #0c5da5"/>
     <use xlink:href="#mcc36e22d83" x="44.892155" y="188.360818" style="fill: #0c5da5; stroke: #0c5da5"/>
     <use xlink:href="#mcc36e22d83" x="45.757259" y="188.361124" style="fill: #0c5da5; stroke: #0c5da5"/>
     <use xlink:href="#mcc36e22d83" x="46.622364" y="188.361418" style="fill: #0c5da5; stroke: #0c5da5"/>
     <use xlink:href="#mcc36e22d83" x="47.487468" y="188.360991" style="fill: #0c5da5; stroke: #0c5da5"/>
     <use xlink:href="#mcc36e22d83" x="48.352573" y="188.360989" style="fill: #0c5da5; stroke: #0c5da5"/>
     <use xlink:href="#mcc36e22d83" x="49.217677" y="188.361025" style="fill: #0c5da5; stroke: #0c5da5"/>
     <use xlink:href="#mcc36e22d83" x="50.082782" y="188.360708" style="fill: #0c5da5; stroke: #0c5da5"/>
     <use xlink:href="#mcc36e22d83" x="50.947886" y="188.360589" style="fill: #0c5da5; stroke: #0c5da5"/>
     <use xlink:href="#mcc36e22d83" x="51.812991" y="188.361223" style="fill: #0c5da5; stroke: #0c5da5"/>
     <use xlink:href="#mcc36e22d83" x="52.678095" y="188.360792" style="fill: #0c5da5; stroke: #0c5da5"/>
     <use xlink:href="#mcc36e22d83" x="53.5432" y="188.361264" style="fill: #0c5da5; stroke: #0c5da5"/>
     <use xlink:href="#mcc36e22d83" x="54.408304" y="188.360963" style="fill: #0c5da5; stroke: #0c5da5"/>
     <use xlink:href="#mcc36e22d83" x="55.273408" y="188.361252" style="fill: #0c5da5; stroke: #0c5da5"/>
     <use xlink:href="#mcc36e22d83" x="56.138513" y="188.360669" style="fill: #0c5da5; stroke: #0c5da5"/>
     <use xlink:href="#mcc36e22d83" x="57.003617" y="188.361273" style="fill: #0c5da5; stroke: #0c5da5"/>
     <use xlink:href="#mcc36e22d83" x="57.868722" y="188.361008" style="fill: #0c5da5; stroke: #0c5da5"/>
     <use xlink:href="#mcc36e22d83" x="58.733826" y="188.360831" style="fill: #0c5da5; stroke: #0c5da5"/>
     <use xlink:href="#mcc36e22d83" x="59.598931" y="188.361064" style="fill: #0c5da5; stroke: #0c5da5"/>
     <use xlink:href="#mcc36e22d83" x="60.464035" y="188.361301" style="fill: #0c5da5; stroke: #0c5da5"/>
     <use xlink:href="#mcc36e22d83" x="61.32914" y="188.360965" style="fill: #0c5da5; stroke: #0c5da5"/>
     <use xlink:href="#mcc36e22d83" x="62.194244" y="188.360816" style="fill: #0c5da5; stroke: #0c5da5"/>
     <use xlink:href="#mcc36e22d83" x="63.059349" y="188.361284" style="fill: #0c5da5; stroke: #0c5da5"/>
     <use xlink:href="#mcc36e22d83" x="63.924453" y="188.360961" style="fill: #0c5da5; stroke: #0c5da5"/>
     <use xlink:href="#mcc36e22d83" x="64.789557" y="188.360729" style="fill: #0c5da5; stroke: #0c5da5"/>
     <use xlink:href="#mcc36e22d83" x="65.654662" y="188.361237" style="fill: #0c5da5; stroke: #0c5da5"/>
     <use xlink:href="#mcc36e22d83" x="66.519766" y="188.360847" style="fill: #0c5da5; stroke: #0c5da5"/>
     <use xlink:href="#mcc36e22d83" x="67.384871" y="188.36145" style="fill: #0c5da5; stroke: #0c5da5"/>
     <use xlink:href="#mcc36e22d83" x="68.249975" y="188.361178" style="fill: #0c5da5; stroke: #0c5da5"/>
     <use xlink:href="#mcc36e22d83" x="69.11508" y="188.360642" style="fill: #0c5da5; stroke: #0c5da5"/>
     <use xlink:href="#mcc36e22d83" x="69.980184" y="188.360965" style="fill: #0c5da5; stroke: #0c5da5"/>
     <use xlink:href="#mcc36e22d83" x="70.845289" y="188.361078" style="fill: #0c5da5; stroke: #0c5da5"/>
     <use xlink:href="#mcc36e22d83" x="71.710393" y="188.36085" style="fill: #0c5da5; stroke: #0c5da5"/>
     <use xlink:href="#mcc36e22d83" x="72.575498" y="188.360965" style="fill: #0c5da5; stroke: #0c5da5"/>
     <use xlink:href="#mcc36e22d83" x="73.440602" y="188.360937" style="fill: #0c5da5; stroke: #0c5da5"/>
     <use xlink:href="#mcc36e22d83" x="74.305707" y="188.360994" style="fill: #0c5da5; stroke: #0c5da5"/>
     <use xlink:href="#mcc36e22d83" x="75.170811" y="188.361398" style="fill: #0c5da5; stroke: #0c5da5"/>
     <use xlink:href="#mcc36e22d83" x="76.035915" y="188.361047" style="fill: #0c5da5; stroke: #0c5da5"/>
     <use xlink:href="#mcc36e22d83" x="76.90102" y="188.360318" style="fill: #0c5da5; stroke: #0c5da5"/>
     <use xlink:href="#mcc36e22d83" x="77.766124" y="188.360875" style="fill: #0c5da5; stroke: #0c5da5"/>
     <use xlink:href="#mcc36e22d83" x="78.631229" y="188.360169" style="fill: #0c5da5; stroke: #0c5da5"/>
     <use xlink:href="#mcc36e22d83" x="79.496333" y="188.360848" style="fill: #0c5da5; stroke: #0c5da5"/>
     <use xlink:href="#mcc36e22d83" x="80.361438" y="188.360885" style="fill: #0c5da5; stroke: #0c5da5"/>
     <use xlink:href="#mcc36e22d83" x="81.226542" y="188.360807" style="fill: #0c5da5; stroke: #0c5da5"/>
     <use xlink:href="#mcc36e22d83" x="82.091647" y="188.361105" style="fill: #0c5da5; stroke: #0c5da5"/>
     <use xlink:href="#mcc36e22d83" x="82.956751" y="188.36102" style="fill: #0c5da5; stroke: #0c5da5"/>
     <use xlink:href="#mcc36e22d83" x="83.821856" y="188.361105" style="fill: #0c5da5; stroke: #0c5da5"/>
     <use xlink:href="#mcc36e22d83" x="84.68696" y="188.361163" style="fill: #0c5da5; stroke: #0c5da5"/>
     <use xlink:href="#mcc36e22d83" x="85.552064" y="188.361051" style="fill: #0c5da5; stroke: #0c5da5"/>
     <use xlink:href="#mcc36e22d83" x="86.417169" y="188.360983" style="fill: #0c5da5; stroke: #0c5da5"/>
     <use xlink:href="#mcc36e22d83" x="87.282273" y="188.360594" style="fill: #0c5da5; stroke: #0c5da5"/>
     <use xlink:href="#mcc36e22d83" x="88.147378" y="188.361115" style="fill: #0c5da5; stroke: #0c5da5"/>
     <use xlink:href="#mcc36e22d83" x="89.012482" y="188.36067" style="fill: #0c5da5; stroke: #0c5da5"/>
     <use xlink:href="#mcc36e22d83" x="89.877587" y="188.361026" style="fill: #0c5da5; stroke: #0c5da5"/>
     <use xlink:href="#mcc36e22d83" x="90.742691" y="188.360903" style="fill: #0c5da5; stroke: #0c5da5"/>
     <use xlink:href="#mcc36e22d83" x="91.607796" y="188.361094" style="fill: #0c5da5; stroke: #0c5da5"/>
     <use xlink:href="#mcc36e22d83" x="92.4729" y="188.361166" style="fill: #0c5da5; stroke: #0c5da5"/>
     <use xlink:href="#mcc36e22d83" x="93.338005" y="188.36126" style="fill: #0c5da5; stroke: #0c5da5"/>
     <use xlink:href="#mcc36e22d83" x="94.203109" y="188.361149" style="fill: #0c5da5; stroke: #0c5da5"/>
     <use xlink:href="#mcc36e22d83" x="95.068213" y="188.361081" style="fill: #0c5da5; stroke: #0c5da5"/>
     <use xlink:href="#mcc36e22d83" x="95.933318" y="188.361064" style="fill: #0c5da5; stroke: #0c5da5"/>
     <use xlink:href="#mcc36e22d83" x="96.798422" y="188.361005" style="fill: #0c5da5; stroke: #0c5da5"/>
     <use xlink:href="#mcc36e22d83" x="97.663527" y="188.361059" style="fill: #0c5da5; stroke: #0c5da5"/>
     <use xlink:href="#mcc36e22d83" x="98.528631" y="188.361437" style="fill: #0c5da5; stroke: #0c5da5"/>
     <use xlink:href="#mcc36e22d83" x="99.393736" y="188.361195" style="fill: #0c5da5; stroke: #0c5da5"/>
     <use xlink:href="#mcc36e22d83" x="100.25884" y="188.360705" style="fill: #0c5da5; stroke: #0c5da5"/>
     <use xlink:href="#mcc36e22d83" x="101.123945" y="188.360986" style="fill: #0c5da5; stroke: #0c5da5"/>
     <use xlink:href="#mcc36e22d83" x="101.989049" y="188.361232" style="fill: #0c5da5; stroke: #0c5da5"/>
     <use xlink:href="#mcc36e22d83" x="102.854154" y="188.361288" style="fill: #0c5da5; stroke: #0c5da5"/>
     <use xlink:href="#mcc36e22d83" x="103.719258" y="188.360652" style="fill: #0c5da5; stroke: #0c5da5"/>
     <use xlink:href="#mcc36e22d83" x="104.584362" y="188.36072" style="fill: #0c5da5; stroke: #0c5da5"/>
     <use xlink:href="#mcc36e22d83" x="105.449467" y="188.361137" style="fill: #0c5da5; stroke: #0c5da5"/>
     <use xlink:href="#mcc36e22d83" x="106.314571" y="188.361152" style="fill: #0c5da5; stroke: #0c5da5"/>
     <use xlink:href="#mcc36e22d83" x="107.179676" y="188.360852" style="fill: #0c5da5; stroke: #0c5da5"/>
     <use xlink:href="#mcc36e22d83" x="108.04478" y="188.361442" style="fill: #0c5da5; stroke: #0c5da5"/>
     <use xlink:href="#mcc36e22d83" x="108.909885" y="188.361096" style="fill: #0c5da5; stroke: #0c5da5"/>
     <use xlink:href="#mcc36e22d83" x="109.774989" y="188.360899" style="fill: #0c5da5; stroke: #0c5da5"/>
     <use xlink:href="#mcc36e22d83" x="110.640094" y="188.360854" style="fill: #0c5da5; stroke: #0c5da5"/>
     <use xlink:href="#mcc36e22d83" x="111.505198" y="188.361131" style="fill: #0c5da5; stroke: #0c5da5"/>
     <use xlink:href="#mcc36e22d83" x="112.370303" y="188.360693" style="fill: #0c5da5; stroke: #0c5da5"/>
     <use xlink:href="#mcc36e22d83" x="113.235407" y="188.360984" style="fill: #0c5da5; stroke: #0c5da5"/>
     <use xlink:href="#mcc36e22d83" x="114.100512" y="188.360548" style="fill: #0c5da5; stroke: #0c5da5"/>
     <use xlink:href="#mcc36e22d83" x="114.965616" y="188.361276" style="fill: #0c5da5; stroke: #0c5da5"/>
     <use xlink:href="#mcc36e22d83" x="115.83072" y="188.361115" style="fill: #0c5da5; stroke: #0c5da5"/>
     <use xlink:href="#mcc36e22d83" x="116.695825" y="188.361604" style="fill: #0c5da5; stroke: #0c5da5"/>
     <use xlink:href="#mcc36e22d83" x="117.560929" y="188.360806" style="fill: #0c5da5; stroke: #0c5da5"/>
     <use xlink:href="#mcc36e22d83" x="118.426034" y="188.361264" style="fill: #0c5da5; stroke: #0c5da5"/>
     <use xlink:href="#mcc36e22d83" x="119.291138" y="188.361101" style="fill: #0c5da5; stroke: #0c5da5"/>
     <use xlink:href="#mcc36e22d83" x="120.156243" y="188.361214" style="fill: #0c5da5; stroke: #0c5da5"/>
     <use xlink:href="#mcc36e22d83" x="121.021347" y="188.360818" style="fill: #0c5da5; stroke: #0c5da5"/>
     <use xlink:href="#mcc36e22d83" x="121.886452" y="188.360651" style="fill: #0c5da5; stroke: #0c5da5"/>
     <use xlink:href="#mcc36e22d83" x="122.751556" y="188.361153" style="fill: #0c5da5; stroke: #0c5da5"/>
     <use xlink:href="#mcc36e22d83" x="123.616661" y="188.360854" style="fill: #0c5da5; stroke: #0c5da5"/>
     <use xlink:href="#mcc36e22d83" x="124.481765" y="188.360623" style="fill: #0c5da5; stroke: #0c5da5"/>
     <use xlink:href="#mcc36e22d83" x="125.346869" y="188.361162" style="fill: #0c5da5; stroke: #0c5da5"/>
     <use xlink:href="#mcc36e22d83" x="126.211974" y="188.361187" style="fill: #0c5da5; stroke: #0c5da5"/>
     <use xlink:href="#mcc36e22d83" x="127.077078" y="188.361145" style="fill: #0c5da5; stroke: #0c5da5"/>
     <use xlink:href="#mcc36e22d83" x="127.942183" y="188.361293" style="fill: #0c5da5; stroke: #0c5da5"/>
     <use xlink:href="#mcc36e22d83" x="128.807287" y="188.361065" style="fill: #0c5da5; stroke: #0c5da5"/>
     <use xlink:href="#mcc36e22d83" x="129.672392" y="188.360737" style="fill: #0c5da5; stroke: #0c5da5"/>
     <use xlink:href="#mcc36e22d83" x="130.537496" y="188.360869" style="fill: #0c5da5; stroke: #0c5da5"/>
     <use xlink:href="#mcc36e22d83" x="131.402601" y="188.361011" style="fill: #0c5da5; stroke: #0c5da5"/>
     <use xlink:href="#mcc36e22d83" x="132.267705" y="188.361275" style="fill: #0c5da5; stroke: #0c5da5"/>
     <use xlink:href="#mcc36e22d83" x="133.13281" y="188.360789" style="fill: #0c5da5; stroke: #0c5da5"/>
     <use xlink:href="#mcc36e22d83" x="133.997914" y="188.361196" style="fill: #0c5da5; stroke: #0c5da5"/>
     <use xlink:href="#mcc36e22d83" x="134.863018" y="188.361207" style="fill: #0c5da5; stroke: #0c5da5"/>
     <use xlink:href="#mcc36e22d83" x="135.728123" y="188.360839" style="fill: #0c5da5; stroke: #0c5da5"/>
     <use xlink:href="#mcc36e22d83" x="136.593227" y="188.360986" style="fill: #0c5da5; stroke: #0c5da5"/>
     <use xlink:href="#mcc36e22d83" x="137.458332" y="188.361202" style="fill: #0c5da5; stroke: #0c5da5"/>
     <use xlink:href="#mcc36e22d83" x="138.323436" y="188.361089" style="fill: #0c5da5; stroke: #0c5da5"/>
     <use xlink:href="#mcc36e22d83" x="139.188541" y="188.360827" style="fill: #0c5da5; stroke: #0c5da5"/>
     <use xlink:href="#mcc36e22d83" x="140.053645" y="188.361318" style="fill: #0c5da5; stroke: #0c5da5"/>
     <use xlink:href="#mcc36e22d83" x="140.91875" y="188.361087" style="fill: #0c5da5; stroke: #0c5da5"/>
     <use xlink:href="#mcc36e22d83" x="141.783854" y="188.361137" style="fill: #0c5da5; stroke: #0c5da5"/>
     <use xlink:href="#mcc36e22d83" x="142.648959" y="188.360673" style="fill: #0c5da5; stroke: #0c5da5"/>
     <use xlink:href="#mcc36e22d83" x="143.514063" y="188.360786" style="fill: #0c5da5; stroke: #0c5da5"/>
     <use xlink:href="#mcc36e22d83" x="144.379167" y="188.360923" style="fill: #0c5da5; stroke: #0c5da5"/>
     <use xlink:href="#mcc36e22d83" x="145.244272" y="188.360957" style="fill: #0c5da5; stroke: #0c5da5"/>
     <use xlink:href="#mcc36e22d83" x="146.109376" y="188.361101" style="fill: #0c5da5; stroke: #0c5da5"/>
     <use xlink:href="#mcc36e22d83" x="146.974481" y="188.361042" style="fill: #0c5da5; stroke: #0c5da5"/>
     <use xlink:href="#mcc36e22d83" x="147.839585" y="188.36088" style="fill: #0c5da5; stroke: #0c5da5"/>
     <use xlink:href="#mcc36e22d83" x="148.70469" y="188.360464" style="fill: #0c5da5; stroke: #0c5da5"/>
     <use xlink:href="#mcc36e22d83" x="149.569794" y="188.360946" style="fill: #0c5da5; stroke: #0c5da5"/>
     <use xlink:href="#mcc36e22d83" x="150.434899" y="188.36095" style="fill: #0c5da5; stroke: #0c5da5"/>
     <use xlink:href="#mcc36e22d83" x="151.300003" y="188.361096" style="fill: #0c5da5; stroke: #0c5da5"/>
     <use xlink:href="#mcc36e22d83" x="152.165108" y="188.360719" style="fill: #0c5da5; stroke: #0c5da5"/>
     <use xlink:href="#mcc36e22d83" x="153.030212" y="188.361043" style="fill: #0c5da5; stroke: #0c5da5"/>
     <use xlink:href="#mcc36e22d83" x="153.895317" y="188.361271" style="fill: #0c5da5; stroke: #0c5da5"/>
     <use xlink:href="#mcc36e22d83" x="154.760421" y="188.360727" style="fill: #0c5da5; stroke: #0c5da5"/>
     <use xlink:href="#mcc36e22d83" x="155.625525" y="188.361208" style="fill: #0c5da5; stroke: #0c5da5"/>
     <use xlink:href="#mcc36e22d83" x="156.49063" y="188.361291" style="fill: #0c5da5; stroke: #0c5da5"/>
     <use xlink:href="#mcc36e22d83" x="157.355734" y="188.360752" style="fill: #0c5da5; stroke: #0c5da5"/>
     <use xlink:href="#mcc36e22d83" x="158.220839" y="188.360878" style="fill: #0c5da5; stroke: #0c5da5"/>
     <use xlink:href="#mcc36e22d83" x="159.085943" y="188.361112" style="fill: #0c5da5; stroke: #0c5da5"/>
     <use xlink:href="#mcc36e22d83" x="159.951048" y="188.361137" style="fill: #0c5da5; stroke: #0c5da5"/>
     <use xlink:href="#mcc36e22d83" x="160.816152" y="188.361132" style="fill: #0c5da5; stroke: #0c5da5"/>
     <use xlink:href="#mcc36e22d83" x="161.681257" y="188.361064" style="fill: #0c5da5; stroke: #0c5da5"/>
     <use xlink:href="#mcc36e22d83" x="162.546361" y="188.360835" style="fill: #0c5da5; stroke: #0c5da5"/>
     <use xlink:href="#mcc36e22d83" x="163.411466" y="188.361078" style="fill: #0c5da5; stroke: #0c5da5"/>
     <use xlink:href="#mcc36e22d83" x="164.27657" y="188.361287" style="fill: #0c5da5; stroke: #0c5da5"/>
     <use xlink:href="#mcc36e22d83" x="165.141674" y="188.36135" style="fill: #0c5da5; stroke: #0c5da5"/>
     <use xlink:href="#mcc36e22d83" x="166.006779" y="188.361429" style="fill: #0c5da5; stroke: #0c5da5"/>
     <use xlink:href="#mcc36e22d83" x="166.871883" y="188.360992" style="fill: #0c5da5; stroke: #0c5da5"/>
     <use xlink:href="#mcc36e22d83" x="167.736988" y="188.360963" style="fill: #0c5da5; stroke: #0c5da5"/>
     <use xlink:href="#mcc36e22d83" x="168.602092" y="188.36128" style="fill: #0c5da5; stroke: #0c5da5"/>
     <use xlink:href="#mcc36e22d83" x="169.467197" y="188.361199" style="fill: #0c5da5; stroke: #0c5da5"/>
     <use xlink:href="#mcc36e22d83" x="170.332301" y="188.360975" style="fill: #0c5da5; stroke: #0c5da5"/>
     <use xlink:href="#mcc36e22d83" x="171.197406" y="188.360815" style="fill: #0c5da5; stroke: #0c5da5"/>
     <use xlink:href="#mcc36e22d83" x="172.06251" y="188.361247" style="fill: #0c5da5; stroke: #0c5da5"/>
     <use xlink:href="#mcc36e22d83" x="172.927615" y="188.361156" style="fill: #0c5da5; stroke: #0c5da5"/>
     <use xlink:href="#mcc36e22d83" x="173.792719" y="188.360812" style="fill: #0c5da5; stroke: #0c5da5"/>
     <use xlink:href="#mcc36e22d83" x="174.657823" y="188.361244" style="fill: #0c5da5; stroke: #0c5da5"/>
     <use xlink:href="#mcc36e22d83" x="175.522928" y="188.360908" style="fill: #0c5da5; stroke: #0c5da5"/>
     <use xlink:href="#mcc36e22d83" x="176.388032" y="188.361354" style="fill: #0c5da5; stroke: #0c5da5"/>
     <use xlink:href="#mcc36e22d83" x="177.253137" y="188.360982" style="fill: #0c5da5; stroke: #0c5da5"/>
     <use xlink:href="#mcc36e22d83" x="178.118241" y="188.36091" style="fill: #0c5da5; stroke: #0c5da5"/>
     <use xlink:href="#mcc36e22d83" x="178.983346" y="188.360739" style="fill: #0c5da5; stroke: #0c5da5"/>
     <use xlink:href="#mcc36e22d83" x="179.84845" y="188.360959" style="fill: #0c5da5; stroke: #0c5da5"/>
     <use xlink:href="#mcc36e22d83" x="180.713555" y="188.361119" style="fill: #0c5da5; stroke: #0c5da5"/>
     <use xlink:href="#mcc36e22d83" x="181.578659" y="188.36097" style="fill: #0c5da5; stroke: #0c5da5"/>
     <use xlink:href="#mcc36e22d83" x="182.443764" y="188.361397" style="fill: #0c5da5; stroke: #0c5da5"/>
     <use xlink:href="#mcc36e22d83" x="183.308868" y="188.361287" style="fill: #0c5da5; stroke: #0c5da5"/>
     <use xlink:href="#mcc36e22d83" x="184.173973" y="188.361023" style="fill: #0c5da5; stroke: #0c5da5"/>
     <use xlink:href="#mcc36e22d83" x="185.039077" y="188.36132" style="fill: #0c5da5; stroke: #0c5da5"/>
     <use xlink:href="#mcc36e22d83" x="185.904181" y="188.361265" style="fill: #0c5da5; stroke: #0c5da5"/>
     <use xlink:href="#mcc36e22d83" x="186.769286" y="188.360996" style="fill: #0c5da5; stroke: #0c5da5"/>
     <use xlink:href="#mcc36e22d83" x="187.63439" y="188.360749" style="fill: #0c5da5; stroke: #0c5da5"/>
     <use xlink:href="#mcc36e22d83" x="188.499495" y="188.361594" style="fill: #0c5da5; stroke: #0c5da5"/>
     <use xlink:href="#mcc36e22d83" x="189.364599" y="188.360907" style="fill: #0c5da5; stroke: #0c5da5"/>
     <use xlink:href="#mcc36e22d83" x="190.229704" y="188.361108" style="fill: #0c5da5; stroke: #0c5da5"/>
     <use xlink:href="#mcc36e22d83" x="191.094808" y="188.361289" style="fill: #0c5da5; stroke: #0c5da5"/>
     <use xlink:href="#mcc36e22d83" x="191.959913" y="188.361013" style="fill: #0c5da5; stroke: #0c5da5"/>
     <use xlink:href="#mcc36e22d83" x="192.825017" y="188.361371" style="fill: #0c5da5; stroke: #0c5da5"/>
     <use xlink:href="#mcc36e22d83" x="193.690122" y="188.360978" style="fill: #0c5da5; stroke: #0c5da5"/>
     <use xlink:href="#mcc36e22d83" x="194.555226" y="188.361024" style="fill: #0c5da5; stroke: #0c5da5"/>
     <use xlink:href="#mcc36e22d83" x="195.42033" y="188.36061" style="fill: #0c5da5; stroke: #0c5da5"/>
     <use xlink:href="#mcc36e22d83" x="196.285435" y="188.361239" style="fill: #0c5da5; stroke: #0c5da5"/>
     <use xlink:href="#mcc36e22d83" x="197.150539" y="188.361484" style="fill: #0c5da5; stroke: #0c5da5"/>
     <use xlink:href="#mcc36e22d83" x="198.015644" y="188.361157" style="fill: #0c5da5; stroke: #0c5da5"/>
     <use xlink:href="#mcc36e22d83" x="198.880748" y="188.36102" style="fill: #0c5da5; stroke: #0c5da5"/>
     <use xlink:href="#mcc36e22d83" x="199.745853" y="188.361027" style="fill: #0c5da5; stroke: #0c5da5"/>
     <use xlink:href="#mcc36e22d83" x="200.610957" y="188.360579" style="fill: #0c5da5; stroke: #0c5da5"/>
     <use xlink:href="#mcc36e22d83" x="201.476062" y="188.360963" style="fill: #0c5da5; stroke: #0c5da5"/>
     <use xlink:href="#mcc36e22d83" x="202.341166" y="188.361173" style="fill: #0c5da5; stroke: #0c5da5"/>
     <use xlink:href="#mcc36e22d83" x="203.206271" y="188.361161" style="fill: #0c5da5; stroke: #0c5da5"/>
     <use xlink:href="#mcc36e22d83" x="204.071375" y="188.361148" style="fill: #0c5da5; stroke: #0c5da5"/>
     <use xlink:href="#mcc36e22d83" x="204.936479" y="188.36112" style="fill: #0c5da5; stroke: #0c5da5"/>
     <use xlink:href="#mcc36e22d83" x="205.801584" y="188.360645" style="fill: #0c5da5; stroke: #0c5da5"/>
     <use xlink:href="#mcc36e22d83" x="206.666688" y="188.360894" style="fill: #0c5da5; stroke: #0c5da5"/>
     <use xlink:href="#mcc36e22d83" x="207.531793" y="188.360753" style="fill: #0c5da5; stroke: #0c5da5"/>
     <use xlink:href="#mcc36e22d83" x="208.396897" y="188.361137" style="fill: #0c5da5; stroke: #0c5da5"/>
     <use xlink:href="#mcc36e22d83" x="209.262002" y="188.361143" style="fill: #0c5da5; stroke: #0c5da5"/>
     <use xlink:href="#mcc36e22d83" x="210.127106" y="188.361239" style="fill: #0c5da5; stroke: #0c5da5"/>
     <use xlink:href="#mcc36e22d83" x="210.992211" y="188.361242" style="fill: #0c5da5; stroke: #0c5da5"/>
    </g>
   </g>
   <g id="patch_3">
    <path d="M 30.228634 197.159776 
L 30.228634 3.6 
" style="fill: none; stroke: #000000; stroke-width: 0.5; stroke-linejoin: miter; stroke-linecap: square"/>
   </g>
   <g id="patch_4">
    <path d="M 219.6 197.159776 
L 219.6 3.6 
" style="fill: none; stroke: #000000; stroke-width: 0.5; stroke-linejoin: miter; stroke-linecap: square"/>
   </g>
   <g id="patch_5">
    <path d="M 30.228634 197.159776 
L 219.6 197.159776 
" style="fill: none; stroke: #000000; stroke-width: 0.5; stroke-linejoin: miter; stroke-linecap: square"/>
   </g>
   <g id="patch_6">
    <path d="M 30.228634 3.6 
L 219.6 3.6 
" style="fill: none; stroke: #000000; stroke-width: 0.5; stroke-linejoin: miter; stroke-linecap: square"/>
   </g>
  </g>
 </g>
 <defs>
  <clipPath id="p31c41282c2">
   <rect x="30.228634" y="3.6" width="189.371366" height="193.559776"/>
  </clipPath>
 </defs>
</svg>
