<?xml version="1.0" encoding="UTF-8" standalone="no"?>
<!DOCTYPE svg PUBLIC "-//W3C//DTD SVG 1.1//EN" "http://www.w3.org/Graphics/SVG/1.1/DTD/svg11.dtd">
<svg width="100%" height="100%" viewBox="0 0 267 268" version="1.1" xmlns="http://www.w3.org/2000/svg" xmlns:xlink="http://www.w3.org/1999/xlink" xml:space="preserve" xmlns:serif="http://www.serif.com/" style="fill-rule:evenodd;clip-rule:evenodd;stroke-linecap:round;stroke-linejoin:round;stroke-miterlimit:1.5;">
    <g transform="matrix(1,0,0,1,-1462.47,-3439.3)">
        <g transform="matrix(1,0,0,1,-678.957,602.148)">
            <g transform="matrix(1,0,0,1,1524,-434.329)">
                <path d="M827.838,3357.61L804.162,3357.61L804.162,3326.86L696.838,3326.86L696.838,3357.61L673.162,3357.61L673.162,3302.49C673.162,3291.93 681.732,3283.36 692.287,3283.36L808.713,3283.36C819.268,3283.36 827.838,3291.93 827.838,3302.49L827.838,3357.61Z" style="fill:rgb(121,121,121);stroke:rgb(8,6,5);stroke-width:1px;"/>
            </g>
            <g transform="matrix(-1,-1.22465e-16,1.22465e-16,-1,3025,6376.65)">
                <path d="M827.838,3357.61L804.162,3357.61L804.162,3326.86L696.838,3326.86L696.838,3357.61L673.162,3357.61L673.162,3302.49C673.162,3291.93 681.732,3283.36 692.287,3283.36L808.713,3283.36C819.268,3283.36 827.838,3291.93 827.838,3302.49L827.838,3357.61Z" style="fill:rgb(121,121,121);stroke:white;stroke-width:1px;"/>
            </g>
            <g transform="matrix(1,0,0,1,1660.29,125.791)">
                <g transform="matrix(100,0,0,100,526.613,2879.92)">
                    <path d="M0.457,-0.566C0.463,-0.575 0.47,-0.581 0.477,-0.585C0.485,-0.59 0.493,-0.592 0.501,-0.592C0.516,-0.592 0.528,-0.587 0.537,-0.577C0.546,-0.567 0.551,-0.549 0.551,-0.525L0.551,-0.44C0.551,-0.416 0.546,-0.399 0.537,-0.389C0.528,-0.379 0.516,-0.374 0.501,-0.374C0.488,-0.374 0.477,-0.377 0.469,-0.385C0.461,-0.392 0.455,-0.406 0.451,-0.427C0.448,-0.44 0.444,-0.451 0.437,-0.458C0.424,-0.473 0.405,-0.485 0.381,-0.494C0.357,-0.502 0.333,-0.507 0.309,-0.507C0.279,-0.507 0.252,-0.5 0.227,-0.487C0.201,-0.474 0.179,-0.453 0.16,-0.424C0.141,-0.395 0.131,-0.36 0.131,-0.319L0.131,-0.254C0.131,-0.206 0.149,-0.166 0.184,-0.134C0.219,-0.102 0.267,-0.085 0.33,-0.085C0.367,-0.085 0.398,-0.09 0.424,-0.101C0.439,-0.106 0.455,-0.118 0.472,-0.135C0.482,-0.146 0.49,-0.152 0.496,-0.156C0.502,-0.159 0.509,-0.16 0.516,-0.16C0.529,-0.16 0.541,-0.155 0.551,-0.145C0.561,-0.135 0.566,-0.123 0.566,-0.109C0.566,-0.096 0.56,-0.081 0.546,-0.065C0.526,-0.043 0.5,-0.025 0.469,-0.012C0.427,0.006 0.381,0.015 0.33,0.015C0.271,0.015 0.217,0.002 0.17,-0.022C0.132,-0.042 0.099,-0.072 0.072,-0.115C0.045,-0.157 0.031,-0.203 0.031,-0.252L0.031,-0.32C0.031,-0.372 0.043,-0.421 0.068,-0.466C0.092,-0.511 0.125,-0.546 0.168,-0.57C0.211,-0.595 0.257,-0.607 0.305,-0.607C0.334,-0.607 0.361,-0.604 0.386,-0.597C0.412,-0.59 0.435,-0.58 0.457,-0.566Z" style="fill:rgb(94,94,94);fill-rule:nonzero;"/>
                </g>
                <g transform="matrix(100,0,0,100,586.623,2879.92)">
                    <path d="M0.35,-0.234L0.35,-0.067C0.35,-0.043 0.346,-0.026 0.336,-0.015C0.327,-0.005 0.315,-0 0.3,-0C0.285,-0 0.273,-0.005 0.264,-0.015C0.255,-0.026 0.25,-0.043 0.25,-0.067L0.25,-0.234L0.107,-0.234C0.083,-0.234 0.066,-0.239 0.055,-0.248C0.045,-0.258 0.04,-0.27 0.04,-0.285C0.04,-0.3 0.045,-0.312 0.055,-0.321C0.066,-0.33 0.083,-0.335 0.107,-0.334L0.25,-0.334L0.25,-0.501C0.25,-0.525 0.255,-0.542 0.264,-0.553C0.273,-0.563 0.285,-0.568 0.3,-0.568C0.315,-0.568 0.327,-0.563 0.337,-0.553C0.346,-0.543 0.351,-0.526 0.351,-0.501L0.35,-0.334L0.493,-0.334C0.517,-0.334 0.534,-0.33 0.545,-0.321C0.555,-0.312 0.56,-0.3 0.56,-0.285C0.56,-0.27 0.555,-0.258 0.545,-0.248C0.534,-0.239 0.517,-0.234 0.493,-0.234L0.35,-0.234Z" style="fill:rgb(94,94,94);fill-rule:nonzero;"/>
                </g>
                <g transform="matrix(100,0,0,100,646.633,2879.92)">
                    <path d="M0.35,-0.234L0.35,-0.067C0.35,-0.043 0.346,-0.026 0.336,-0.015C0.327,-0.005 0.315,-0 0.3,-0C0.285,-0 0.273,-0.005 0.264,-0.015C0.255,-0.026 0.25,-0.043 0.25,-0.067L0.25,-0.234L0.107,-0.234C0.083,-0.234 0.066,-0.239 0.055,-0.248C0.045,-0.258 0.04,-0.27 0.04,-0.285C0.04,-0.3 0.045,-0.312 0.055,-0.321C0.066,-0.33 0.083,-0.335 0.107,-0.334L0.25,-0.334L0.25,-0.501C0.25,-0.525 0.255,-0.542 0.264,-0.553C0.273,-0.563 0.285,-0.568 0.3,-0.568C0.315,-0.568 0.327,-0.563 0.337,-0.553C0.346,-0.543 0.351,-0.526 0.351,-0.501L0.35,-0.334L0.493,-0.334C0.517,-0.334 0.534,-0.33 0.545,-0.321C0.555,-0.312 0.56,-0.3 0.56,-0.285C0.56,-0.27 0.555,-0.258 0.545,-0.248C0.534,-0.239 0.517,-0.234 0.493,-0.234L0.35,-0.234Z" style="fill:rgb(94,94,94);fill-rule:nonzero;"/>
                </g>
            </g>
            <g transform="matrix(1.10453,0,0,1.10453,670.15,-1316.98)">
                <rect x="1332.05" y="3761" width="240.955" height="242" style="fill:none;"/>
            </g>
        </g>
    </g>
</svg>
