<?xml version="1.0" encoding="UTF-8" standalone="no"?>
<!DOCTYPE svg PUBLIC "-//W3C//DTD SVG 1.1//EN" "http://www.w3.org/Graphics/SVG/1.1/DTD/svg11.dtd">
<svg width="100%" height="100%" viewBox="0 0 267 268" version="1.1" xmlns="http://www.w3.org/2000/svg" xmlns:xlink="http://www.w3.org/1999/xlink" xml:space="preserve" xmlns:serif="http://www.serif.com/" style="fill-rule:evenodd;clip-rule:evenodd;stroke-linecap:round;stroke-linejoin:round;stroke-miterlimit:1.5;">
    <g transform="matrix(1,0,0,1,-1555.47,-3038.35)">
        <g transform="matrix(1,0,0,1,-134.957,-219.296)">
            <g transform="matrix(1,0,0,1,401,206.296)">
                <rect x="1322" y="3106" width="201" height="158" style="fill:rgb(235,235,235);"/>
                <g transform="matrix(0.225223,0,0,0.230494,1241.34,2352.14)">
                    <g transform="matrix(144.617,0,0,144.617,373,3648)">
                        <path d="M0.406,-0.285L0.082,-0.465C0.065,-0.474 0.054,-0.482 0.049,-0.489C0.044,-0.496 0.041,-0.506 0.041,-0.517C0.041,-0.531 0.046,-0.543 0.056,-0.553C0.066,-0.563 0.078,-0.568 0.092,-0.568C0.1,-0.568 0.113,-0.563 0.131,-0.554L0.614,-0.285L0.131,-0.017C0.113,-0.007 0.1,-0.002 0.092,-0.002C0.078,-0.002 0.066,-0.007 0.056,-0.017C0.046,-0.027 0.041,-0.039 0.041,-0.054C0.041,-0.065 0.044,-0.074 0.049,-0.081C0.054,-0.088 0.065,-0.096 0.082,-0.105L0.406,-0.285Z" style="fill:rgb(121,121,121);fill-rule:nonzero;"/>
                    </g>
                    <g transform="matrix(61.4079,0,0,61.4079,496.635,3648)">
                        <path d="M0.176,-0.055L0.176,0.109L0.236,0.109C0.26,0.109 0.277,0.114 0.287,0.123C0.298,0.132 0.303,0.144 0.303,0.159C0.303,0.174 0.298,0.186 0.287,0.195C0.277,0.204 0.26,0.209 0.236,0.209L0.059,0.209C0.035,0.209 0.017,0.204 0.007,0.195C-0.003,0.186 -0.008,0.174 -0.008,0.159C-0.008,0.144 -0.003,0.132 0.007,0.123C0.018,0.114 0.035,0.109 0.059,0.109L0.076,0.109L0.076,-0.343L0.059,-0.343C0.035,-0.343 0.017,-0.348 0.007,-0.357C-0.003,-0.366 -0.008,-0.379 -0.008,-0.394C-0.008,-0.408 -0.003,-0.42 0.007,-0.429C0.017,-0.439 0.035,-0.443 0.059,-0.443L0.176,-0.443L0.176,-0.409C0.199,-0.425 0.223,-0.437 0.249,-0.445C0.274,-0.453 0.299,-0.457 0.326,-0.457C0.394,-0.457 0.452,-0.433 0.5,-0.387C0.549,-0.341 0.573,-0.287 0.573,-0.228C0.573,-0.161 0.544,-0.107 0.487,-0.064C0.44,-0.028 0.386,-0.01 0.327,-0.01C0.301,-0.01 0.276,-0.014 0.25,-0.021C0.225,-0.029 0.201,-0.04 0.176,-0.055ZM0.473,-0.227C0.473,-0.241 0.467,-0.259 0.456,-0.281C0.445,-0.302 0.428,-0.32 0.405,-0.335C0.382,-0.349 0.355,-0.356 0.324,-0.356C0.274,-0.356 0.235,-0.338 0.206,-0.3C0.186,-0.275 0.176,-0.25 0.176,-0.226C0.176,-0.199 0.19,-0.173 0.219,-0.148C0.247,-0.123 0.282,-0.11 0.324,-0.11C0.367,-0.11 0.402,-0.123 0.43,-0.148C0.458,-0.173 0.473,-0.199 0.473,-0.227Z" style="fill:rgb(121,121,121);fill-rule:nonzero;"/>
                    </g>
                    <g transform="matrix(61.4079,0,0,61.4079,533.486,3648)">
                        <path d="M0.244,-0.003L0.071,-0.343C0.055,-0.345 0.042,-0.351 0.034,-0.36C0.025,-0.369 0.021,-0.38 0.021,-0.393C0.021,-0.408 0.026,-0.42 0.036,-0.429C0.047,-0.439 0.064,-0.443 0.088,-0.443L0.179,-0.443C0.203,-0.443 0.22,-0.439 0.231,-0.429C0.241,-0.42 0.246,-0.408 0.246,-0.393C0.246,-0.378 0.241,-0.366 0.231,-0.357C0.22,-0.348 0.204,-0.343 0.182,-0.343L0.3,-0.113L0.417,-0.343C0.396,-0.343 0.38,-0.348 0.37,-0.357C0.36,-0.366 0.354,-0.379 0.354,-0.394C0.354,-0.408 0.36,-0.42 0.37,-0.429C0.38,-0.439 0.397,-0.443 0.421,-0.443L0.516,-0.443C0.539,-0.443 0.556,-0.439 0.567,-0.429C0.577,-0.42 0.582,-0.408 0.582,-0.393C0.582,-0.38 0.578,-0.368 0.569,-0.359C0.56,-0.35 0.547,-0.345 0.53,-0.343L0.3,0.109C0.325,0.109 0.342,0.111 0.35,0.116C0.365,0.126 0.373,0.141 0.373,0.159C0.373,0.174 0.368,0.186 0.358,0.195C0.347,0.204 0.33,0.209 0.306,0.209L0.088,0.209C0.064,0.209 0.047,0.204 0.036,0.195C0.026,0.186 0.021,0.174 0.021,0.159C0.021,0.144 0.026,0.132 0.036,0.123C0.047,0.114 0.064,0.109 0.088,0.109L0.188,0.109L0.244,-0.003Z" style="fill:rgb(121,121,121);fill-rule:nonzero;"/>
                    </g>
                    <g transform="matrix(61.4079,0,0,61.4079,570.337,3648)">
                        <path d="M0.275,-0.343L0.275,-0.143C0.275,-0.121 0.28,-0.107 0.289,-0.1C0.302,-0.089 0.327,-0.084 0.362,-0.084C0.413,-0.084 0.46,-0.095 0.503,-0.117C0.52,-0.125 0.533,-0.129 0.542,-0.129C0.556,-0.129 0.567,-0.125 0.576,-0.115C0.586,-0.105 0.591,-0.093 0.591,-0.079C0.591,-0.066 0.586,-0.055 0.575,-0.045C0.559,-0.03 0.528,-0.016 0.481,-0.003C0.434,0.01 0.394,0.016 0.362,0.016C0.3,0.016 0.253,0.003 0.222,-0.024C0.191,-0.051 0.175,-0.084 0.175,-0.123L0.175,-0.343L0.139,-0.343C0.115,-0.343 0.098,-0.348 0.088,-0.357C0.077,-0.366 0.072,-0.379 0.072,-0.394C0.072,-0.408 0.077,-0.42 0.088,-0.429C0.098,-0.439 0.115,-0.443 0.139,-0.443L0.175,-0.443L0.175,-0.534C0.175,-0.558 0.18,-0.575 0.189,-0.585C0.198,-0.595 0.211,-0.601 0.226,-0.601C0.24,-0.601 0.252,-0.595 0.261,-0.585C0.271,-0.575 0.275,-0.558 0.275,-0.534L0.275,-0.443L0.46,-0.443C0.485,-0.443 0.502,-0.439 0.512,-0.429C0.522,-0.42 0.527,-0.408 0.527,-0.393C0.527,-0.378 0.522,-0.366 0.512,-0.357C0.502,-0.348 0.485,-0.343 0.46,-0.343L0.275,-0.343Z" style="fill:rgb(121,121,121);fill-rule:nonzero;"/>
                    </g>
                    <g transform="matrix(61.4079,0,0,61.4079,607.187,3648)">
                        <path d="M0.197,-0.633L0.197,-0.42C0.218,-0.432 0.239,-0.441 0.26,-0.448C0.281,-0.454 0.303,-0.457 0.325,-0.457C0.359,-0.457 0.39,-0.451 0.417,-0.439C0.444,-0.427 0.466,-0.409 0.484,-0.384C0.502,-0.358 0.511,-0.326 0.511,-0.288L0.511,-0.1C0.536,-0.1 0.553,-0.098 0.561,-0.093C0.576,-0.083 0.584,-0.068 0.584,-0.05C0.584,-0.035 0.579,-0.023 0.569,-0.014C0.559,-0.005 0.542,-0 0.518,-0L0.403,-0C0.38,-0 0.363,-0.005 0.352,-0.014C0.342,-0.023 0.337,-0.035 0.337,-0.05C0.337,-0.069 0.345,-0.083 0.36,-0.093C0.368,-0.098 0.385,-0.1 0.41,-0.1L0.41,-0.281C0.41,-0.307 0.404,-0.325 0.393,-0.335C0.377,-0.349 0.355,-0.356 0.325,-0.356C0.303,-0.356 0.283,-0.352 0.266,-0.344C0.249,-0.335 0.226,-0.316 0.197,-0.288L0.197,-0.1C0.222,-0.1 0.239,-0.098 0.247,-0.093C0.263,-0.083 0.271,-0.068 0.271,-0.05C0.271,-0.035 0.265,-0.023 0.255,-0.014C0.245,-0.005 0.228,-0 0.204,-0L0.09,-0C0.066,-0 0.049,-0.005 0.038,-0.014C0.028,-0.023 0.023,-0.035 0.023,-0.05C0.023,-0.069 0.031,-0.083 0.047,-0.093C0.055,-0.098 0.071,-0.1 0.097,-0.1L0.097,-0.533L0.08,-0.533C0.056,-0.533 0.038,-0.538 0.028,-0.547C0.018,-0.556 0.013,-0.569 0.013,-0.583C0.013,-0.598 0.018,-0.61 0.028,-0.619C0.038,-0.629 0.056,-0.633 0.08,-0.633L0.197,-0.633Z" style="fill:rgb(121,121,121);fill-rule:nonzero;"/>
                    </g>
                    <g transform="matrix(61.4079,0,0,61.4079,644.038,3648)">
                        <path d="M0.56,-0.213C0.56,-0.175 0.549,-0.138 0.528,-0.102C0.507,-0.066 0.475,-0.037 0.433,-0.016C0.391,0.005 0.347,0.016 0.301,0.016C0.255,0.016 0.212,0.006 0.17,-0.015C0.128,-0.036 0.097,-0.065 0.075,-0.101C0.053,-0.137 0.042,-0.175 0.042,-0.214C0.042,-0.254 0.053,-0.294 0.075,-0.332C0.097,-0.371 0.129,-0.401 0.171,-0.423C0.212,-0.445 0.256,-0.457 0.301,-0.457C0.346,-0.457 0.39,-0.445 0.432,-0.423C0.475,-0.4 0.506,-0.37 0.528,-0.331C0.549,-0.293 0.56,-0.254 0.56,-0.213ZM0.46,-0.213C0.46,-0.245 0.448,-0.275 0.425,-0.302C0.394,-0.338 0.352,-0.356 0.301,-0.356C0.256,-0.356 0.218,-0.342 0.188,-0.313C0.157,-0.284 0.142,-0.25 0.142,-0.212C0.142,-0.181 0.157,-0.152 0.188,-0.125C0.219,-0.098 0.256,-0.084 0.301,-0.084C0.346,-0.084 0.383,-0.098 0.414,-0.125C0.445,-0.152 0.46,-0.181 0.46,-0.213Z" style="fill:rgb(121,121,121);fill-rule:nonzero;"/>
                    </g>
                    <g transform="matrix(61.4079,0,0,61.4079,680.889,3648)">
                        <path d="M0.199,-0.443L0.199,-0.41C0.217,-0.425 0.237,-0.437 0.259,-0.445C0.281,-0.453 0.305,-0.457 0.331,-0.457C0.39,-0.457 0.437,-0.438 0.471,-0.401C0.499,-0.372 0.512,-0.334 0.512,-0.286L0.512,-0.1C0.533,-0.1 0.549,-0.095 0.559,-0.086C0.569,-0.077 0.574,-0.065 0.574,-0.05C0.574,-0.035 0.569,-0.023 0.559,-0.014C0.549,-0.005 0.531,-0 0.507,-0L0.417,-0C0.393,-0 0.376,-0.005 0.365,-0.014C0.355,-0.023 0.35,-0.035 0.35,-0.05C0.35,-0.065 0.355,-0.077 0.365,-0.086C0.375,-0.095 0.391,-0.1 0.412,-0.1L0.412,-0.289C0.412,-0.311 0.406,-0.327 0.395,-0.337C0.379,-0.35 0.356,-0.356 0.326,-0.356C0.303,-0.356 0.282,-0.352 0.265,-0.343C0.247,-0.334 0.225,-0.315 0.199,-0.286L0.199,-0.1C0.224,-0.1 0.241,-0.098 0.249,-0.093C0.264,-0.083 0.272,-0.069 0.272,-0.05C0.272,-0.035 0.267,-0.023 0.257,-0.014C0.247,-0.005 0.23,-0 0.206,-0L0.092,-0C0.068,-0 0.051,-0.005 0.04,-0.014C0.03,-0.023 0.025,-0.035 0.025,-0.05C0.025,-0.069 0.033,-0.083 0.048,-0.093C0.056,-0.098 0.073,-0.1 0.099,-0.1L0.099,-0.343C0.077,-0.343 0.062,-0.348 0.052,-0.357C0.042,-0.367 0.037,-0.379 0.037,-0.394C0.037,-0.408 0.042,-0.42 0.052,-0.429C0.062,-0.439 0.079,-0.443 0.104,-0.443L0.199,-0.443Z" style="fill:rgb(121,121,121);fill-rule:nonzero;"/>
                    </g>
                    <g transform="matrix(61.4079,0,0,61.4079,754.59,3648)">
                        <path d="M0.408,-0.326C0.392,-0.336 0.375,-0.344 0.357,-0.349C0.339,-0.354 0.32,-0.356 0.301,-0.356C0.262,-0.356 0.231,-0.35 0.208,-0.337C0.198,-0.332 0.193,-0.326 0.193,-0.319C0.193,-0.312 0.2,-0.305 0.214,-0.297C0.224,-0.292 0.248,-0.287 0.284,-0.282C0.35,-0.273 0.396,-0.264 0.422,-0.255C0.457,-0.243 0.483,-0.225 0.501,-0.201C0.52,-0.177 0.529,-0.152 0.529,-0.126C0.529,-0.09 0.514,-0.06 0.482,-0.036C0.437,-0.001 0.378,0.016 0.306,0.016C0.277,0.016 0.25,0.014 0.225,0.009C0.201,0.003 0.178,-0.004 0.158,-0.014C0.153,-0.009 0.148,-0.006 0.142,-0.004C0.137,-0.002 0.131,-0 0.125,-0C0.109,-0 0.097,-0.006 0.088,-0.016C0.078,-0.026 0.074,-0.043 0.074,-0.067L0.074,-0.101C0.074,-0.125 0.078,-0.142 0.088,-0.153C0.097,-0.163 0.109,-0.168 0.124,-0.168C0.136,-0.168 0.146,-0.165 0.154,-0.158C0.162,-0.151 0.169,-0.14 0.173,-0.124C0.189,-0.111 0.207,-0.101 0.229,-0.094C0.25,-0.087 0.275,-0.084 0.303,-0.084C0.349,-0.084 0.384,-0.091 0.41,-0.105C0.422,-0.113 0.428,-0.12 0.428,-0.128C0.428,-0.141 0.419,-0.152 0.402,-0.16C0.385,-0.169 0.349,-0.176 0.295,-0.182C0.215,-0.19 0.161,-0.206 0.134,-0.23C0.107,-0.254 0.093,-0.284 0.093,-0.318C0.093,-0.354 0.108,-0.384 0.139,-0.408C0.18,-0.44 0.233,-0.457 0.3,-0.457C0.323,-0.457 0.345,-0.454 0.366,-0.45C0.388,-0.446 0.408,-0.439 0.428,-0.43C0.434,-0.434 0.44,-0.438 0.445,-0.44C0.45,-0.442 0.455,-0.443 0.46,-0.443C0.474,-0.443 0.485,-0.438 0.494,-0.428C0.503,-0.418 0.508,-0.401 0.508,-0.376L0.508,-0.352C0.508,-0.33 0.505,-0.315 0.5,-0.308C0.49,-0.293 0.475,-0.285 0.458,-0.285C0.445,-0.285 0.435,-0.289 0.426,-0.296C0.417,-0.304 0.411,-0.314 0.408,-0.326Z" style="fill:rgb(121,121,121);fill-rule:nonzero;"/>
                    </g>
                    <g transform="matrix(61.4079,0,0,61.4079,791.441,3648)">
                        <path d="M0.551,-0.171L0.141,-0.171C0.151,-0.145 0.17,-0.124 0.196,-0.108C0.223,-0.092 0.258,-0.084 0.304,-0.084C0.341,-0.084 0.39,-0.092 0.452,-0.108C0.477,-0.114 0.495,-0.118 0.504,-0.118C0.518,-0.118 0.529,-0.113 0.538,-0.104C0.547,-0.094 0.552,-0.082 0.552,-0.068C0.552,-0.055 0.547,-0.044 0.537,-0.035C0.524,-0.023 0.492,-0.011 0.442,-0C0.391,0.011 0.343,0.016 0.296,0.016C0.216,0.016 0.152,-0.007 0.104,-0.052C0.056,-0.097 0.032,-0.153 0.032,-0.219C0.032,-0.289 0.058,-0.346 0.11,-0.39C0.162,-0.434 0.222,-0.457 0.29,-0.457C0.33,-0.457 0.368,-0.449 0.402,-0.435C0.436,-0.421 0.461,-0.405 0.478,-0.389C0.501,-0.365 0.52,-0.335 0.536,-0.299C0.546,-0.275 0.551,-0.246 0.551,-0.213L0.551,-0.171ZM0.44,-0.271C0.425,-0.3 0.405,-0.321 0.38,-0.335C0.356,-0.349 0.326,-0.356 0.292,-0.356C0.258,-0.356 0.229,-0.349 0.204,-0.335C0.179,-0.321 0.159,-0.3 0.144,-0.271L0.44,-0.271Z" style="fill:rgb(121,121,121);fill-rule:nonzero;"/>
                    </g>
                    <g transform="matrix(61.4079,0,0,61.4079,828.292,3648)">
                        <path d="M0.275,-0.343L0.275,-0.143C0.275,-0.121 0.28,-0.107 0.289,-0.1C0.302,-0.089 0.327,-0.084 0.362,-0.084C0.413,-0.084 0.46,-0.095 0.503,-0.117C0.52,-0.125 0.533,-0.129 0.542,-0.129C0.556,-0.129 0.567,-0.125 0.576,-0.115C0.586,-0.105 0.591,-0.093 0.591,-0.079C0.591,-0.066 0.586,-0.055 0.575,-0.045C0.559,-0.03 0.528,-0.016 0.481,-0.003C0.434,0.01 0.394,0.016 0.362,0.016C0.3,0.016 0.253,0.003 0.222,-0.024C0.191,-0.051 0.175,-0.084 0.175,-0.123L0.175,-0.343L0.139,-0.343C0.115,-0.343 0.098,-0.348 0.088,-0.357C0.077,-0.366 0.072,-0.379 0.072,-0.394C0.072,-0.408 0.077,-0.42 0.088,-0.429C0.098,-0.439 0.115,-0.443 0.139,-0.443L0.175,-0.443L0.175,-0.534C0.175,-0.558 0.18,-0.575 0.189,-0.585C0.198,-0.595 0.211,-0.601 0.226,-0.601C0.24,-0.601 0.252,-0.595 0.261,-0.585C0.271,-0.575 0.275,-0.558 0.275,-0.534L0.275,-0.443L0.46,-0.443C0.485,-0.443 0.502,-0.439 0.512,-0.429C0.522,-0.42 0.527,-0.408 0.527,-0.393C0.527,-0.378 0.522,-0.366 0.512,-0.357C0.502,-0.348 0.485,-0.343 0.46,-0.343L0.275,-0.343Z" style="fill:rgb(121,121,121);fill-rule:nonzero;"/>
                    </g>
                    <g transform="matrix(61.4079,0,0,61.4079,865.142,3648)">
                        <path d="M0.513,-0.443L0.513,-0.1C0.534,-0.1 0.549,-0.095 0.56,-0.086C0.57,-0.076 0.575,-0.064 0.575,-0.05C0.575,-0.035 0.57,-0.023 0.559,-0.014C0.549,-0.005 0.532,-0 0.508,-0L0.413,-0L0.413,-0.023C0.384,-0.01 0.357,-0 0.331,0.006C0.305,0.013 0.28,0.016 0.256,0.016C0.223,0.016 0.195,0.009 0.171,-0.005C0.147,-0.018 0.128,-0.038 0.114,-0.062C0.104,-0.08 0.099,-0.102 0.099,-0.128L0.099,-0.343L0.082,-0.343C0.057,-0.343 0.04,-0.348 0.03,-0.357C0.02,-0.366 0.015,-0.379 0.015,-0.394C0.015,-0.408 0.02,-0.42 0.03,-0.429C0.04,-0.439 0.057,-0.443 0.082,-0.443L0.199,-0.443L0.199,-0.146C0.199,-0.124 0.204,-0.109 0.214,-0.099C0.224,-0.089 0.24,-0.084 0.261,-0.084C0.281,-0.084 0.303,-0.088 0.326,-0.096C0.35,-0.104 0.378,-0.118 0.413,-0.139L0.413,-0.343L0.376,-0.343C0.352,-0.343 0.335,-0.348 0.325,-0.357C0.315,-0.366 0.31,-0.379 0.31,-0.394C0.31,-0.408 0.315,-0.42 0.325,-0.429C0.335,-0.439 0.352,-0.443 0.376,-0.443L0.513,-0.443Z" style="fill:rgb(121,121,121);fill-rule:nonzero;"/>
                    </g>
                    <g transform="matrix(61.4079,0,0,61.4079,901.993,3648)">
                        <path d="M0.176,-0.055L0.176,0.109L0.236,0.109C0.26,0.109 0.277,0.114 0.287,0.123C0.298,0.132 0.303,0.144 0.303,0.159C0.303,0.174 0.298,0.186 0.287,0.195C0.277,0.204 0.26,0.209 0.236,0.209L0.059,0.209C0.035,0.209 0.017,0.204 0.007,0.195C-0.003,0.186 -0.008,0.174 -0.008,0.159C-0.008,0.144 -0.003,0.132 0.007,0.123C0.018,0.114 0.035,0.109 0.059,0.109L0.076,0.109L0.076,-0.343L0.059,-0.343C0.035,-0.343 0.017,-0.348 0.007,-0.357C-0.003,-0.366 -0.008,-0.379 -0.008,-0.394C-0.008,-0.408 -0.003,-0.42 0.007,-0.429C0.017,-0.439 0.035,-0.443 0.059,-0.443L0.176,-0.443L0.176,-0.409C0.199,-0.425 0.223,-0.437 0.249,-0.445C0.274,-0.453 0.299,-0.457 0.326,-0.457C0.394,-0.457 0.452,-0.433 0.5,-0.387C0.549,-0.341 0.573,-0.287 0.573,-0.228C0.573,-0.161 0.544,-0.107 0.487,-0.064C0.44,-0.028 0.386,-0.01 0.327,-0.01C0.301,-0.01 0.276,-0.014 0.25,-0.021C0.225,-0.029 0.201,-0.04 0.176,-0.055ZM0.473,-0.227C0.473,-0.241 0.467,-0.259 0.456,-0.281C0.445,-0.302 0.428,-0.32 0.405,-0.335C0.382,-0.349 0.355,-0.356 0.324,-0.356C0.274,-0.356 0.235,-0.338 0.206,-0.3C0.186,-0.275 0.176,-0.25 0.176,-0.226C0.176,-0.199 0.19,-0.173 0.219,-0.148C0.247,-0.123 0.282,-0.11 0.324,-0.11C0.367,-0.11 0.402,-0.123 0.43,-0.148C0.458,-0.173 0.473,-0.199 0.473,-0.227Z" style="fill:rgb(121,121,121);fill-rule:nonzero;"/>
                    </g>
                    <g transform="matrix(61.4079,0,0,61.4079,975.695,3648)">
                        <path d="M0.336,-0.633L0.336,-0.527L0.217,-0.527L0.217,-0.633L0.336,-0.633ZM0.35,-0.443L0.35,-0.1L0.47,-0.1C0.494,-0.1 0.511,-0.095 0.521,-0.086C0.531,-0.077 0.537,-0.065 0.537,-0.05C0.537,-0.035 0.531,-0.023 0.521,-0.014C0.511,-0.005 0.494,-0 0.47,-0L0.129,-0C0.105,-0 0.088,-0.005 0.078,-0.014C0.068,-0.023 0.063,-0.035 0.063,-0.05C0.063,-0.065 0.068,-0.077 0.078,-0.086C0.088,-0.095 0.105,-0.1 0.129,-0.1L0.25,-0.1L0.25,-0.343L0.169,-0.343C0.145,-0.343 0.128,-0.348 0.118,-0.357C0.107,-0.366 0.102,-0.379 0.102,-0.394C0.102,-0.408 0.107,-0.42 0.117,-0.429C0.128,-0.439 0.145,-0.443 0.169,-0.443L0.35,-0.443Z" style="fill:rgb(121,121,121);fill-rule:nonzero;"/>
                    </g>
                    <g transform="matrix(61.4079,0,0,61.4079,1012.55,3648)">
                        <path d="M0.199,-0.443L0.199,-0.41C0.217,-0.425 0.237,-0.437 0.259,-0.445C0.281,-0.453 0.305,-0.457 0.331,-0.457C0.39,-0.457 0.437,-0.438 0.471,-0.401C0.499,-0.372 0.512,-0.334 0.512,-0.286L0.512,-0.1C0.533,-0.1 0.549,-0.095 0.559,-0.086C0.569,-0.077 0.574,-0.065 0.574,-0.05C0.574,-0.035 0.569,-0.023 0.559,-0.014C0.549,-0.005 0.531,-0 0.507,-0L0.417,-0C0.393,-0 0.376,-0.005 0.365,-0.014C0.355,-0.023 0.35,-0.035 0.35,-0.05C0.35,-0.065 0.355,-0.077 0.365,-0.086C0.375,-0.095 0.391,-0.1 0.412,-0.1L0.412,-0.289C0.412,-0.311 0.406,-0.327 0.395,-0.337C0.379,-0.35 0.356,-0.356 0.326,-0.356C0.303,-0.356 0.282,-0.352 0.265,-0.343C0.247,-0.334 0.225,-0.315 0.199,-0.286L0.199,-0.1C0.224,-0.1 0.241,-0.098 0.249,-0.093C0.264,-0.083 0.272,-0.069 0.272,-0.05C0.272,-0.035 0.267,-0.023 0.257,-0.014C0.247,-0.005 0.23,-0 0.206,-0L0.092,-0C0.068,-0 0.051,-0.005 0.04,-0.014C0.03,-0.023 0.025,-0.035 0.025,-0.05C0.025,-0.069 0.033,-0.083 0.048,-0.093C0.056,-0.098 0.073,-0.1 0.099,-0.1L0.099,-0.343C0.077,-0.343 0.062,-0.348 0.052,-0.357C0.042,-0.367 0.037,-0.379 0.037,-0.394C0.037,-0.408 0.042,-0.42 0.052,-0.429C0.062,-0.439 0.079,-0.443 0.104,-0.443L0.199,-0.443Z" style="fill:rgb(121,121,121);fill-rule:nonzero;"/>
                    </g>
                    <g transform="matrix(61.4079,0,0,61.4079,1049.4,3648)">
                        <path d="M0.408,-0.326C0.392,-0.336 0.375,-0.344 0.357,-0.349C0.339,-0.354 0.32,-0.356 0.301,-0.356C0.262,-0.356 0.231,-0.35 0.208,-0.337C0.198,-0.332 0.193,-0.326 0.193,-0.319C0.193,-0.312 0.2,-0.305 0.214,-0.297C0.224,-0.292 0.248,-0.287 0.284,-0.282C0.35,-0.273 0.396,-0.264 0.422,-0.255C0.457,-0.243 0.483,-0.225 0.501,-0.201C0.52,-0.177 0.529,-0.152 0.529,-0.126C0.529,-0.09 0.514,-0.06 0.482,-0.036C0.437,-0.001 0.378,0.016 0.306,0.016C0.277,0.016 0.25,0.014 0.225,0.009C0.201,0.003 0.178,-0.004 0.158,-0.014C0.153,-0.009 0.148,-0.006 0.142,-0.004C0.137,-0.002 0.131,-0 0.125,-0C0.109,-0 0.097,-0.006 0.088,-0.016C0.078,-0.026 0.074,-0.043 0.074,-0.067L0.074,-0.101C0.074,-0.125 0.078,-0.142 0.088,-0.153C0.097,-0.163 0.109,-0.168 0.124,-0.168C0.136,-0.168 0.146,-0.165 0.154,-0.158C0.162,-0.151 0.169,-0.14 0.173,-0.124C0.189,-0.111 0.207,-0.101 0.229,-0.094C0.25,-0.087 0.275,-0.084 0.303,-0.084C0.349,-0.084 0.384,-0.091 0.41,-0.105C0.422,-0.113 0.428,-0.12 0.428,-0.128C0.428,-0.141 0.419,-0.152 0.402,-0.16C0.385,-0.169 0.349,-0.176 0.295,-0.182C0.215,-0.19 0.161,-0.206 0.134,-0.23C0.107,-0.254 0.093,-0.284 0.093,-0.318C0.093,-0.354 0.108,-0.384 0.139,-0.408C0.18,-0.44 0.233,-0.457 0.3,-0.457C0.323,-0.457 0.345,-0.454 0.366,-0.45C0.388,-0.446 0.408,-0.439 0.428,-0.43C0.434,-0.434 0.44,-0.438 0.445,-0.44C0.45,-0.442 0.455,-0.443 0.46,-0.443C0.474,-0.443 0.485,-0.438 0.494,-0.428C0.503,-0.418 0.508,-0.401 0.508,-0.376L0.508,-0.352C0.508,-0.33 0.505,-0.315 0.5,-0.308C0.49,-0.293 0.475,-0.285 0.458,-0.285C0.445,-0.285 0.435,-0.289 0.426,-0.296C0.417,-0.304 0.411,-0.314 0.408,-0.326Z" style="fill:rgb(121,121,121);fill-rule:nonzero;"/>
                    </g>
                    <g transform="matrix(61.4079,0,0,61.4079,1086.25,3648)">
                        <path d="M0.275,-0.343L0.275,-0.143C0.275,-0.121 0.28,-0.107 0.289,-0.1C0.302,-0.089 0.327,-0.084 0.362,-0.084C0.413,-0.084 0.46,-0.095 0.503,-0.117C0.52,-0.125 0.533,-0.129 0.542,-0.129C0.556,-0.129 0.567,-0.125 0.576,-0.115C0.586,-0.105 0.591,-0.093 0.591,-0.079C0.591,-0.066 0.586,-0.055 0.575,-0.045C0.559,-0.03 0.528,-0.016 0.481,-0.003C0.434,0.01 0.394,0.016 0.362,0.016C0.3,0.016 0.253,0.003 0.222,-0.024C0.191,-0.051 0.175,-0.084 0.175,-0.123L0.175,-0.343L0.139,-0.343C0.115,-0.343 0.098,-0.348 0.088,-0.357C0.077,-0.366 0.072,-0.379 0.072,-0.394C0.072,-0.408 0.077,-0.42 0.088,-0.429C0.098,-0.439 0.115,-0.443 0.139,-0.443L0.175,-0.443L0.175,-0.534C0.175,-0.558 0.18,-0.575 0.189,-0.585C0.198,-0.595 0.211,-0.601 0.226,-0.601C0.24,-0.601 0.252,-0.595 0.261,-0.585C0.271,-0.575 0.275,-0.558 0.275,-0.534L0.275,-0.443L0.46,-0.443C0.485,-0.443 0.502,-0.439 0.512,-0.429C0.522,-0.42 0.527,-0.408 0.527,-0.393C0.527,-0.378 0.522,-0.366 0.512,-0.357C0.502,-0.348 0.485,-0.343 0.46,-0.343L0.275,-0.343Z" style="fill:rgb(121,121,121);fill-rule:nonzero;"/>
                    </g>
                    <g transform="matrix(61.4079,0,0,61.4079,1123.1,3648)">
                        <path d="M0.39,-0L0.39,-0.023C0.365,-0.01 0.337,-0 0.307,0.007C0.277,0.013 0.249,0.017 0.225,0.017C0.171,0.017 0.127,0.002 0.094,-0.026C0.06,-0.055 0.043,-0.086 0.043,-0.121C0.043,-0.163 0.065,-0.202 0.108,-0.238C0.15,-0.274 0.21,-0.292 0.285,-0.292C0.315,-0.292 0.35,-0.288 0.39,-0.282L0.39,-0.306C0.39,-0.321 0.384,-0.333 0.371,-0.342C0.358,-0.352 0.333,-0.356 0.297,-0.356C0.268,-0.356 0.229,-0.351 0.182,-0.339C0.165,-0.335 0.151,-0.333 0.141,-0.333C0.128,-0.333 0.116,-0.337 0.107,-0.347C0.098,-0.357 0.093,-0.369 0.093,-0.384C0.093,-0.392 0.095,-0.4 0.098,-0.406C0.101,-0.412 0.106,-0.417 0.112,-0.421C0.118,-0.424 0.13,-0.429 0.148,-0.434C0.173,-0.441 0.198,-0.446 0.224,-0.45C0.25,-0.455 0.273,-0.457 0.294,-0.457C0.356,-0.457 0.404,-0.443 0.439,-0.416C0.473,-0.389 0.49,-0.353 0.49,-0.306L0.49,-0.1L0.507,-0.1C0.531,-0.1 0.549,-0.095 0.559,-0.086C0.569,-0.077 0.574,-0.065 0.574,-0.05C0.574,-0.035 0.569,-0.023 0.559,-0.014C0.549,-0.005 0.531,-0 0.507,-0L0.39,-0ZM0.39,-0.179C0.35,-0.187 0.313,-0.191 0.279,-0.191C0.239,-0.191 0.204,-0.181 0.174,-0.161C0.156,-0.148 0.147,-0.136 0.147,-0.123C0.147,-0.113 0.151,-0.105 0.16,-0.1C0.176,-0.089 0.199,-0.083 0.227,-0.083C0.251,-0.083 0.278,-0.088 0.309,-0.098C0.339,-0.107 0.366,-0.12 0.39,-0.136L0.39,-0.179Z" style="fill:rgb(121,121,121);fill-rule:nonzero;"/>
                    </g>
                    <g transform="matrix(61.4079,0,0,61.4079,1159.95,3648)">
                        <path d="M0.35,-0.633L0.35,-0.1L0.47,-0.1C0.494,-0.1 0.511,-0.095 0.522,-0.086C0.532,-0.077 0.537,-0.065 0.537,-0.05C0.537,-0.035 0.532,-0.023 0.522,-0.014C0.511,-0.005 0.494,-0 0.47,-0L0.13,-0C0.106,-0 0.089,-0.005 0.078,-0.014C0.068,-0.023 0.063,-0.035 0.063,-0.05C0.063,-0.065 0.068,-0.077 0.078,-0.086C0.089,-0.095 0.106,-0.1 0.13,-0.1L0.25,-0.1L0.25,-0.533L0.169,-0.533C0.146,-0.533 0.129,-0.538 0.118,-0.547C0.108,-0.556 0.103,-0.569 0.103,-0.583C0.103,-0.598 0.108,-0.61 0.118,-0.619C0.128,-0.629 0.145,-0.633 0.169,-0.633L0.35,-0.633Z" style="fill:rgb(121,121,121);fill-rule:nonzero;"/>
                    </g>
                    <g transform="matrix(61.4079,0,0,61.4079,1196.8,3648)">
                        <path d="M0.35,-0.633L0.35,-0.1L0.47,-0.1C0.494,-0.1 0.511,-0.095 0.522,-0.086C0.532,-0.077 0.537,-0.065 0.537,-0.05C0.537,-0.035 0.532,-0.023 0.522,-0.014C0.511,-0.005 0.494,-0 0.47,-0L0.13,-0C0.106,-0 0.089,-0.005 0.078,-0.014C0.068,-0.023 0.063,-0.035 0.063,-0.05C0.063,-0.065 0.068,-0.077 0.078,-0.086C0.089,-0.095 0.106,-0.1 0.13,-0.1L0.25,-0.1L0.25,-0.533L0.169,-0.533C0.146,-0.533 0.129,-0.538 0.118,-0.547C0.108,-0.556 0.103,-0.569 0.103,-0.583C0.103,-0.598 0.108,-0.61 0.118,-0.619C0.128,-0.629 0.145,-0.633 0.169,-0.633L0.35,-0.633Z" style="fill:rgb(121,121,121);fill-rule:nonzero;"/>
                    </g>
                </g>
                <g transform="matrix(0.528828,0,0,0.528828,615.168,1386.12)">
                    <path d="M1292.16,3563.46L1292.16,3236.36C1292.16,3225.81 1317.8,3217.24 1349.37,3217.24L1697.63,3217.24C1729.2,3217.24 1754.84,3225.81 1754.84,3236.36L1754.84,3563.46C1754.84,3574.01 1729.2,3582.58 1697.63,3582.58L1349.37,3582.58C1317.8,3582.58 1292.16,3574.01 1292.16,3563.46ZM1717,3250L1336,3250L1336,3553L1717,3553L1717,3250Z" style="fill:rgb(121,121,121);stroke:rgb(42,39,38);stroke-width:1.89px;"/>
                </g>
            </g>
            <g transform="matrix(1.10453,0,0,1.10453,219.15,-896.479)">
                <rect x="1332.05" y="3761" width="240.955" height="242" style="fill:none;"/>
            </g>
        </g>
    </g>
</svg>
