<?xml version="1.0" encoding="UTF-8" standalone="no"?>
<!DOCTYPE svg PUBLIC "-//W3C//DTD SVG 1.1//EN" "http://www.w3.org/Graphics/SVG/1.1/DTD/svg11.dtd">
<svg width="100%" height="100%" viewBox="0 0 917 657" version="1.1" xmlns="http://www.w3.org/2000/svg" xmlns:xlink="http://www.w3.org/1999/xlink" xml:space="preserve" xmlns:serif="http://www.serif.com/" style="fill-rule:evenodd;clip-rule:evenodd;stroke-miterlimit:1.5;">
    <g transform="matrix(1,0,0,1,-1966.23,-2376.39)">
        <g transform="matrix(1.07713,0,0,1.07713,1282.18,-355.607)">
            <g id="Trimesh" transform="matrix(1.29076,0,0,1.27963,-261.178,-639.346)">
                <g transform="matrix(0.974707,7.79108e-18,-1.9404e-18,1,82.2786,-23)">
                    <path d="M738,2562L1196,2589L924.893,2891.85L738,2562" style="fill:rgb(242,242,242);"/>
                </g>
                <g transform="matrix(2.46352,-0.335742,-0.335742,2.02904,-1540.43,497.375)">
                    <path d="M1097,1160.4L1223,1392" style="fill:none;stroke:rgb(35,31,32);stroke-width:1.04px;"/>
                </g>
                <g id="he">
                </g>
                <g transform="matrix(2.22814,0.476972,0.476972,2.10195,-2327.11,-589.915)">
                    <path d="M1376,1164.57L1146,1427" style="fill:none;stroke:rgb(35,31,32);stroke-width:0.76px;"/>
                </g>
                <g transform="matrix(1.43583,-0.0766374,-0.0766374,2.64132,-529.515,-583.558)">
                    <path d="M1376,1235L918,1206" style="fill:none;stroke:rgb(35,31,32);stroke-width:0.98px;"/>
                </g>
                <g transform="matrix(0.966541,-0.0515891,-0.0515891,1.77803,-27.6328,440.992)">
                    <path d="M1376,1235L918,1206" style="fill:none;stroke:rgb(243,174,27);stroke-width:5.82px;"/>
                </g>
            </g>
            <g transform="matrix(1.43325,0,0,1.43325,-1129.32,-1219.29)">
                <circle cx="1323.87" cy="2671.5" r="22.5" style="fill:rgb(13,202,242);"/>
            </g>
            <g transform="matrix(1.43325,0,0,1.43325,-893.529,-797.21)">
                <circle cx="1323.87" cy="2671.5" r="22.5"/>
            </g>
            <g transform="matrix(1.43325,0,0,1.43325,-548.167,-1188.06)">
                <circle cx="1323.87" cy="2671.5" r="22.5"/>
            </g>
            <g transform="matrix(1.43325,0,0,1.43325,-1129.32,-1219.29)">
                <circle cx="1323.87" cy="2671.5" r="22.5" style="fill:rgb(12,162,218);"/>
            </g>
            <g transform="matrix(1,-7.08266e-18,6.63399e-18,1,-156.967,109.993)">
                <g transform="matrix(44.4444,0,0,44.4444,941.36,2466.72)">
                    <path d="M0.71,-0.662L0.71,-0.644C0.687,-0.64 0.669,-0.632 0.657,-0.622C0.639,-0.606 0.624,-0.581 0.611,-0.548L0.38,0.015L0.362,0.015L0.114,-0.556C0.101,-0.585 0.092,-0.603 0.087,-0.609C0.079,-0.619 0.069,-0.627 0.057,-0.633C0.045,-0.639 0.029,-0.642 0.009,-0.644L0.009,-0.662L0.279,-0.662L0.279,-0.644C0.249,-0.641 0.229,-0.636 0.22,-0.628C0.211,-0.621 0.206,-0.611 0.206,-0.6C0.206,-0.583 0.214,-0.558 0.229,-0.523L0.397,-0.135L0.553,-0.519C0.569,-0.556 0.576,-0.583 0.576,-0.597C0.576,-0.607 0.571,-0.616 0.562,-0.624C0.553,-0.633 0.537,-0.639 0.514,-0.643C0.513,-0.643 0.51,-0.643 0.506,-0.644L0.506,-0.662L0.71,-0.662Z" style="fill:rgb(12,162,218);fill-rule:nonzero;"/>
                </g>
                <g transform="matrix(44.4444,0,0,44.4444,983.764,2466.72)">
                    <path d="M0.311,0.196L0.311,0.214C0.261,0.189 0.22,0.16 0.188,0.127C0.141,0.08 0.104,0.024 0.079,-0.04C0.054,-0.104 0.041,-0.171 0.041,-0.24C0.041,-0.341 0.066,-0.433 0.116,-0.516C0.166,-0.599 0.23,-0.659 0.311,-0.694L0.311,-0.674C0.271,-0.652 0.238,-0.621 0.212,-0.583C0.186,-0.545 0.167,-0.496 0.154,-0.437C0.142,-0.378 0.135,-0.317 0.135,-0.252C0.135,-0.183 0.141,-0.119 0.151,-0.063C0.16,-0.018 0.17,0.018 0.182,0.046C0.194,0.073 0.21,0.099 0.231,0.124C0.251,0.149 0.278,0.173 0.311,0.196Z" style="fill:rgb(12,162,218);fill-rule:nonzero;"/>
                </g>
                <g transform="matrix(44.4444,0,0,44.4444,998.565,2466.72)">
                    <path d="M0.008,-0.447L0.219,-0.447L0.219,-0.429L0.205,-0.429C0.192,-0.429 0.183,-0.426 0.176,-0.42C0.169,-0.414 0.166,-0.405 0.166,-0.395C0.166,-0.384 0.169,-0.37 0.176,-0.354L0.28,-0.107L0.385,-0.364C0.392,-0.382 0.396,-0.396 0.396,-0.405C0.396,-0.41 0.395,-0.414 0.392,-0.417C0.389,-0.421 0.384,-0.425 0.378,-0.427C0.373,-0.428 0.362,-0.429 0.345,-0.429L0.345,-0.447L0.491,-0.447L0.491,-0.429C0.474,-0.428 0.462,-0.424 0.456,-0.419C0.444,-0.409 0.434,-0.393 0.425,-0.37L0.266,0.014L0.246,0.014L0.086,-0.364C0.079,-0.381 0.072,-0.394 0.066,-0.402C0.059,-0.409 0.051,-0.416 0.041,-0.421C0.035,-0.424 0.025,-0.427 0.008,-0.429L0.008,-0.447Z" style="fill:rgb(12,162,218);fill-rule:nonzero;"/>
                </g>
                <g transform="matrix(44.4444,0,0,44.4444,1020.79,2466.72)">
                    <path d="M0.106,-0.279C0.106,-0.212 0.122,-0.16 0.155,-0.123C0.187,-0.085 0.226,-0.066 0.27,-0.066C0.299,-0.066 0.324,-0.074 0.346,-0.09C0.368,-0.106 0.386,-0.134 0.4,-0.173L0.416,-0.163C0.409,-0.118 0.389,-0.078 0.356,-0.041C0.323,-0.005 0.282,0.014 0.232,0.014C0.179,0.014 0.133,-0.007 0.094,-0.049C0.056,-0.091 0.037,-0.147 0.037,-0.218C0.037,-0.294 0.057,-0.354 0.096,-0.397C0.135,-0.44 0.184,-0.461 0.244,-0.461C0.294,-0.461 0.335,-0.444 0.367,-0.411C0.399,-0.378 0.416,-0.334 0.416,-0.279L0.106,-0.279ZM0.106,-0.307L0.313,-0.307C0.312,-0.336 0.308,-0.356 0.303,-0.368C0.295,-0.386 0.283,-0.4 0.267,-0.411C0.251,-0.421 0.234,-0.426 0.216,-0.426C0.189,-0.426 0.165,-0.416 0.144,-0.395C0.122,-0.374 0.11,-0.345 0.106,-0.307Z" style="fill:rgb(12,162,218);fill-rule:nonzero;"/>
                </g>
                <g transform="matrix(44.4444,0,0,44.4444,1040.51,2466.72)">
                    <path d="M0.162,-0.46L0.162,-0.36C0.2,-0.427 0.238,-0.46 0.277,-0.46C0.295,-0.46 0.31,-0.455 0.322,-0.444C0.333,-0.433 0.339,-0.421 0.339,-0.406C0.339,-0.394 0.335,-0.383 0.327,-0.374C0.318,-0.365 0.308,-0.361 0.296,-0.361C0.285,-0.361 0.272,-0.366 0.258,-0.378C0.244,-0.389 0.233,-0.395 0.227,-0.395C0.221,-0.395 0.214,-0.391 0.208,-0.385C0.193,-0.371 0.178,-0.349 0.162,-0.319L0.162,-0.104C0.162,-0.08 0.165,-0.061 0.171,-0.048C0.176,-0.04 0.183,-0.032 0.194,-0.026C0.205,-0.021 0.22,-0.018 0.24,-0.018L0.24,-0L0.011,-0L0.011,-0.018C0.034,-0.018 0.051,-0.021 0.062,-0.028C0.07,-0.034 0.076,-0.042 0.079,-0.053C0.081,-0.059 0.082,-0.075 0.082,-0.101L0.082,-0.274C0.082,-0.326 0.08,-0.357 0.078,-0.367C0.076,-0.377 0.072,-0.384 0.067,-0.389C0.061,-0.393 0.054,-0.396 0.045,-0.396C0.035,-0.396 0.024,-0.393 0.011,-0.388L0.006,-0.406L0.142,-0.46L0.162,-0.46Z" style="fill:rgb(12,162,218);fill-rule:nonzero;"/>
                </g>
                <g transform="matrix(44.4444,0,0,44.4444,1055.31,2466.72)">
                    <path d="M0.161,-0.594L0.161,-0.447L0.266,-0.447L0.266,-0.413L0.161,-0.413L0.161,-0.123C0.161,-0.094 0.165,-0.075 0.174,-0.064C0.182,-0.054 0.193,-0.049 0.206,-0.049C0.216,-0.049 0.227,-0.053 0.237,-0.059C0.247,-0.066 0.255,-0.076 0.26,-0.089L0.279,-0.089C0.268,-0.057 0.252,-0.033 0.231,-0.017C0.21,-0.001 0.189,0.007 0.167,0.007C0.152,0.007 0.137,0.003 0.123,-0.005C0.108,-0.013 0.098,-0.025 0.091,-0.041C0.084,-0.056 0.081,-0.08 0.081,-0.112L0.081,-0.413L0.01,-0.413L0.01,-0.429C0.028,-0.436 0.046,-0.448 0.065,-0.466C0.083,-0.483 0.1,-0.503 0.115,-0.526C0.122,-0.539 0.133,-0.561 0.146,-0.594L0.161,-0.594Z" style="fill:rgb(12,162,218);fill-rule:nonzero;"/>
                </g>
                <g transform="matrix(44.4444,0,0,44.4444,1067.66,2466.72)">
                    <path d="M0.106,-0.279C0.106,-0.212 0.122,-0.16 0.155,-0.123C0.187,-0.085 0.226,-0.066 0.27,-0.066C0.299,-0.066 0.324,-0.074 0.346,-0.09C0.368,-0.106 0.386,-0.134 0.4,-0.173L0.416,-0.163C0.409,-0.118 0.389,-0.078 0.356,-0.041C0.323,-0.005 0.282,0.014 0.232,0.014C0.179,0.014 0.133,-0.007 0.094,-0.049C0.056,-0.091 0.037,-0.147 0.037,-0.218C0.037,-0.294 0.057,-0.354 0.096,-0.397C0.135,-0.44 0.184,-0.461 0.244,-0.461C0.294,-0.461 0.335,-0.444 0.367,-0.411C0.399,-0.378 0.416,-0.334 0.416,-0.279L0.106,-0.279ZM0.106,-0.307L0.313,-0.307C0.312,-0.336 0.308,-0.356 0.303,-0.368C0.295,-0.386 0.283,-0.4 0.267,-0.411C0.251,-0.421 0.234,-0.426 0.216,-0.426C0.189,-0.426 0.165,-0.416 0.144,-0.395C0.122,-0.374 0.11,-0.345 0.106,-0.307Z" style="fill:rgb(12,162,218);fill-rule:nonzero;"/>
                </g>
                <g transform="matrix(44.4444,0,0,44.4444,1087.39,2466.72)">
                    <path d="M0.013,-0.447L0.224,-0.447L0.224,-0.429C0.21,-0.429 0.201,-0.427 0.196,-0.422C0.19,-0.418 0.188,-0.412 0.188,-0.404C0.188,-0.396 0.193,-0.384 0.205,-0.368C0.208,-0.363 0.214,-0.355 0.221,-0.344L0.252,-0.293L0.289,-0.344C0.313,-0.376 0.324,-0.396 0.324,-0.405C0.324,-0.412 0.321,-0.417 0.316,-0.422C0.31,-0.427 0.301,-0.429 0.289,-0.429L0.289,-0.447L0.44,-0.447L0.44,-0.429C0.424,-0.428 0.411,-0.424 0.399,-0.416C0.383,-0.405 0.361,-0.381 0.333,-0.344L0.272,-0.262L0.384,-0.102C0.411,-0.063 0.431,-0.039 0.442,-0.031C0.454,-0.023 0.469,-0.019 0.488,-0.018L0.488,-0L0.277,-0L0.277,-0.018C0.292,-0.018 0.303,-0.021 0.311,-0.027C0.317,-0.032 0.32,-0.038 0.32,-0.045C0.32,-0.053 0.31,-0.072 0.289,-0.102L0.224,-0.198L0.152,-0.102C0.13,-0.072 0.119,-0.055 0.119,-0.049C0.119,-0.042 0.122,-0.034 0.13,-0.028C0.137,-0.022 0.148,-0.018 0.163,-0.018L0.163,-0L0.017,-0L0.017,-0.018C0.028,-0.019 0.039,-0.023 0.047,-0.03C0.06,-0.039 0.081,-0.063 0.11,-0.102L0.204,-0.227L0.119,-0.35C0.095,-0.385 0.076,-0.407 0.063,-0.416C0.05,-0.425 0.033,-0.429 0.013,-0.429L0.013,-0.447Z" style="fill:rgb(12,162,218);fill-rule:nonzero;"/>
                </g>
                <g transform="matrix(44.4444,0,0,44.4444,1109.61,2466.72)">
                    <path d="M0.022,-0.674L0.022,-0.694C0.072,-0.67 0.113,-0.641 0.146,-0.608C0.193,-0.56 0.229,-0.505 0.254,-0.441C0.279,-0.377 0.292,-0.31 0.292,-0.241C0.292,-0.14 0.267,-0.048 0.218,0.035C0.168,0.119 0.103,0.178 0.022,0.214L0.022,0.196C0.063,0.173 0.095,0.143 0.121,0.105C0.147,0.066 0.166,0.018 0.179,-0.041C0.191,-0.1 0.198,-0.162 0.198,-0.226C0.198,-0.295 0.192,-0.359 0.182,-0.416C0.174,-0.461 0.163,-0.497 0.151,-0.524C0.139,-0.551 0.123,-0.577 0.103,-0.602C0.082,-0.627 0.056,-0.651 0.022,-0.674Z" style="fill:rgb(12,162,218);fill-rule:nonzero;"/>
                </g>
            </g>
            <g transform="matrix(1,-7.08266e-18,6.63399e-18,1,23.5452,303.47)">
                <g transform="matrix(44.4444,0,0,44.4444,941.36,2466.72)">
                    <path d="M0.205,-0.626L0.205,-0.366L0.325,-0.366C0.353,-0.366 0.373,-0.372 0.386,-0.384C0.399,-0.396 0.407,-0.42 0.412,-0.457L0.43,-0.457L0.43,-0.232L0.412,-0.232C0.411,-0.258 0.408,-0.277 0.402,-0.289C0.395,-0.301 0.386,-0.31 0.375,-0.316C0.364,-0.322 0.347,-0.325 0.325,-0.325L0.205,-0.325L0.205,-0.117C0.205,-0.084 0.207,-0.062 0.211,-0.051C0.214,-0.043 0.221,-0.036 0.231,-0.03C0.246,-0.022 0.261,-0.018 0.276,-0.018L0.3,-0.018L0.3,-0L0.016,-0L0.016,-0.018L0.04,-0.018C0.067,-0.018 0.087,-0.026 0.099,-0.042C0.107,-0.052 0.111,-0.077 0.111,-0.117L0.111,-0.545C0.111,-0.578 0.109,-0.601 0.104,-0.611C0.101,-0.619 0.095,-0.626 0.084,-0.632C0.07,-0.64 0.056,-0.644 0.04,-0.644L0.016,-0.644L0.016,-0.662L0.509,-0.662L0.515,-0.517L0.498,-0.517C0.49,-0.548 0.48,-0.57 0.469,-0.585C0.457,-0.599 0.443,-0.61 0.427,-0.616C0.411,-0.623 0.385,-0.626 0.351,-0.626L0.205,-0.626Z" style="fill:rgb(89,89,89);fill-rule:nonzero;"/>
                </g>
                <g transform="matrix(44.4444,0,0,44.4444,977.189,2466.72)">
                    <path d="M0.311,0.196L0.311,0.214C0.261,0.189 0.22,0.16 0.188,0.127C0.141,0.08 0.104,0.024 0.079,-0.04C0.054,-0.104 0.041,-0.171 0.041,-0.24C0.041,-0.341 0.066,-0.433 0.116,-0.516C0.166,-0.599 0.23,-0.659 0.311,-0.694L0.311,-0.674C0.271,-0.652 0.238,-0.621 0.212,-0.583C0.186,-0.545 0.167,-0.496 0.154,-0.437C0.142,-0.378 0.135,-0.317 0.135,-0.252C0.135,-0.183 0.141,-0.119 0.151,-0.063C0.16,-0.018 0.17,0.018 0.182,0.046C0.194,0.073 0.21,0.099 0.231,0.124C0.251,0.149 0.278,0.173 0.311,0.196Z" style="fill:rgb(89,89,89);fill-rule:nonzero;"/>
                </g>
                <g transform="matrix(44.4444,0,0,44.4444,991.989,2466.72)">
                    <path d="M0.206,-0.412L0.206,-0.118C0.206,-0.076 0.211,-0.05 0.22,-0.039C0.232,-0.025 0.248,-0.018 0.268,-0.018L0.309,-0.018L0.309,-0L0.042,-0L0.042,-0.018L0.062,-0.018C0.075,-0.018 0.086,-0.021 0.097,-0.027C0.108,-0.034 0.115,-0.043 0.119,-0.054C0.123,-0.065 0.125,-0.086 0.125,-0.118L0.125,-0.412L0.039,-0.412L0.039,-0.447L0.125,-0.447L0.125,-0.477C0.125,-0.521 0.133,-0.559 0.147,-0.59C0.161,-0.621 0.183,-0.646 0.213,-0.665C0.242,-0.684 0.275,-0.693 0.312,-0.693C0.346,-0.693 0.378,-0.682 0.406,-0.66C0.425,-0.646 0.435,-0.629 0.435,-0.611C0.435,-0.601 0.43,-0.592 0.422,-0.583C0.413,-0.575 0.404,-0.57 0.395,-0.57C0.387,-0.57 0.379,-0.573 0.371,-0.578C0.363,-0.584 0.352,-0.595 0.34,-0.613C0.328,-0.631 0.317,-0.643 0.307,-0.649C0.297,-0.655 0.286,-0.658 0.273,-0.658C0.258,-0.658 0.246,-0.654 0.235,-0.646C0.225,-0.638 0.217,-0.626 0.213,-0.609C0.208,-0.592 0.206,-0.549 0.206,-0.479L0.206,-0.447L0.321,-0.447L0.321,-0.412L0.206,-0.412Z" style="fill:rgb(89,89,89);fill-rule:nonzero;"/>
                </g>
                <g transform="matrix(44.4444,0,0,44.4444,1006.79,2466.72)">
                    <path d="M0.285,-0.064C0.239,-0.029 0.21,-0.008 0.198,-0.003C0.181,0.005 0.162,0.009 0.142,0.009C0.111,0.009 0.086,-0.001 0.066,-0.022C0.046,-0.044 0.036,-0.071 0.036,-0.106C0.036,-0.128 0.041,-0.147 0.05,-0.163C0.064,-0.185 0.087,-0.206 0.12,-0.225C0.153,-0.245 0.208,-0.268 0.285,-0.296L0.285,-0.314C0.285,-0.359 0.278,-0.389 0.263,-0.406C0.249,-0.422 0.229,-0.431 0.202,-0.431C0.181,-0.431 0.165,-0.425 0.153,-0.414C0.14,-0.403 0.134,-0.39 0.134,-0.376L0.135,-0.348C0.135,-0.333 0.131,-0.321 0.124,-0.313C0.116,-0.305 0.106,-0.301 0.094,-0.301C0.082,-0.301 0.072,-0.305 0.064,-0.313C0.057,-0.322 0.053,-0.333 0.053,-0.348C0.053,-0.376 0.067,-0.402 0.096,-0.425C0.124,-0.449 0.165,-0.46 0.216,-0.46C0.256,-0.46 0.289,-0.454 0.314,-0.44C0.333,-0.43 0.347,-0.415 0.356,-0.393C0.362,-0.379 0.365,-0.35 0.365,-0.307L0.365,-0.155C0.365,-0.113 0.366,-0.087 0.368,-0.077C0.369,-0.067 0.372,-0.061 0.376,-0.058C0.379,-0.054 0.384,-0.053 0.389,-0.053C0.394,-0.053 0.398,-0.054 0.402,-0.056C0.409,-0.06 0.422,-0.072 0.442,-0.092L0.442,-0.064C0.405,-0.016 0.371,0.009 0.337,0.009C0.321,0.009 0.309,0.003 0.299,-0.008C0.29,-0.019 0.285,-0.038 0.285,-0.064ZM0.285,-0.096L0.285,-0.267C0.236,-0.247 0.204,-0.233 0.189,-0.225C0.164,-0.211 0.145,-0.196 0.134,-0.18C0.123,-0.165 0.118,-0.147 0.118,-0.129C0.118,-0.105 0.125,-0.086 0.139,-0.071C0.153,-0.055 0.169,-0.047 0.187,-0.047C0.212,-0.047 0.244,-0.064 0.285,-0.096Z" style="fill:rgb(89,89,89);fill-rule:nonzero;"/>
                </g>
                <g transform="matrix(44.4444,0,0,44.4444,1026.52,2466.72)">
                    <path d="M0.411,-0.17C0.399,-0.111 0.375,-0.066 0.34,-0.034C0.305,-0.002 0.266,0.014 0.224,0.014C0.173,0.014 0.129,-0.008 0.091,-0.05C0.053,-0.093 0.034,-0.151 0.034,-0.223C0.034,-0.293 0.055,-0.351 0.097,-0.395C0.139,-0.438 0.189,-0.46 0.248,-0.46C0.292,-0.46 0.328,-0.449 0.356,-0.426C0.384,-0.402 0.398,-0.378 0.398,-0.353C0.398,-0.341 0.394,-0.331 0.386,-0.323C0.378,-0.315 0.367,-0.312 0.353,-0.312C0.334,-0.312 0.319,-0.318 0.31,-0.33C0.304,-0.337 0.3,-0.35 0.299,-0.369C0.297,-0.388 0.29,-0.403 0.279,-0.413C0.267,-0.423 0.252,-0.428 0.231,-0.428C0.199,-0.428 0.173,-0.416 0.153,-0.392C0.126,-0.36 0.113,-0.318 0.113,-0.265C0.113,-0.212 0.126,-0.165 0.153,-0.124C0.179,-0.083 0.214,-0.063 0.259,-0.063C0.291,-0.063 0.319,-0.073 0.345,-0.095C0.363,-0.11 0.38,-0.137 0.397,-0.177L0.411,-0.17Z" style="fill:rgb(89,89,89);fill-rule:nonzero;"/>
                </g>
                <g transform="matrix(44.4444,0,0,44.4444,1046.24,2466.72)">
                    <path d="M0.106,-0.279C0.106,-0.212 0.122,-0.16 0.155,-0.123C0.187,-0.085 0.226,-0.066 0.27,-0.066C0.299,-0.066 0.324,-0.074 0.346,-0.09C0.368,-0.106 0.386,-0.134 0.4,-0.173L0.416,-0.163C0.409,-0.118 0.389,-0.078 0.356,-0.041C0.323,-0.005 0.282,0.014 0.232,0.014C0.179,0.014 0.133,-0.007 0.094,-0.049C0.056,-0.091 0.037,-0.147 0.037,-0.218C0.037,-0.294 0.057,-0.354 0.096,-0.397C0.135,-0.44 0.184,-0.461 0.244,-0.461C0.294,-0.461 0.335,-0.444 0.367,-0.411C0.399,-0.378 0.416,-0.334 0.416,-0.279L0.106,-0.279ZM0.106,-0.307L0.313,-0.307C0.312,-0.336 0.308,-0.356 0.303,-0.368C0.295,-0.386 0.283,-0.4 0.267,-0.411C0.251,-0.421 0.234,-0.426 0.216,-0.426C0.189,-0.426 0.165,-0.416 0.144,-0.395C0.122,-0.374 0.11,-0.345 0.106,-0.307Z" style="fill:rgb(89,89,89);fill-rule:nonzero;"/>
                </g>
                <g transform="matrix(44.4444,0,0,44.4444,1065.97,2466.72)">
                    <path d="M0.022,-0.674L0.022,-0.694C0.072,-0.67 0.113,-0.641 0.146,-0.608C0.193,-0.56 0.229,-0.505 0.254,-0.441C0.279,-0.377 0.292,-0.31 0.292,-0.241C0.292,-0.14 0.267,-0.048 0.218,0.035C0.168,0.119 0.103,0.178 0.022,0.214L0.022,0.196C0.063,0.173 0.095,0.143 0.121,0.105C0.147,0.066 0.166,0.018 0.179,-0.041C0.191,-0.1 0.198,-0.162 0.198,-0.226C0.198,-0.295 0.192,-0.359 0.182,-0.416C0.174,-0.461 0.163,-0.497 0.151,-0.524C0.139,-0.551 0.123,-0.577 0.103,-0.602C0.082,-0.627 0.056,-0.651 0.022,-0.674Z" style="fill:rgb(89,89,89);fill-rule:nonzero;"/>
                </g>
            </g>
            <g transform="matrix(1,-7.08266e-18,6.63399e-18,1,118.281,142.914)">
                <g transform="matrix(44.4444,0,0,44.4444,941.36,2466.72)">
                    <path d="M0.209,-0.626L0.209,-0.364L0.354,-0.364C0.392,-0.364 0.417,-0.37 0.43,-0.381C0.447,-0.396 0.457,-0.423 0.458,-0.46L0.477,-0.46L0.477,-0.23L0.458,-0.23C0.454,-0.262 0.449,-0.283 0.445,-0.292C0.439,-0.303 0.429,-0.312 0.416,-0.319C0.403,-0.325 0.382,-0.329 0.354,-0.329L0.209,-0.329L0.209,-0.11C0.209,-0.081 0.21,-0.063 0.213,-0.057C0.215,-0.051 0.22,-0.045 0.227,-0.042C0.233,-0.038 0.245,-0.036 0.264,-0.036L0.376,-0.036C0.413,-0.036 0.441,-0.039 0.458,-0.044C0.474,-0.049 0.491,-0.059 0.506,-0.075C0.527,-0.095 0.547,-0.125 0.568,-0.166L0.588,-0.166L0.531,-0L0.021,-0L0.021,-0.018L0.044,-0.018C0.06,-0.018 0.074,-0.022 0.088,-0.029C0.099,-0.035 0.106,-0.042 0.11,-0.053C0.113,-0.063 0.115,-0.084 0.115,-0.117L0.115,-0.547C0.115,-0.589 0.111,-0.615 0.103,-0.625C0.091,-0.638 0.071,-0.644 0.044,-0.644L0.021,-0.644L0.021,-0.662L0.531,-0.662L0.538,-0.517L0.519,-0.517C0.512,-0.552 0.505,-0.576 0.496,-0.589C0.488,-0.602 0.476,-0.612 0.459,-0.619C0.446,-0.624 0.424,-0.626 0.391,-0.626L0.209,-0.626Z" style="fill:rgb(243,174,27);fill-rule:nonzero;"/>
                </g>
                <g transform="matrix(44.4444,0,0,44.4444,979.619,2466.72)">
                    <path d="M0.311,0.196L0.311,0.214C0.261,0.189 0.22,0.16 0.188,0.127C0.141,0.08 0.104,0.024 0.079,-0.04C0.054,-0.104 0.041,-0.171 0.041,-0.24C0.041,-0.341 0.066,-0.433 0.116,-0.516C0.166,-0.599 0.23,-0.659 0.311,-0.694L0.311,-0.674C0.271,-0.652 0.238,-0.621 0.212,-0.583C0.186,-0.545 0.167,-0.496 0.154,-0.437C0.142,-0.378 0.135,-0.317 0.135,-0.252C0.135,-0.183 0.141,-0.119 0.151,-0.063C0.16,-0.018 0.17,0.018 0.182,0.046C0.194,0.073 0.21,0.099 0.231,0.124C0.251,0.149 0.278,0.173 0.311,0.196Z" style="fill:rgb(243,174,27);fill-rule:nonzero;"/>
                </g>
                <g transform="matrix(44.4444,0,0,44.4444,994.42,2466.72)">
                    <path d="M0.106,-0.279C0.106,-0.212 0.122,-0.16 0.155,-0.123C0.187,-0.085 0.226,-0.066 0.27,-0.066C0.299,-0.066 0.324,-0.074 0.346,-0.09C0.368,-0.106 0.386,-0.134 0.4,-0.173L0.416,-0.163C0.409,-0.118 0.389,-0.078 0.356,-0.041C0.323,-0.005 0.282,0.014 0.232,0.014C0.179,0.014 0.133,-0.007 0.094,-0.049C0.056,-0.091 0.037,-0.147 0.037,-0.218C0.037,-0.294 0.057,-0.354 0.096,-0.397C0.135,-0.44 0.184,-0.461 0.244,-0.461C0.294,-0.461 0.335,-0.444 0.367,-0.411C0.399,-0.378 0.416,-0.334 0.416,-0.279L0.106,-0.279ZM0.106,-0.307L0.313,-0.307C0.312,-0.336 0.308,-0.356 0.303,-0.368C0.295,-0.386 0.283,-0.4 0.267,-0.411C0.251,-0.421 0.234,-0.426 0.216,-0.426C0.189,-0.426 0.165,-0.416 0.144,-0.395C0.122,-0.374 0.11,-0.345 0.106,-0.307Z" style="fill:rgb(243,174,27);fill-rule:nonzero;"/>
                </g>
                <g transform="matrix(44.4444,0,0,44.4444,1014.15,2466.72)">
                    <path d="M0.347,-0.05C0.325,-0.028 0.304,-0.011 0.283,-0.001C0.262,0.009 0.24,0.014 0.216,0.014C0.167,0.014 0.124,-0.007 0.088,-0.048C0.051,-0.088 0.033,-0.141 0.033,-0.205C0.033,-0.269 0.053,-0.328 0.094,-0.381C0.134,-0.434 0.186,-0.461 0.25,-0.461C0.289,-0.461 0.321,-0.448 0.347,-0.423L0.347,-0.506C0.347,-0.557 0.346,-0.588 0.344,-0.6C0.341,-0.612 0.337,-0.62 0.332,-0.624C0.327,-0.628 0.32,-0.63 0.313,-0.63C0.304,-0.63 0.293,-0.628 0.279,-0.623L0.272,-0.64L0.406,-0.694L0.428,-0.694L0.428,-0.177C0.428,-0.125 0.429,-0.093 0.431,-0.081C0.434,-0.07 0.438,-0.062 0.443,-0.057C0.448,-0.053 0.455,-0.05 0.462,-0.05C0.471,-0.05 0.482,-0.053 0.497,-0.059L0.502,-0.042L0.37,0.014L0.347,0.014L0.347,-0.05ZM0.347,-0.084L0.347,-0.315C0.345,-0.337 0.339,-0.357 0.33,-0.375C0.32,-0.394 0.307,-0.407 0.291,-0.417C0.275,-0.426 0.259,-0.431 0.244,-0.431C0.215,-0.431 0.189,-0.418 0.167,-0.392C0.137,-0.358 0.123,-0.309 0.123,-0.244C0.123,-0.178 0.137,-0.128 0.166,-0.093C0.194,-0.058 0.226,-0.04 0.261,-0.04C0.291,-0.04 0.319,-0.055 0.347,-0.084Z" style="fill:rgb(243,174,27);fill-rule:nonzero;"/>
                </g>
                <g transform="matrix(44.4444,0,0,44.4444,1036.37,2466.72)">
                    <path d="M0.151,-0.163C0.124,-0.176 0.103,-0.195 0.088,-0.219C0.073,-0.243 0.066,-0.269 0.066,-0.298C0.066,-0.343 0.083,-0.381 0.116,-0.413C0.149,-0.444 0.192,-0.46 0.244,-0.46C0.287,-0.46 0.324,-0.45 0.355,-0.429L0.45,-0.429C0.464,-0.429 0.472,-0.429 0.474,-0.428C0.476,-0.427 0.478,-0.426 0.479,-0.424C0.481,-0.421 0.482,-0.416 0.482,-0.408C0.482,-0.4 0.481,-0.394 0.479,-0.391C0.479,-0.389 0.477,-0.388 0.474,-0.387C0.472,-0.386 0.464,-0.385 0.45,-0.385L0.392,-0.385C0.41,-0.362 0.419,-0.332 0.419,-0.295C0.419,-0.254 0.403,-0.218 0.371,-0.188C0.339,-0.159 0.296,-0.144 0.243,-0.144C0.221,-0.144 0.198,-0.147 0.175,-0.154C0.16,-0.141 0.151,-0.131 0.146,-0.121C0.141,-0.112 0.138,-0.104 0.138,-0.098C0.138,-0.092 0.141,-0.087 0.146,-0.082C0.152,-0.076 0.162,-0.073 0.178,-0.07C0.187,-0.069 0.21,-0.068 0.246,-0.067C0.313,-0.065 0.357,-0.063 0.376,-0.06C0.407,-0.056 0.431,-0.045 0.449,-0.026C0.467,-0.008 0.476,0.014 0.476,0.041C0.476,0.078 0.459,0.112 0.424,0.145C0.374,0.192 0.307,0.216 0.226,0.216C0.163,0.216 0.11,0.202 0.066,0.173C0.042,0.157 0.03,0.14 0.03,0.123C0.03,0.115 0.032,0.107 0.035,0.099C0.041,0.087 0.052,0.07 0.069,0.049C0.072,0.046 0.088,0.028 0.119,-0.004C0.102,-0.014 0.09,-0.023 0.083,-0.031C0.076,-0.039 0.073,-0.048 0.073,-0.058C0.073,-0.069 0.077,-0.083 0.087,-0.098C0.096,-0.113 0.117,-0.135 0.151,-0.163ZM0.236,-0.437C0.212,-0.437 0.192,-0.427 0.175,-0.408C0.159,-0.389 0.151,-0.36 0.151,-0.32C0.151,-0.268 0.162,-0.229 0.184,-0.2C0.201,-0.179 0.222,-0.168 0.249,-0.168C0.273,-0.168 0.294,-0.177 0.31,-0.196C0.326,-0.214 0.333,-0.243 0.333,-0.283C0.333,-0.335 0.322,-0.375 0.3,-0.405C0.283,-0.426 0.262,-0.437 0.236,-0.437ZM0.146,-0C0.131,0.017 0.119,0.032 0.111,0.046C0.104,0.061 0.1,0.074 0.1,0.086C0.1,0.102 0.109,0.115 0.128,0.127C0.16,0.147 0.208,0.157 0.269,0.157C0.328,0.157 0.371,0.147 0.399,0.126C0.427,0.106 0.44,0.083 0.44,0.06C0.44,0.043 0.432,0.031 0.416,0.024C0.399,0.017 0.365,0.013 0.315,0.011C0.242,0.009 0.185,0.006 0.146,-0Z" style="fill:rgb(243,174,27);fill-rule:nonzero;"/>
                </g>
                <g transform="matrix(44.4444,0,0,44.4444,1058.59,2466.72)">
                    <path d="M0.106,-0.279C0.106,-0.212 0.122,-0.16 0.155,-0.123C0.187,-0.085 0.226,-0.066 0.27,-0.066C0.299,-0.066 0.324,-0.074 0.346,-0.09C0.368,-0.106 0.386,-0.134 0.4,-0.173L0.416,-0.163C0.409,-0.118 0.389,-0.078 0.356,-0.041C0.323,-0.005 0.282,0.014 0.232,0.014C0.179,0.014 0.133,-0.007 0.094,-0.049C0.056,-0.091 0.037,-0.147 0.037,-0.218C0.037,-0.294 0.057,-0.354 0.096,-0.397C0.135,-0.44 0.184,-0.461 0.244,-0.461C0.294,-0.461 0.335,-0.444 0.367,-0.411C0.399,-0.378 0.416,-0.334 0.416,-0.279L0.106,-0.279ZM0.106,-0.307L0.313,-0.307C0.312,-0.336 0.308,-0.356 0.303,-0.368C0.295,-0.386 0.283,-0.4 0.267,-0.411C0.251,-0.421 0.234,-0.426 0.216,-0.426C0.189,-0.426 0.165,-0.416 0.144,-0.395C0.122,-0.374 0.11,-0.345 0.106,-0.307Z" style="fill:rgb(243,174,27);fill-rule:nonzero;"/>
                </g>
                <g transform="matrix(44.4444,0,0,44.4444,1078.32,2466.72)">
                    <path d="M0.022,-0.674L0.022,-0.694C0.072,-0.67 0.113,-0.641 0.146,-0.608C0.193,-0.56 0.229,-0.505 0.254,-0.441C0.279,-0.377 0.292,-0.31 0.292,-0.241C0.292,-0.14 0.267,-0.048 0.218,0.035C0.168,0.119 0.103,0.178 0.022,0.214L0.022,0.196C0.063,0.173 0.095,0.143 0.121,0.105C0.147,0.066 0.166,0.018 0.179,-0.041C0.191,-0.1 0.198,-0.162 0.198,-0.226C0.198,-0.295 0.192,-0.359 0.182,-0.416C0.174,-0.461 0.163,-0.497 0.151,-0.524C0.139,-0.551 0.123,-0.577 0.103,-0.602C0.082,-0.627 0.056,-0.651 0.022,-0.674Z" style="fill:rgb(243,174,27);fill-rule:nonzero;"/>
                </g>
            </g>
        </g>
    </g>
</svg>
