<?xml version="1.0" encoding="UTF-8" standalone="no"?>
<!DOCTYPE svg PUBLIC "-//W3C//DTD SVG 1.1//EN" "http://www.w3.org/Graphics/SVG/1.1/DTD/svg11.dtd">
<svg width="100%" height="100%" viewBox="0 0 917 657" version="1.1" xmlns="http://www.w3.org/2000/svg" xmlns:xlink="http://www.w3.org/1999/xlink" xml:space="preserve" xmlns:serif="http://www.serif.com/" style="fill-rule:evenodd;clip-rule:evenodd;stroke-miterlimit:1.5;">
    <g transform="matrix(1,0,0,1,-548.225,-2528.48)">
        <g transform="matrix(1.07713,0,0,1.07713,-135.817,-203.515)">
            <g id="Trimesh" transform="matrix(1.29076,0,0,1.27963,-261.178,-639.346)">
                <g transform="matrix(0.974707,7.79108e-18,-1.9404e-18,1,82.2786,-23)">
                    <path d="M738,2562L1196,2589L924.893,2891.85L738,2562" style="fill:rgb(242,242,242);"/>
                </g>
                <g transform="matrix(2.46352,-0.335742,-0.335742,2.02904,-1540.43,497.375)">
                    <path d="M1097,1160.4L1223,1392" style="fill:none;stroke:rgb(35,31,32);stroke-width:1.04px;"/>
                </g>
                <g id="he">
                    <g id="he3" transform="matrix(2.2508,-0.726744,-0.699216,1.36094,-803.014,1809.57)">
                        <path d="M1097,1160.4L1223,1392" style="fill:none;"/>
                        <g transform="matrix(0.383114,0.204584,0.198546,0.639125,981.516,1018.04)">
                            <path d="M390.713,422.352L392.138,459.593L361.49,438.388C372.805,441.685 387.416,433.667 390.713,422.352Z" style="fill:rgb(242,175,13);"/>
                            <path d="M222.991,151.363C222.991,151.363 339.858,364.326 379.309,436.215" style="fill:none;stroke:rgb(242,175,13);stroke-width:5.56px;"/>
                        </g>
                    </g>
                    <g id="he2" transform="matrix(1.12123,0.303316,0.299199,1.04568,-711.254,975.405)">
                        <path d="M1376,1164.57L1146,1427" style="fill:none;"/>
                        <g transform="matrix(0.695313,-0.201687,-0.200679,0.752035,942.145,1167.25)">
                            <path d="M665.612,213.524L675.203,177.511L640.638,191.446C652.401,190.722 664.888,201.761 665.612,213.524Z" style="fill:rgb(242,175,13);"/>
                            <path d="M657.541,197.49C600.645,261.849 425.83,459.593 425.83,459.593" style="fill:none;stroke:rgb(242,175,13);stroke-width:5.56px;"/>
                        </g>
                    </g>
                    <g id="he1" transform="matrix(0.62069,-0.0427797,-0.0422961,1.29364,365.486,1043.33)">
                        <path d="M1376,1235L918,1206" style="fill:none;"/>
                        <g transform="matrix(1.16143,0.0384077,0.0383037,0.562102,606.976,1131.99)">
                            <path d="M296.271,132.345L264.047,113.622L298.359,99.077C289.52,106.872 288.476,123.506 296.271,132.345Z" style="fill:rgb(242,175,13);"/>
                            <path d="M657.575,138.325C657.575,138.325 379.097,120.844 290.662,115.293" style="fill:none;stroke:rgb(242,175,13);stroke-width:5.56px;"/>
                        </g>
                    </g>
                    <g transform="matrix(0.61521,-0.128598,-0.1238,2.63833,473.684,-541.43)">
                        <path d="M1376,1235L918,1206" style="fill:rgb(230,26,26);"/>
                        <g transform="matrix(1.18071,0.0575506,0.055885,0.277715,595.108,1174.87)">
                            <path d="M623.263,94.785L657.575,80.24L625.351,61.518C633.146,70.357 632.102,86.991 623.263,94.785Z" style="fill:rgb(172,35,47);"/>
                            <path d="M630.96,78.569C602.861,76.805 270.823,55.962 270.823,55.962" style="fill:none;stroke:rgb(172,35,47);stroke-width:5.56px;"/>
                        </g>
                    </g>
                </g>
                <g transform="matrix(2.22814,0.476972,0.476972,2.10195,-2327.11,-589.915)">
                    <path d="M1376,1164.57L1146,1427" style="fill:none;stroke:rgb(35,31,32);stroke-width:0.76px;"/>
                </g>
                <g transform="matrix(1.43583,-0.0766374,-0.0766374,2.64132,-529.515,-583.558)">
                    <path d="M1376,1235L918,1206" style="fill:none;stroke:rgb(35,31,32);stroke-width:0.98px;"/>
                </g>
            </g>
            <g transform="matrix(1.43325,0,0,1.43325,-1129.32,-1219.29)">
                <circle cx="1323.87" cy="2671.5" r="22.5" style="fill:rgb(13,202,242);"/>
            </g>
            <g transform="matrix(1.43325,0,0,1.43325,-893.529,-797.21)">
                <circle cx="1323.87" cy="2671.5" r="22.5"/>
            </g>
            <g transform="matrix(1.43325,0,0,1.43325,-548.167,-1188.06)">
                <circle cx="1323.87" cy="2671.5" r="22.5"/>
            </g>
            <g transform="matrix(1.43325,0,0,1.43325,-1129.32,-1219.29)">
                <circle cx="1323.87" cy="2671.5" r="22.5" style="fill:rgb(12,162,218);"/>
            </g>
            <g transform="matrix(0.998135,0.0610485,-0.0610485,0.998135,231.208,180.71)">
                <g transform="matrix(44.4444,0,0,44.4444,941.36,2466.72)">
                    <path d="M0.163,-0.694L0.163,-0.367C0.199,-0.407 0.227,-0.432 0.249,-0.444C0.27,-0.455 0.291,-0.46 0.312,-0.46C0.337,-0.46 0.359,-0.453 0.377,-0.439C0.396,-0.425 0.409,-0.403 0.418,-0.374C0.424,-0.353 0.427,-0.315 0.427,-0.259L0.427,-0.101C0.427,-0.073 0.43,-0.053 0.434,-0.043C0.437,-0.035 0.443,-0.029 0.451,-0.024C0.458,-0.02 0.473,-0.018 0.494,-0.018L0.494,-0L0.274,-0L0.274,-0.018L0.284,-0.018C0.305,-0.018 0.319,-0.021 0.328,-0.027C0.336,-0.033 0.341,-0.043 0.345,-0.055C0.346,-0.06 0.346,-0.076 0.346,-0.101L0.346,-0.259C0.346,-0.308 0.344,-0.34 0.339,-0.355C0.334,-0.371 0.326,-0.382 0.314,-0.39C0.303,-0.398 0.29,-0.401 0.274,-0.401C0.258,-0.401 0.242,-0.397 0.225,-0.389C0.207,-0.38 0.187,-0.363 0.163,-0.337L0.163,-0.101C0.163,-0.07 0.164,-0.051 0.168,-0.044C0.171,-0.036 0.177,-0.03 0.187,-0.025C0.196,-0.02 0.212,-0.018 0.235,-0.018L0.235,-0L0.013,-0L0.013,-0.018C0.033,-0.018 0.049,-0.021 0.06,-0.027C0.067,-0.03 0.072,-0.036 0.076,-0.045C0.08,-0.055 0.082,-0.073 0.082,-0.101L0.082,-0.506C0.082,-0.557 0.08,-0.588 0.078,-0.6C0.075,-0.612 0.072,-0.62 0.067,-0.624C0.062,-0.628 0.055,-0.63 0.046,-0.63C0.04,-0.63 0.028,-0.628 0.013,-0.623L0.006,-0.64L0.14,-0.694L0.163,-0.694Z" style="fill:rgb(243,174,27);fill-rule:nonzero;"/>
                </g>
                <g transform="matrix(44.4444,0,0,44.4444,963.582,2466.72)">
                    <path d="M0.106,-0.279C0.106,-0.212 0.122,-0.16 0.155,-0.123C0.187,-0.085 0.226,-0.066 0.27,-0.066C0.299,-0.066 0.324,-0.074 0.346,-0.09C0.368,-0.106 0.386,-0.134 0.4,-0.173L0.416,-0.163C0.409,-0.118 0.389,-0.078 0.356,-0.041C0.323,-0.005 0.282,0.014 0.232,0.014C0.179,0.014 0.133,-0.007 0.094,-0.049C0.056,-0.091 0.037,-0.147 0.037,-0.218C0.037,-0.294 0.057,-0.354 0.096,-0.397C0.135,-0.44 0.184,-0.461 0.244,-0.461C0.294,-0.461 0.335,-0.444 0.367,-0.411C0.399,-0.378 0.416,-0.334 0.416,-0.279L0.106,-0.279ZM0.106,-0.307L0.313,-0.307C0.312,-0.336 0.308,-0.356 0.303,-0.368C0.295,-0.386 0.283,-0.4 0.267,-0.411C0.251,-0.421 0.234,-0.426 0.216,-0.426C0.189,-0.426 0.165,-0.416 0.144,-0.395C0.122,-0.374 0.11,-0.345 0.106,-0.307Z" style="fill:rgb(243,174,27);fill-rule:nonzero;"/>
                </g>
            </g>
            <g transform="matrix(1,-7.08266e-18,6.63399e-18,1,-156.967,109.993)">
                <g transform="matrix(44.4444,0,0,44.4444,941.36,2466.72)">
                    <path d="M0.71,-0.662L0.71,-0.644C0.687,-0.64 0.669,-0.632 0.657,-0.622C0.639,-0.606 0.624,-0.581 0.611,-0.548L0.38,0.015L0.362,0.015L0.114,-0.556C0.101,-0.585 0.092,-0.603 0.087,-0.609C0.079,-0.619 0.069,-0.627 0.057,-0.633C0.045,-0.639 0.029,-0.642 0.009,-0.644L0.009,-0.662L0.279,-0.662L0.279,-0.644C0.249,-0.641 0.229,-0.636 0.22,-0.628C0.211,-0.621 0.206,-0.611 0.206,-0.6C0.206,-0.583 0.214,-0.558 0.229,-0.523L0.397,-0.135L0.553,-0.519C0.569,-0.556 0.576,-0.583 0.576,-0.597C0.576,-0.607 0.571,-0.616 0.562,-0.624C0.553,-0.633 0.537,-0.639 0.514,-0.643C0.513,-0.643 0.51,-0.643 0.506,-0.644L0.506,-0.662L0.71,-0.662Z" style="fill:rgb(12,162,218);fill-rule:nonzero;"/>
                </g>
            </g>
            <g transform="matrix(1,-7.08266e-18,6.63399e-18,1,193.26,251.042)">
                <g transform="matrix(44.4444,0,0,44.4444,941.36,2466.72)">
                    <path d="M0.205,-0.626L0.205,-0.366L0.325,-0.366C0.353,-0.366 0.373,-0.372 0.386,-0.384C0.399,-0.396 0.407,-0.42 0.412,-0.457L0.43,-0.457L0.43,-0.232L0.412,-0.232C0.411,-0.258 0.408,-0.277 0.402,-0.289C0.395,-0.301 0.386,-0.31 0.375,-0.316C0.364,-0.322 0.347,-0.325 0.325,-0.325L0.205,-0.325L0.205,-0.117C0.205,-0.084 0.207,-0.062 0.211,-0.051C0.214,-0.043 0.221,-0.036 0.231,-0.03C0.246,-0.022 0.261,-0.018 0.276,-0.018L0.3,-0.018L0.3,-0L0.016,-0L0.016,-0.018L0.04,-0.018C0.067,-0.018 0.087,-0.026 0.099,-0.042C0.107,-0.052 0.111,-0.077 0.111,-0.117L0.111,-0.545C0.111,-0.578 0.109,-0.601 0.104,-0.611C0.101,-0.619 0.095,-0.626 0.084,-0.632C0.07,-0.64 0.056,-0.644 0.04,-0.644L0.016,-0.644L0.016,-0.662L0.509,-0.662L0.515,-0.517L0.498,-0.517C0.49,-0.548 0.48,-0.57 0.469,-0.585C0.457,-0.599 0.443,-0.61 0.427,-0.616C0.411,-0.623 0.385,-0.626 0.351,-0.626L0.205,-0.626Z" style="fill:rgb(89,89,89);fill-rule:nonzero;"/>
                </g>
            </g>
            <g transform="matrix(0.669131,-0.743145,0.743145,0.669131,-1381.82,1924.96)">
                <g transform="matrix(44.4444,0,0,44.4444,941.36,2466.72)">
                    <path d="M0.163,-0.694L0.163,-0.367C0.199,-0.407 0.227,-0.432 0.249,-0.444C0.27,-0.455 0.291,-0.46 0.312,-0.46C0.337,-0.46 0.359,-0.453 0.377,-0.439C0.396,-0.425 0.409,-0.403 0.418,-0.374C0.424,-0.353 0.427,-0.315 0.427,-0.259L0.427,-0.101C0.427,-0.073 0.43,-0.053 0.434,-0.043C0.437,-0.035 0.443,-0.029 0.451,-0.024C0.458,-0.02 0.473,-0.018 0.494,-0.018L0.494,-0L0.274,-0L0.274,-0.018L0.284,-0.018C0.305,-0.018 0.319,-0.021 0.328,-0.027C0.336,-0.033 0.341,-0.043 0.345,-0.055C0.346,-0.06 0.346,-0.076 0.346,-0.101L0.346,-0.259C0.346,-0.308 0.344,-0.34 0.339,-0.355C0.334,-0.371 0.326,-0.382 0.314,-0.39C0.303,-0.398 0.29,-0.401 0.274,-0.401C0.258,-0.401 0.242,-0.397 0.225,-0.389C0.207,-0.38 0.187,-0.363 0.163,-0.337L0.163,-0.101C0.163,-0.07 0.164,-0.051 0.168,-0.044C0.171,-0.036 0.177,-0.03 0.187,-0.025C0.196,-0.02 0.212,-0.018 0.235,-0.018L0.235,-0L0.013,-0L0.013,-0.018C0.033,-0.018 0.049,-0.021 0.06,-0.027C0.067,-0.03 0.072,-0.036 0.076,-0.045C0.08,-0.055 0.082,-0.073 0.082,-0.101L0.082,-0.506C0.082,-0.557 0.08,-0.588 0.078,-0.6C0.075,-0.612 0.072,-0.62 0.067,-0.624C0.062,-0.628 0.055,-0.63 0.046,-0.63C0.04,-0.63 0.028,-0.628 0.013,-0.623L0.006,-0.64L0.14,-0.694L0.163,-0.694Z" style="fill:rgb(243,174,27);fill-rule:nonzero;"/>
                </g>
                <g transform="matrix(44.4444,0,0,44.4444,963.582,2466.72)">
                    <path d="M0.106,-0.279C0.106,-0.212 0.122,-0.16 0.155,-0.123C0.187,-0.085 0.226,-0.066 0.27,-0.066C0.299,-0.066 0.324,-0.074 0.346,-0.09C0.368,-0.106 0.386,-0.134 0.4,-0.173L0.416,-0.163C0.409,-0.118 0.389,-0.078 0.356,-0.041C0.323,-0.005 0.282,0.014 0.232,0.014C0.179,0.014 0.133,-0.007 0.094,-0.049C0.056,-0.091 0.037,-0.147 0.037,-0.218C0.037,-0.294 0.057,-0.354 0.096,-0.397C0.135,-0.44 0.184,-0.461 0.244,-0.461C0.294,-0.461 0.335,-0.444 0.367,-0.411C0.399,-0.378 0.416,-0.334 0.416,-0.279L0.106,-0.279ZM0.106,-0.307L0.313,-0.307C0.312,-0.336 0.308,-0.356 0.303,-0.368C0.295,-0.386 0.283,-0.4 0.267,-0.411C0.251,-0.421 0.234,-0.426 0.216,-0.426C0.189,-0.426 0.165,-0.416 0.144,-0.395C0.122,-0.374 0.11,-0.345 0.106,-0.307Z" style="fill:rgb(243,174,27);fill-rule:nonzero;"/>
                </g>
                <g transform="matrix(44.4444,0,0,44.4444,983.309,2466.72)">
                    <path d="M0.125,-0.095C0.14,-0.095 0.153,-0.089 0.164,-0.079C0.174,-0.068 0.179,-0.056 0.179,-0.041C0.179,-0.026 0.174,-0.013 0.163,-0.002C0.153,0.008 0.14,0.014 0.125,0.014C0.11,0.014 0.097,0.008 0.087,-0.002C0.076,-0.013 0.071,-0.026 0.071,-0.041C0.071,-0.056 0.076,-0.069 0.087,-0.079C0.097,-0.09 0.11,-0.095 0.125,-0.095Z" style="fill:rgb(243,174,27);fill-rule:nonzero;"/>
                </g>
                <g transform="matrix(44.4444,0,0,44.4444,994.42,2466.72)">
                    <path d="M-0.001,-0.403L0.137,-0.458L0.155,-0.458L0.155,-0.354C0.178,-0.393 0.202,-0.421 0.225,-0.437C0.248,-0.453 0.273,-0.46 0.298,-0.46C0.343,-0.46 0.381,-0.443 0.411,-0.408C0.447,-0.365 0.466,-0.309 0.466,-0.24C0.466,-0.163 0.444,-0.099 0.399,-0.048C0.363,-0.007 0.317,0.014 0.262,0.014C0.238,0.014 0.217,0.01 0.199,0.003C0.186,-0.001 0.172,-0.011 0.155,-0.026L0.155,0.11C0.155,0.141 0.157,0.16 0.161,0.169C0.165,0.177 0.171,0.184 0.18,0.188C0.19,0.193 0.207,0.196 0.231,0.196L0.231,0.214L-0.003,0.214L-0.003,0.196L0.009,0.196C0.027,0.196 0.042,0.193 0.055,0.186C0.061,0.182 0.066,0.176 0.069,0.168C0.073,0.16 0.074,0.14 0.074,0.107L0.074,-0.315C0.074,-0.344 0.073,-0.363 0.07,-0.371C0.068,-0.378 0.064,-0.384 0.058,-0.388C0.052,-0.392 0.044,-0.394 0.035,-0.394C0.027,-0.394 0.017,-0.392 0.005,-0.387L-0.001,-0.403ZM0.155,-0.325L0.155,-0.158C0.155,-0.122 0.157,-0.098 0.16,-0.087C0.164,-0.068 0.175,-0.051 0.193,-0.037C0.211,-0.023 0.233,-0.016 0.26,-0.016C0.293,-0.016 0.319,-0.028 0.339,-0.054C0.366,-0.087 0.379,-0.134 0.379,-0.194C0.379,-0.262 0.364,-0.315 0.334,-0.352C0.313,-0.377 0.288,-0.39 0.26,-0.39C0.244,-0.39 0.229,-0.386 0.213,-0.378C0.202,-0.372 0.182,-0.354 0.155,-0.325Z" style="fill:rgb(243,174,27);fill-rule:nonzero;"/>
                </g>
                <g transform="matrix(44.4444,0,0,44.4444,1016.64,2466.72)">
                    <path d="M0.162,-0.46L0.162,-0.36C0.2,-0.427 0.238,-0.46 0.277,-0.46C0.295,-0.46 0.31,-0.455 0.322,-0.444C0.333,-0.433 0.339,-0.421 0.339,-0.406C0.339,-0.394 0.335,-0.383 0.327,-0.374C0.318,-0.365 0.308,-0.361 0.296,-0.361C0.285,-0.361 0.272,-0.366 0.258,-0.378C0.244,-0.389 0.233,-0.395 0.227,-0.395C0.221,-0.395 0.214,-0.391 0.208,-0.385C0.193,-0.371 0.178,-0.349 0.162,-0.319L0.162,-0.104C0.162,-0.08 0.165,-0.061 0.171,-0.048C0.176,-0.04 0.183,-0.032 0.194,-0.026C0.205,-0.021 0.22,-0.018 0.24,-0.018L0.24,-0L0.011,-0L0.011,-0.018C0.034,-0.018 0.051,-0.021 0.062,-0.028C0.07,-0.034 0.076,-0.042 0.079,-0.053C0.081,-0.059 0.082,-0.075 0.082,-0.101L0.082,-0.274C0.082,-0.326 0.08,-0.357 0.078,-0.367C0.076,-0.377 0.072,-0.384 0.067,-0.389C0.061,-0.393 0.054,-0.396 0.045,-0.396C0.035,-0.396 0.024,-0.393 0.011,-0.388L0.006,-0.406L0.142,-0.46L0.162,-0.46Z" style="fill:rgb(243,174,27);fill-rule:nonzero;"/>
                </g>
                <g transform="matrix(44.4444,0,0,44.4444,1031.44,2466.72)">
                    <path d="M0.106,-0.279C0.106,-0.212 0.122,-0.16 0.155,-0.123C0.187,-0.085 0.226,-0.066 0.27,-0.066C0.299,-0.066 0.324,-0.074 0.346,-0.09C0.368,-0.106 0.386,-0.134 0.4,-0.173L0.416,-0.163C0.409,-0.118 0.389,-0.078 0.356,-0.041C0.323,-0.005 0.282,0.014 0.232,0.014C0.179,0.014 0.133,-0.007 0.094,-0.049C0.056,-0.091 0.037,-0.147 0.037,-0.218C0.037,-0.294 0.057,-0.354 0.096,-0.397C0.135,-0.44 0.184,-0.461 0.244,-0.461C0.294,-0.461 0.335,-0.444 0.367,-0.411C0.399,-0.378 0.416,-0.334 0.416,-0.279L0.106,-0.279ZM0.106,-0.307L0.313,-0.307C0.312,-0.336 0.308,-0.356 0.303,-0.368C0.295,-0.386 0.283,-0.4 0.267,-0.411C0.251,-0.421 0.234,-0.426 0.216,-0.426C0.189,-0.426 0.165,-0.416 0.144,-0.395C0.122,-0.374 0.11,-0.345 0.106,-0.307Z" style="fill:rgb(243,174,27);fill-rule:nonzero;"/>
                </g>
                <g transform="matrix(44.4444,0,0,44.4444,1051.17,2466.72)">
                    <path d="M0.008,-0.447L0.219,-0.447L0.219,-0.429L0.205,-0.429C0.192,-0.429 0.183,-0.426 0.176,-0.42C0.169,-0.414 0.166,-0.405 0.166,-0.395C0.166,-0.384 0.169,-0.37 0.176,-0.354L0.28,-0.107L0.385,-0.364C0.392,-0.382 0.396,-0.396 0.396,-0.405C0.396,-0.41 0.395,-0.414 0.392,-0.417C0.389,-0.421 0.384,-0.425 0.378,-0.427C0.373,-0.428 0.362,-0.429 0.345,-0.429L0.345,-0.447L0.491,-0.447L0.491,-0.429C0.474,-0.428 0.462,-0.424 0.456,-0.419C0.444,-0.409 0.434,-0.393 0.425,-0.37L0.266,0.014L0.246,0.014L0.086,-0.364C0.079,-0.381 0.072,-0.394 0.066,-0.402C0.059,-0.409 0.051,-0.416 0.041,-0.421C0.035,-0.424 0.025,-0.427 0.008,-0.429L0.008,-0.447Z" style="fill:rgb(243,174,27);fill-rule:nonzero;"/>
                </g>
            </g>
            <g transform="matrix(0.49701,0.867745,-0.867745,0.49701,2572.83,697.894)">
                <g transform="matrix(44.4444,0,0,44.4444,941.36,2466.72)">
                    <path d="M0.163,-0.694L0.163,-0.367C0.199,-0.407 0.227,-0.432 0.249,-0.444C0.27,-0.455 0.291,-0.46 0.312,-0.46C0.337,-0.46 0.359,-0.453 0.377,-0.439C0.396,-0.425 0.409,-0.403 0.418,-0.374C0.424,-0.353 0.427,-0.315 0.427,-0.259L0.427,-0.101C0.427,-0.073 0.43,-0.053 0.434,-0.043C0.437,-0.035 0.443,-0.029 0.451,-0.024C0.458,-0.02 0.473,-0.018 0.494,-0.018L0.494,-0L0.274,-0L0.274,-0.018L0.284,-0.018C0.305,-0.018 0.319,-0.021 0.328,-0.027C0.336,-0.033 0.341,-0.043 0.345,-0.055C0.346,-0.06 0.346,-0.076 0.346,-0.101L0.346,-0.259C0.346,-0.308 0.344,-0.34 0.339,-0.355C0.334,-0.371 0.326,-0.382 0.314,-0.39C0.303,-0.398 0.29,-0.401 0.274,-0.401C0.258,-0.401 0.242,-0.397 0.225,-0.389C0.207,-0.38 0.187,-0.363 0.163,-0.337L0.163,-0.101C0.163,-0.07 0.164,-0.051 0.168,-0.044C0.171,-0.036 0.177,-0.03 0.187,-0.025C0.196,-0.02 0.212,-0.018 0.235,-0.018L0.235,-0L0.013,-0L0.013,-0.018C0.033,-0.018 0.049,-0.021 0.06,-0.027C0.067,-0.03 0.072,-0.036 0.076,-0.045C0.08,-0.055 0.082,-0.073 0.082,-0.101L0.082,-0.506C0.082,-0.557 0.08,-0.588 0.078,-0.6C0.075,-0.612 0.072,-0.62 0.067,-0.624C0.062,-0.628 0.055,-0.63 0.046,-0.63C0.04,-0.63 0.028,-0.628 0.013,-0.623L0.006,-0.64L0.14,-0.694L0.163,-0.694Z" style="fill:rgb(243,174,27);fill-rule:nonzero;"/>
                </g>
                <g transform="matrix(44.4444,0,0,44.4444,963.582,2466.72)">
                    <path d="M0.106,-0.279C0.106,-0.212 0.122,-0.16 0.155,-0.123C0.187,-0.085 0.226,-0.066 0.27,-0.066C0.299,-0.066 0.324,-0.074 0.346,-0.09C0.368,-0.106 0.386,-0.134 0.4,-0.173L0.416,-0.163C0.409,-0.118 0.389,-0.078 0.356,-0.041C0.323,-0.005 0.282,0.014 0.232,0.014C0.179,0.014 0.133,-0.007 0.094,-0.049C0.056,-0.091 0.037,-0.147 0.037,-0.218C0.037,-0.294 0.057,-0.354 0.096,-0.397C0.135,-0.44 0.184,-0.461 0.244,-0.461C0.294,-0.461 0.335,-0.444 0.367,-0.411C0.399,-0.378 0.416,-0.334 0.416,-0.279L0.106,-0.279ZM0.106,-0.307L0.313,-0.307C0.312,-0.336 0.308,-0.356 0.303,-0.368C0.295,-0.386 0.283,-0.4 0.267,-0.411C0.251,-0.421 0.234,-0.426 0.216,-0.426C0.189,-0.426 0.165,-0.416 0.144,-0.395C0.122,-0.374 0.11,-0.345 0.106,-0.307Z" style="fill:rgb(243,174,27);fill-rule:nonzero;"/>
                </g>
                <g transform="matrix(44.4444,0,0,44.4444,983.309,2466.72)">
                    <path d="M0.125,-0.095C0.14,-0.095 0.153,-0.089 0.164,-0.079C0.174,-0.068 0.179,-0.056 0.179,-0.041C0.179,-0.026 0.174,-0.013 0.163,-0.002C0.153,0.008 0.14,0.014 0.125,0.014C0.11,0.014 0.097,0.008 0.087,-0.002C0.076,-0.013 0.071,-0.026 0.071,-0.041C0.071,-0.056 0.076,-0.069 0.087,-0.079C0.097,-0.09 0.11,-0.095 0.125,-0.095Z" style="fill:rgb(243,174,27);fill-rule:nonzero;"/>
                </g>
                <g transform="matrix(44.4444,0,0,44.4444,994.42,2466.72)">
                    <path d="M0.162,-0.366C0.214,-0.429 0.264,-0.46 0.312,-0.46C0.336,-0.46 0.357,-0.454 0.375,-0.442C0.392,-0.43 0.406,-0.41 0.417,-0.382C0.424,-0.362 0.427,-0.332 0.427,-0.292L0.427,-0.101C0.427,-0.073 0.43,-0.054 0.434,-0.043C0.438,-0.035 0.443,-0.029 0.451,-0.024C0.459,-0.02 0.474,-0.018 0.496,-0.018L0.496,-0L0.274,-0L0.274,-0.018L0.284,-0.018C0.305,-0.018 0.319,-0.021 0.327,-0.027C0.336,-0.033 0.341,-0.043 0.345,-0.055C0.346,-0.06 0.347,-0.075 0.347,-0.101L0.347,-0.284C0.347,-0.325 0.341,-0.354 0.331,-0.373C0.32,-0.391 0.302,-0.4 0.277,-0.4C0.239,-0.4 0.2,-0.379 0.162,-0.337L0.162,-0.101C0.162,-0.071 0.163,-0.052 0.167,-0.045C0.172,-0.035 0.178,-0.029 0.186,-0.024C0.194,-0.02 0.21,-0.018 0.234,-0.018L0.234,-0L0.013,-0L0.013,-0.018L0.023,-0.018C0.046,-0.018 0.061,-0.023 0.069,-0.035C0.077,-0.046 0.081,-0.069 0.081,-0.101L0.081,-0.267C0.081,-0.321 0.08,-0.354 0.077,-0.365C0.075,-0.377 0.071,-0.385 0.066,-0.389C0.061,-0.393 0.054,-0.396 0.046,-0.396C0.037,-0.396 0.026,-0.393 0.013,-0.388L0.006,-0.406L0.141,-0.46L0.162,-0.46L0.162,-0.366Z" style="fill:rgb(243,174,27);fill-rule:nonzero;"/>
                </g>
                <g transform="matrix(44.4444,0,0,44.4444,1016.64,2466.72)">
                    <path d="M0.106,-0.279C0.106,-0.212 0.122,-0.16 0.155,-0.123C0.187,-0.085 0.226,-0.066 0.27,-0.066C0.299,-0.066 0.324,-0.074 0.346,-0.09C0.368,-0.106 0.386,-0.134 0.4,-0.173L0.416,-0.163C0.409,-0.118 0.389,-0.078 0.356,-0.041C0.323,-0.005 0.282,0.014 0.232,0.014C0.179,0.014 0.133,-0.007 0.094,-0.049C0.056,-0.091 0.037,-0.147 0.037,-0.218C0.037,-0.294 0.057,-0.354 0.096,-0.397C0.135,-0.44 0.184,-0.461 0.244,-0.461C0.294,-0.461 0.335,-0.444 0.367,-0.411C0.399,-0.378 0.416,-0.334 0.416,-0.279L0.106,-0.279ZM0.106,-0.307L0.313,-0.307C0.312,-0.336 0.308,-0.356 0.303,-0.368C0.295,-0.386 0.283,-0.4 0.267,-0.411C0.251,-0.421 0.234,-0.426 0.216,-0.426C0.189,-0.426 0.165,-0.416 0.144,-0.395C0.122,-0.374 0.11,-0.345 0.106,-0.307Z" style="fill:rgb(243,174,27);fill-rule:nonzero;"/>
                </g>
                <g transform="matrix(44.4444,0,0,44.4444,1036.37,2466.72)">
                    <path d="M0.013,-0.447L0.224,-0.447L0.224,-0.429C0.21,-0.429 0.201,-0.427 0.196,-0.422C0.19,-0.418 0.188,-0.412 0.188,-0.404C0.188,-0.396 0.193,-0.384 0.205,-0.368C0.208,-0.363 0.214,-0.355 0.221,-0.344L0.252,-0.293L0.289,-0.344C0.313,-0.376 0.324,-0.396 0.324,-0.405C0.324,-0.412 0.321,-0.417 0.316,-0.422C0.31,-0.427 0.301,-0.429 0.289,-0.429L0.289,-0.447L0.44,-0.447L0.44,-0.429C0.424,-0.428 0.411,-0.424 0.399,-0.416C0.383,-0.405 0.361,-0.381 0.333,-0.344L0.272,-0.262L0.384,-0.102C0.411,-0.063 0.431,-0.039 0.442,-0.031C0.454,-0.023 0.469,-0.019 0.488,-0.018L0.488,-0L0.277,-0L0.277,-0.018C0.292,-0.018 0.303,-0.021 0.311,-0.027C0.317,-0.032 0.32,-0.038 0.32,-0.045C0.32,-0.053 0.31,-0.072 0.289,-0.102L0.224,-0.198L0.152,-0.102C0.13,-0.072 0.119,-0.055 0.119,-0.049C0.119,-0.042 0.122,-0.034 0.13,-0.028C0.137,-0.022 0.148,-0.018 0.163,-0.018L0.163,-0L0.017,-0L0.017,-0.018C0.028,-0.019 0.039,-0.023 0.047,-0.03C0.06,-0.039 0.081,-0.063 0.11,-0.102L0.204,-0.227L0.119,-0.35C0.095,-0.385 0.076,-0.407 0.063,-0.416C0.05,-0.425 0.033,-0.429 0.013,-0.429L0.013,-0.447Z" style="fill:rgb(243,174,27);fill-rule:nonzero;"/>
                </g>
                <g transform="matrix(44.4444,0,0,44.4444,1058.59,2466.72)">
                    <path d="M0.161,-0.594L0.161,-0.447L0.266,-0.447L0.266,-0.413L0.161,-0.413L0.161,-0.123C0.161,-0.094 0.165,-0.075 0.174,-0.064C0.182,-0.054 0.193,-0.049 0.206,-0.049C0.216,-0.049 0.227,-0.053 0.237,-0.059C0.247,-0.066 0.255,-0.076 0.26,-0.089L0.279,-0.089C0.268,-0.057 0.252,-0.033 0.231,-0.017C0.21,-0.001 0.189,0.007 0.167,0.007C0.152,0.007 0.137,0.003 0.123,-0.005C0.108,-0.013 0.098,-0.025 0.091,-0.041C0.084,-0.056 0.081,-0.08 0.081,-0.112L0.081,-0.413L0.01,-0.413L0.01,-0.429C0.028,-0.436 0.046,-0.448 0.065,-0.466C0.083,-0.483 0.1,-0.503 0.115,-0.526C0.122,-0.539 0.133,-0.561 0.146,-0.594L0.161,-0.594Z" style="fill:rgb(243,174,27);fill-rule:nonzero;"/>
                </g>
            </g>
            <g transform="matrix(0.998135,0.0610485,-0.0610485,0.998135,215.053,55.3836)">
                <g transform="matrix(44.4444,0,0,44.4444,941.36,2466.72)">
                    <path d="M0.163,-0.694L0.163,-0.367C0.199,-0.407 0.227,-0.432 0.249,-0.444C0.27,-0.455 0.291,-0.46 0.312,-0.46C0.337,-0.46 0.359,-0.453 0.377,-0.439C0.396,-0.425 0.409,-0.403 0.418,-0.374C0.424,-0.353 0.427,-0.315 0.427,-0.259L0.427,-0.101C0.427,-0.073 0.43,-0.053 0.434,-0.043C0.437,-0.035 0.443,-0.029 0.451,-0.024C0.458,-0.02 0.473,-0.018 0.494,-0.018L0.494,-0L0.274,-0L0.274,-0.018L0.284,-0.018C0.305,-0.018 0.319,-0.021 0.328,-0.027C0.336,-0.033 0.341,-0.043 0.345,-0.055C0.346,-0.06 0.346,-0.076 0.346,-0.101L0.346,-0.259C0.346,-0.308 0.344,-0.34 0.339,-0.355C0.334,-0.371 0.326,-0.382 0.314,-0.39C0.303,-0.398 0.29,-0.401 0.274,-0.401C0.258,-0.401 0.242,-0.397 0.225,-0.389C0.207,-0.38 0.187,-0.363 0.163,-0.337L0.163,-0.101C0.163,-0.07 0.164,-0.051 0.168,-0.044C0.171,-0.036 0.177,-0.03 0.187,-0.025C0.196,-0.02 0.212,-0.018 0.235,-0.018L0.235,-0L0.013,-0L0.013,-0.018C0.033,-0.018 0.049,-0.021 0.06,-0.027C0.067,-0.03 0.072,-0.036 0.076,-0.045C0.08,-0.055 0.082,-0.073 0.082,-0.101L0.082,-0.506C0.082,-0.557 0.08,-0.588 0.078,-0.6C0.075,-0.612 0.072,-0.62 0.067,-0.624C0.062,-0.628 0.055,-0.63 0.046,-0.63C0.04,-0.63 0.028,-0.628 0.013,-0.623L0.006,-0.64L0.14,-0.694L0.163,-0.694Z" style="fill:rgb(172,35,47);fill-rule:nonzero;"/>
                </g>
                <g transform="matrix(44.4444,0,0,44.4444,963.582,2466.72)">
                    <path d="M0.106,-0.279C0.106,-0.212 0.122,-0.16 0.155,-0.123C0.187,-0.085 0.226,-0.066 0.27,-0.066C0.299,-0.066 0.324,-0.074 0.346,-0.09C0.368,-0.106 0.386,-0.134 0.4,-0.173L0.416,-0.163C0.409,-0.118 0.389,-0.078 0.356,-0.041C0.323,-0.005 0.282,0.014 0.232,0.014C0.179,0.014 0.133,-0.007 0.094,-0.049C0.056,-0.091 0.037,-0.147 0.037,-0.218C0.037,-0.294 0.057,-0.354 0.096,-0.397C0.135,-0.44 0.184,-0.461 0.244,-0.461C0.294,-0.461 0.335,-0.444 0.367,-0.411C0.399,-0.378 0.416,-0.334 0.416,-0.279L0.106,-0.279ZM0.106,-0.307L0.313,-0.307C0.312,-0.336 0.308,-0.356 0.303,-0.368C0.295,-0.386 0.283,-0.4 0.267,-0.411C0.251,-0.421 0.234,-0.426 0.216,-0.426C0.189,-0.426 0.165,-0.416 0.144,-0.395C0.122,-0.374 0.11,-0.345 0.106,-0.307Z" style="fill:rgb(172,35,47);fill-rule:nonzero;"/>
                </g>
                <g transform="matrix(44.4444,0,0,44.4444,983.309,2466.72)">
                    <path d="M0.125,-0.095C0.14,-0.095 0.153,-0.089 0.164,-0.079C0.174,-0.068 0.179,-0.056 0.179,-0.041C0.179,-0.026 0.174,-0.013 0.163,-0.002C0.153,0.008 0.14,0.014 0.125,0.014C0.11,0.014 0.097,0.008 0.087,-0.002C0.076,-0.013 0.071,-0.026 0.071,-0.041C0.071,-0.056 0.076,-0.069 0.087,-0.079C0.097,-0.09 0.11,-0.095 0.125,-0.095Z" style="fill:rgb(172,35,47);fill-rule:nonzero;"/>
                </g>
                <g transform="matrix(44.4444,0,0,44.4444,994.42,2466.72)">
                    <path d="M-0.001,-0.403L0.137,-0.458L0.155,-0.458L0.155,-0.354C0.178,-0.393 0.202,-0.421 0.225,-0.437C0.248,-0.453 0.273,-0.46 0.298,-0.46C0.343,-0.46 0.381,-0.443 0.411,-0.408C0.447,-0.365 0.466,-0.309 0.466,-0.24C0.466,-0.163 0.444,-0.099 0.399,-0.048C0.363,-0.007 0.317,0.014 0.262,0.014C0.238,0.014 0.217,0.01 0.199,0.003C0.186,-0.001 0.172,-0.011 0.155,-0.026L0.155,0.11C0.155,0.141 0.157,0.16 0.161,0.169C0.165,0.177 0.171,0.184 0.18,0.188C0.19,0.193 0.207,0.196 0.231,0.196L0.231,0.214L-0.003,0.214L-0.003,0.196L0.009,0.196C0.027,0.196 0.042,0.193 0.055,0.186C0.061,0.182 0.066,0.176 0.069,0.168C0.073,0.16 0.074,0.14 0.074,0.107L0.074,-0.315C0.074,-0.344 0.073,-0.363 0.07,-0.371C0.068,-0.378 0.064,-0.384 0.058,-0.388C0.052,-0.392 0.044,-0.394 0.035,-0.394C0.027,-0.394 0.017,-0.392 0.005,-0.387L-0.001,-0.403ZM0.155,-0.325L0.155,-0.158C0.155,-0.122 0.157,-0.098 0.16,-0.087C0.164,-0.068 0.175,-0.051 0.193,-0.037C0.211,-0.023 0.233,-0.016 0.26,-0.016C0.293,-0.016 0.319,-0.028 0.339,-0.054C0.366,-0.087 0.379,-0.134 0.379,-0.194C0.379,-0.262 0.364,-0.315 0.334,-0.352C0.313,-0.377 0.288,-0.39 0.26,-0.39C0.244,-0.39 0.229,-0.386 0.213,-0.378C0.202,-0.372 0.182,-0.354 0.155,-0.325Z" style="fill:rgb(172,35,47);fill-rule:nonzero;"/>
                </g>
                <g transform="matrix(44.4444,0,0,44.4444,1016.64,2466.72)">
                    <path d="M0.285,-0.064C0.239,-0.029 0.21,-0.008 0.198,-0.003C0.181,0.005 0.162,0.009 0.142,0.009C0.111,0.009 0.086,-0.001 0.066,-0.022C0.046,-0.044 0.036,-0.071 0.036,-0.106C0.036,-0.128 0.041,-0.147 0.05,-0.163C0.064,-0.185 0.087,-0.206 0.12,-0.225C0.153,-0.245 0.208,-0.268 0.285,-0.296L0.285,-0.314C0.285,-0.359 0.278,-0.389 0.263,-0.406C0.249,-0.422 0.229,-0.431 0.202,-0.431C0.181,-0.431 0.165,-0.425 0.153,-0.414C0.14,-0.403 0.134,-0.39 0.134,-0.376L0.135,-0.348C0.135,-0.333 0.131,-0.321 0.124,-0.313C0.116,-0.305 0.106,-0.301 0.094,-0.301C0.082,-0.301 0.072,-0.305 0.064,-0.313C0.057,-0.322 0.053,-0.333 0.053,-0.348C0.053,-0.376 0.067,-0.402 0.096,-0.425C0.124,-0.449 0.165,-0.46 0.216,-0.46C0.256,-0.46 0.289,-0.454 0.314,-0.44C0.333,-0.43 0.347,-0.415 0.356,-0.393C0.362,-0.379 0.365,-0.35 0.365,-0.307L0.365,-0.155C0.365,-0.113 0.366,-0.087 0.368,-0.077C0.369,-0.067 0.372,-0.061 0.376,-0.058C0.379,-0.054 0.384,-0.053 0.389,-0.053C0.394,-0.053 0.398,-0.054 0.402,-0.056C0.409,-0.06 0.422,-0.072 0.442,-0.092L0.442,-0.064C0.405,-0.016 0.371,0.009 0.337,0.009C0.321,0.009 0.309,0.003 0.299,-0.008C0.29,-0.019 0.285,-0.038 0.285,-0.064ZM0.285,-0.096L0.285,-0.267C0.236,-0.247 0.204,-0.233 0.189,-0.225C0.164,-0.211 0.145,-0.196 0.134,-0.18C0.123,-0.165 0.118,-0.147 0.118,-0.129C0.118,-0.105 0.125,-0.086 0.139,-0.071C0.153,-0.055 0.169,-0.047 0.187,-0.047C0.212,-0.047 0.244,-0.064 0.285,-0.096Z" style="fill:rgb(172,35,47);fill-rule:nonzero;"/>
                </g>
                <g transform="matrix(44.4444,0,0,44.4444,1036.37,2466.72)">
                    <path d="M0.145,-0.694C0.159,-0.694 0.17,-0.69 0.18,-0.68C0.19,-0.67 0.194,-0.659 0.194,-0.645C0.194,-0.631 0.19,-0.62 0.18,-0.61C0.17,-0.6 0.159,-0.595 0.145,-0.595C0.131,-0.595 0.12,-0.6 0.11,-0.61C0.1,-0.62 0.095,-0.631 0.095,-0.645C0.095,-0.659 0.1,-0.67 0.11,-0.68C0.119,-0.69 0.131,-0.694 0.145,-0.694ZM0.186,-0.46L0.186,-0.101C0.186,-0.073 0.188,-0.054 0.192,-0.045C0.196,-0.036 0.202,-0.029 0.21,-0.024C0.218,-0.02 0.232,-0.018 0.253,-0.018L0.253,-0L0.036,-0L0.036,-0.018C0.058,-0.018 0.073,-0.02 0.08,-0.024C0.088,-0.028 0.094,-0.035 0.098,-0.045C0.102,-0.055 0.104,-0.073 0.104,-0.101L0.104,-0.273C0.104,-0.322 0.103,-0.353 0.1,-0.368C0.098,-0.378 0.094,-0.385 0.089,-0.389C0.084,-0.393 0.078,-0.396 0.069,-0.396C0.06,-0.396 0.049,-0.393 0.036,-0.388L0.029,-0.406L0.164,-0.46L0.186,-0.46Z" style="fill:rgb(172,35,47);fill-rule:nonzero;"/>
                </g>
                <g transform="matrix(44.4444,0,0,44.4444,1048.72,2466.72)">
                    <path d="M0.162,-0.46L0.162,-0.36C0.2,-0.427 0.238,-0.46 0.277,-0.46C0.295,-0.46 0.31,-0.455 0.322,-0.444C0.333,-0.433 0.339,-0.421 0.339,-0.406C0.339,-0.394 0.335,-0.383 0.327,-0.374C0.318,-0.365 0.308,-0.361 0.296,-0.361C0.285,-0.361 0.272,-0.366 0.258,-0.378C0.244,-0.389 0.233,-0.395 0.227,-0.395C0.221,-0.395 0.214,-0.391 0.208,-0.385C0.193,-0.371 0.178,-0.349 0.162,-0.319L0.162,-0.104C0.162,-0.08 0.165,-0.061 0.171,-0.048C0.176,-0.04 0.183,-0.032 0.194,-0.026C0.205,-0.021 0.22,-0.018 0.24,-0.018L0.24,-0L0.011,-0L0.011,-0.018C0.034,-0.018 0.051,-0.021 0.062,-0.028C0.07,-0.034 0.076,-0.042 0.079,-0.053C0.081,-0.059 0.082,-0.075 0.082,-0.101L0.082,-0.274C0.082,-0.326 0.08,-0.357 0.078,-0.367C0.076,-0.377 0.072,-0.384 0.067,-0.389C0.061,-0.393 0.054,-0.396 0.045,-0.396C0.035,-0.396 0.024,-0.393 0.011,-0.388L0.006,-0.406L0.142,-0.46L0.162,-0.46Z" style="fill:rgb(172,35,47);fill-rule:nonzero;"/>
                </g>
            </g>
        </g>
        <g transform="matrix(1.48481,0.857253,-1.05508,1.82745,2967.19,-2417)">
            <g transform="matrix(0.505116,-0.236949,0.291629,0.410407,220.39,2602.83)">
                <path d="M201.521,52.694L191.1,62.006L204.802,64.756C200.966,62.561 199.326,56.53 201.521,52.694Z" style="fill:rgb(12,162,218);"/>
                <path d="M200.749,59.381C215.014,55.709 234.21,51.964 243.688,57.436C255.567,64.294 260.102,90.201 262.37,103.154" style="fill:none;stroke:rgb(12,162,218);stroke-width:4.17px;"/>
            </g>
        </g>
        <g transform="matrix(0.562865,1.61948,1.99321,-0.692757,-4360.25,3818.27)">
            <g transform="matrix(0.191481,0.447631,0.550931,-0.155578,229.295,2397.85)">
                <path d="M456.017,85.972L459.903,72.548L446.832,77.494C451.248,77.317 455.84,81.556 456.017,85.972Z" style="fill:rgb(172,35,47);"/>
                <path d="M453.12,79.896C447.357,86.431 441.209,94.44 440.704,100.035C439.979,108.053 450.363,116.458 455.555,120.66" style="fill:none;stroke:rgb(172,35,47);stroke-width:4.17px;"/>
            </g>
        </g>
        <g transform="matrix(-0.844039,1.49236,-1.83675,-1.03882,6084.67,4762.04)">
            <g transform="matrix(-0.287134,-0.412494,0.507685,-0.233296,455.756,2804.83)">
                <path d="M482.788,120.789L468.854,121.861L476.357,110.071C475.285,114.358 478.5,119.718 482.788,120.789Z" style="fill:rgb(243,174,27);"/>
                <path d="M473.201,73.749C478.096,81.237 487.886,96.214 487.162,104.233C486.721,109.109 482.213,113.39 477.429,116.716" style="fill:none;stroke:rgb(243,174,27);stroke-width:4.17px;"/>
            </g>
        </g>
        <g transform="matrix(-1.58899,0.643924,-0.792522,-1.95568,3457.54,7503.92)">
            <g transform="matrix(-0.540559,-0.177983,0.219056,-0.439204,482.756,2703.04)">
                <path d="M265.227,178.354L253.648,170.529L266.855,165.961C263.35,168.652 262.536,174.849 265.227,178.354Z" style="fill:rgb(243,174,27);"/>
                <path d="M286.969,135.552C286.147,144.461 284.502,162.278 278.948,168.107C275.57,171.652 269.378,172.201 263.563,171.832" style="fill:none;stroke:rgb(243,174,27);stroke-width:4.17px;"/>
            </g>
        </g>
        <g transform="matrix(1.01455,1.38211,1.70106,-1.24867,-3598.13,5425.62)">
            <g transform="matrix(0.345138,0.382022,0.47018,-0.280425,68.8914,2396.43)">
                <path d="M627.204,190.344L636.048,201.165L622.085,201.748C626.216,200.177 628.775,194.475 627.204,190.344Z" style="fill:rgb(243,174,27);"/>
                <path d="M626.044,153.904C622.068,161.919 614.117,177.948 615.784,185.825C616.798,190.615 621.782,194.333 626.925,197.07" style="fill:none;stroke:rgb(243,174,27);stroke-width:4.17px;"/>
            </g>
        </g>
        <g transform="matrix(1.48481,0.857253,1.05508,-1.82745,-2525.33,7087.42)">
            <g transform="matrix(0.505116,0.236949,0.291629,-0.410407,222.986,2599.3)">
                <path d="M206.529,165.226L220.398,166.952L210.696,177.011C212.6,173.023 210.517,167.13 206.529,165.226Z" style="fill:rgb(12,162,218);"/>
                <path d="M149.127,125.804C152.613,139.46 159.586,166.773 171.464,173.631C180.789,179.015 198.018,174.611 210.97,170.285" style="fill:none;stroke:rgb(12,162,218);stroke-width:4.17px;"/>
            </g>
        </g>
        <g transform="matrix(1.09616,0.632868,0.680065,-1.17791,-1070.44,5497.76)">
            <g transform="matrix(0.684207,0.367612,0.395027,-0.636723,-65.4415,2485.65)">
                <path d="M524.562,175.118L537.863,179.407L526.451,187.475C529.068,183.913 528.123,177.735 524.562,175.118Z" style="fill:rgb(91,89,89);"/>
                <path d="M513.061,134.325C511.683,145.756 508.927,168.619 513.061,176.133C515.585,180.721 521.901,181.394 527.978,180.919" style="fill:none;stroke:rgb(91,89,89);stroke-width:4.17px;"/>
            </g>
        </g>
        <g transform="matrix(-1.09616,0.632868,-0.680065,-1.17791,3264.63,5498.76)">
            <g transform="matrix(-0.684207,-0.367612,0.395027,-0.636723,685.245,2889.83)">
                <path d="M595.549,152.008L589.68,139.325L583.054,151.63C586.272,148.601 592.52,148.79 595.549,152.008Z" style="fill:rgb(91,89,89);"/>
                <path d="M589.377,149.321C588.93,159.559 587.839,171.883 584.68,177.133C580.929,183.364 569.478,182.726 563.752,182.407" style="fill:none;stroke:rgb(91,89,89);stroke-width:4.17px;"/>
            </g>
        </g>
    </g>
</svg>
