<?xml version="1.0" encoding="UTF-8" standalone="no"?>
<svg
   xmlns:dc="http://purl.org/dc/elements/1.1/"
   xmlns:cc="http://creativecommons.org/ns#"
   xmlns:rdf="http://www.w3.org/1999/02/22-rdf-syntax-ns#"
   xmlns:svg="http://www.w3.org/2000/svg"
   xmlns="http://www.w3.org/2000/svg"
   xmlns:sodipodi="http://sodipodi.sourceforge.net/DTD/sodipodi-0.dtd"
   xmlns:inkscape="http://www.inkscape.org/namespaces/inkscape"
   version="1.1"
   id="svg2"
   width="300"
   height="300"
   viewBox="0 0 300 300"
   sodipodi:docname="logo.svg"
   inkscape:version="1.0.1 (3bc2e813f5, 2020-09-07)">
  <metadata
     id="metadata8">
    <rdf:RDF>
      <cc:Work
         rdf:about="">
        <dc:format>image/svg+xml</dc:format>
        <dc:type
           rdf:resource="http://purl.org/dc/dcmitype/StillImage" />
        <dc:title></dc:title>
      </cc:Work>
    </rdf:RDF>
  </metadata>
  <defs
     id="defs6" />
  <sodipodi:namedview
     pagecolor="#ffffff"
     bordercolor="#666666"
     borderopacity="1"
     objecttolerance="10"
     gridtolerance="10"
     guidetolerance="10"
     inkscape:pageopacity="0"
     inkscape:pageshadow="2"
     inkscape:window-width="1920"
     inkscape:window-height="1016"
     id="namedview4"
     showgrid="false"
     inkscape:zoom="0.71833333"
     inkscape:cx="41.771384"
     inkscape:cy="228.69446"
     inkscape:window-x="0"
     inkscape:window-y="27"
     inkscape:window-maximized="1"
     inkscape:current-layer="g10" />
  <g
     inkscape:groupmode="layer"
     inkscape:label="Image"
     id="g10">
    <path
       style="fill:#71c046;fill-opacity:1;stroke-width:0.492186"
       d=""
       id="path46" />
    <path
       style="fill:#71c046;fill-opacity:1;stroke-width:0.492186"
       d=""
       id="path50" />
    <path
       style="fill:#71c046;fill-opacity:1;stroke-width:0.492186"
       d=""
       id="path84" />
    <path
       style="fill:#71c046;fill-opacity:1;stroke-width:0.492186"
       d=""
       id="path88" />
    <path
       style="fill:#71c046;fill-opacity:1;stroke-width:0.492186"
       d=""
       id="path90" />
    <path
       style="fill:#71c046;fill-opacity:1;stroke-width:0.492186"
       d=""
       id="path92" />
    <path
       style="fill:#71c046;fill-opacity:1;stroke-width:0.492186"
       d=""
       id="path96" />
    <path
       style="fill:#71c046;fill-opacity:1;stroke-width:0.492186"
       d=""
       id="path98" />
    <path
       style="fill:#71c046;fill-opacity:1;stroke-width:0.492186"
       d=""
       id="path104" />
    <path
       style="fill:#71c046;fill-opacity:1;stroke-width:0.492186"
       d=""
       id="path106" />
    <path
       style="fill:#71c046;fill-opacity:1;stroke-width:0.492186"
       d=""
       id="path108" />
    <path
       style="fill:#71c046;fill-opacity:1;stroke-width:0.492186"
       d=""
       id="path114" />
    <path
       style="fill:#85c03f;fill-opacity:1;stroke-width:0.246093"
       d=""
       id="path124" />
    <path
       style="fill:#85c03f;fill-opacity:1;stroke-width:0.246093"
       d=""
       id="path128" />
    <path
       style="fill:#85c03f;fill-opacity:1;stroke-width:0.123046"
       d=""
       id="path140" />
    <path
       style="fill:#85c03f;fill-opacity:1;stroke-width:0.123046"
       d=""
       id="path142" />
    <path
       style="fill:#85c03f;fill-opacity:1;stroke-width:0.123046"
       d=""
       id="path144" />
    <g
       id="g290"
       inkscape:export-xdpi="96"
       inkscape:export-ydpi="96">
      <g
         id="g274"
         transform="translate(-5.8796823,-51.388953)">
        <g
           id="g257"
           transform="matrix(2.3715668,0,0,1.763773,-2.2345567,-72.737501)">
          <g
             id="g202"
             transform="translate(-107.29284,74.646173)">
            <path
               style="fill:#85c03f;fill-opacity:1;stroke-width:0.123046"
               d="m 127.80393,112.82958 c -0.47273,-3.44892 -0.84945,-24.945617 -0.4754,-27.126907 0.98669,-5.7538 3.85124,-12.6897 7.4195,-17.96477 2.55888,-3.78288 4.5295,-5.796586 12.10804,-12.372764 8.03989,-6.976511 11.1249,-10.516278 16.68036,-19.139221 5.71815,-8.875452 8.85341,-13.546392 8.85341,-13.189882 0,0.162465 -2.01636,6.066935 -4.73955,13.878735 -1.06162,3.045399 -2.3158,6.644507 -2.78705,7.998017 -0.47126,1.353511 -1.04423,3.18075 -1.27328,4.060532 -0.69962,2.687331 -1.50761,7.255952 -1.57315,8.895143 -0.0181,0.454039 -0.0691,0.883726 -0.11312,0.954859 -0.0441,0.07113 -0.13925,0.486416 -0.21153,0.922848 -0.19658,1.186943 -1.62754,15.253073 -1.56841,15.417233 0.0818,0.22719 0.35692,-0.91638 0.29648,-1.23251 -0.0301,-0.15772 6.2e-4,-0.28677 0.0683,-0.28677 0.20495,0 0.0169,1.37171 -0.26142,1.90722 -0.18993,0.3654 -0.33687,1.15782 -0.57044,3.07616 -0.41132,3.37832 -0.84078,6.11657 -1.2349,7.87385 -0.17501,0.78031 -0.28726,1.4688 -0.24945,1.52998 0.0378,0.0612 0.0242,0.12982 -0.0302,0.15252 -0.0544,0.0227 -0.25713,0.48424 -0.4505,1.02564 -0.7998,2.23941 -1.89163,4.00592 -3.76455,6.0908 -4.54676,5.061317 -9.01357,9.585577 -10.02246,10.151357 -0.40605,0.22771 -2.01181,0.97593 -3.56834,1.66269 -3.49317,1.54124 -6.93276,3.24853 -9.85544,4.89189 -1.2246,0.68857 -2.31025,1.28407 -2.41256,1.32333 -0.14376,0.0552 -0.20379,-0.0584 -0.26432,-0.49998 z"
               id="path132" />
            <path
               style="fill:#76c044;fill-opacity:1"
               id="path173"
               d="m 132.35569,98.163981 c -0.51268,2.532979 -1.62136,4.894029 -2.7493,7.200839 -2.31056,4.39423 -4.90555,8.62934 -7.29163,12.98196 -1.32664,2.52673 -2.58911,5.09322 -4.11027,7.5122 -0.86467,1.37501 -1.16912,1.73173 -2.13416,3.02907 -1.27903,1.54574 -2.76244,2.92972 -4.39748,4.09399 -0.28482,0.20281 -1.17816,0.75226 -0.87318,0.58126 1.15985,-0.65034 2.29317,-1.3469 3.43975,-2.02035 -0.93568,0.47012 -0.47551,0.2582 -1.37781,0.64155 0,0 -3.93957,3.10114 -3.93957,3.10114 v 0 c 0.95561,-0.37072 0.4696,-0.16511 1.4557,-0.62232 1.66931,-0.96792 3.35308,-1.91134 5.00795,-2.90376 0.42576,-0.25532 1.37577,-1.02701 1.72255,-1.32721 1.19281,-1.03262 2.31442,-2.1517 3.27358,-3.40772 0.98226,-1.35795 1.21773,-1.6265 2.09129,-3.06376 1.46393,-2.40859 2.66111,-4.96175 3.95912,-7.45968 2.38097,-4.40448 5.01993,-8.66178 7.4204,-13.0557 1.24862,-2.40461 2.37966,-4.867472 3.09879,-7.489549 0,0 -4.59573,2.20804 -4.59573,2.20804 z" />
            <path
               style="fill:#9ac036;fill-opacity:0.996078"
               id="path191"
               d="m 169.83782,25.223591 c -0.36766,0.840134 -0.82008,1.645306 -1.24454,2.460252 -0.57201,0.883411 -0.93651,1.87532 -1.31439,2.851476 -0.4974,1.147446 -1.01446,2.286814 -1.53699,3.423946 -0.49344,1.243389 -1.00757,2.477786 -1.52085,3.713092 -0.4852,1.068927 -0.74646,2.211115 -1.11139,3.318482 -0.2373,0.976831 -0.51755,1.944022 -0.66818,2.93912 -0.15618,0.972403 -0.33678,1.934611 -0.41132,2.918954 -0.20239,0.989544 -0.19551,2.028374 -0.46794,3.000836 -0.26391,0.872815 -0.35884,1.779827 -0.42073,2.685406 -0.21938,1.049329 -0.37466,2.105812 -0.45065,3.174885 -0.0473,0.951959 -0.25746,1.885095 -0.3662,2.831289 -0.18335,0.966017 -0.37193,1.931686 -0.51712,2.904463 -0.10657,1.259946 -0.30465,2.508287 -0.44716,3.764364 -0.15424,1.002357 -0.35084,1.994347 -0.55685,2.98597 -0.1407,0.955577 -0.28511,1.908971 -0.44107,2.862918 -0.051,0.891716 -0.27757,1.754303 -0.42436,2.63175 -0.14614,0.866281 -0.32618,1.728434 -0.50718,2.589243 -0.22414,1.052826 -0.43022,2.10729 -0.62655,3.166576 -0.31686,1.360954 -0.67986,2.710915 -1.07294,4.051834 -0.38826,1.409335 -0.7373,2.830968 -1.19162,4.220868 -0.31264,1.216174 -0.76961,2.379508 -1.2636,3.530262 -0.40706,1.156369 -1.01199,2.224429 -1.55151,3.322636 -0.577,1.126252 -1.20404,2.223343 -1.82667,3.323471 -0.0746,0.09691 -0.15896,0.187009 -0.22374,0.290729 -0.18321,0.293391 -0.32343,0.623033 -0.52774,0.905225 -0.1475,0.203714 -0.32759,0.382027 -0.48091,0.581393 -0.65157,0.654199 -1.33713,1.272989 -1.99755,1.918269 -0.703,0.62699 -1.44475,1.22971 -2.20937,1.78342 -0.66693,0.53621 -1.40236,0.96916 -2.07801,1.49412 -0.83504,0.45292 0.0282,-0.033 -0.7629,0.46573 -0.11635,0.0734 -0.47658,0.27486 -0.35768,0.20571 6.98767,-4.06388 5.01057,-2.89192 3.47555,-2.04518 -0.64073,0.28147 -1.29607,0.51139 -1.92767,0.81914 -0.53333,0.29873 -1.09332,0.53717 -1.65026,0.78637 0,0 -4.02244,3.17913 -4.02244,3.17913 v 0 c 0.57307,-0.2355 1.15834,-0.45704 1.68383,-0.78857 0.62921,-0.28979 1.22615,-0.64269 1.91207,-0.78532 2.21651,-1.06315 4.33464,-2.35853 6.38553,-3.71926 0.69411,-0.49764 1.4139,-0.95908 2.07623,-1.50048 0.73565,-0.59701 1.51089,-1.14902 2.17242,-1.831067 0.67762,-0.647517 1.39035,-1.266078 1.9878,-1.990848 0.45887,-0.57748 0.82603,-1.212487 1.19732,-1.848701 0.59591,-1.089776 1.14112,-2.206138 1.7268,-3.301405 0.57134,-1.107403 1.19727,-2.189745 1.59028,-3.378468 0.47822,-1.165 0.89296,-2.352687 1.22671,-3.567828 0.40584,-1.398016 0.76084,-2.809977 1.15312,-4.211804 0.3935,-1.367265 0.79751,-2.732308 1.10818,-4.121475 0.20617,-1.055283 0.41594,-2.108849 0.64078,-3.160463 0.19098,-0.873139 0.40232,-1.744288 0.53528,-2.628376 0.1469,-0.872318 0.30715,-1.741321 0.39724,-2.622043 0.15102,-0.948054 0.28124,-1.899188 0.45724,-2.842629 0.21725,-0.996129 0.34498,-2.007866 0.50023,-3.015089 0.1319,-1.249492 0.31077,-2.493958 0.46019,-3.741222 0.17445,-0.98551 0.39795,-1.961665 0.55515,-2.950319 0.10671,-0.941006 0.27738,-1.875464 0.3158,-2.823273 0.104,-1.073101 0.29329,-2.129974 0.47604,-3.191706 0.0754,-0.887755 0.21834,-1.764327 0.46125,-2.622987 0.17773,-1.008761 0.24218,-2.03635 0.41303,-3.047083 0.10635,-0.970307 0.29936,-1.92433 0.43878,-2.889784 0.18246,-0.970497 0.43143,-1.927193 0.69114,-2.879476 0.30291,-1.102024 0.64957,-2.190812 1.08723,-3.248011 0.52693,-1.229584 1.00488,-2.4793 1.54058,-3.705236 0.52475,-1.147041 1.05448,-2.292646 1.54193,-3.455798 0.39289,-0.97254 0.82149,-1.924858 1.36704,-2.823183 0.41017,-0.826159 0.84006,-1.646076 1.33207,-2.426177 0,0 -4.72876,2.061932 -4.72876,2.061932 z" />
          </g>
          <ellipse
             style="fill:#9ac036;fill-opacity:0.996078;stroke-width:1.08582"
             id="path250"
             cx="104.96825"
             cy="59.713482"
             rx="1.7923496"
             ry="4.180985"
             transform="matrix(0.8952592,0.4455457,-0.48537151,0.87430801,0,0)" />
        </g>
        <path
           style="fill:#ffffff;fill-opacity:0.996078"
           id="path265"
           d="m 53.645425,249.38464 c 0.231068,-1.14473 0.82265,-2.16761 1.317474,-3.21138 0.47336,-0.99849 0.93655,-2.00178 1.408927,-3.00074 1.940078,-4.29031 4.024235,-8.50764 6.207957,-12.67865 2.299012,-4.26337 4.602793,-8.53442 7.275738,-12.57969 1.525876,-2.30928 2.871181,-4.06042 4.523922,-6.29162 4.55936,-6.08777 9.698798,-11.69928 15.1748,-16.96686 2.200742,-2.04132 4.434197,-4.05542 7.012696,-5.60998 0.185471,-0.11955 0.370942,-0.23911 0.556413,-0.35866 0,0 -4.695177,1.83043 -4.695177,1.83043 v 0 c -0.171007,0.11181 -0.342015,0.22362 -0.513023,0.33544 -2.361979,1.56997 -4.424721,3.50641 -6.443831,5.4902 -5.282386,5.3271 -10.282456,10.92715 -14.836682,16.89446 -0.811982,1.08212 -1.647908,2.14669 -2.435947,3.24637 -3.595521,5.01741 -6.584457,10.44067 -9.616002,15.80626 -2.279769,4.22282 -4.473693,8.48628 -6.508297,12.83332 -0.639989,1.29347 -0.876599,1.78691 -1.527217,3.04495 -0.575874,1.11351 -1.206777,2.20904 -1.522661,3.43358 0,0 4.62091,-2.21743 4.62091,-2.21743 z" />
      </g>
      <text
         xml:space="preserve"
         style="font-size:37.3333px;line-height:1.25;font-family:'Go Mono';word-spacing:0px;-inkscape-font-specification:'Go Mono, Normal';font-weight:normal;font-style:normal;font-stretch:normal;font-variant:normal;font-variant-ligatures:normal;font-variant-caps:normal;font-variant-numeric:normal;font-variant-east-asian:normal;fill:#85c03f;fill-opacity:1;"
         x="50.184063"
         y="235.90564"
         id="text278"><tspan
           sodipodi:role="line"
           id="tspan276"
           x="50.184063"
           y="235.90564">PyMemebrane</tspan></text>
    </g>
  </g>
</svg>
